<?xml version="1.0" encoding="UTF-8"?><svg id="Layer_1" xmlns="http://www.w3.org/2000/svg" width="1080" height="1080" viewBox="0 0 1080 1080"><defs><style>.cls-1{fill:#f2a900;}</style></defs><path class="cls-1" d="M578.916,328c3.294,2.111,7.938,2.815,11.753,3.726,26.87,6.415,53.806,12.54,80.607,19.227,3.579-.003,8.257-7.789,11.427-10.477,39.913-33.832,93.893,19.972,60.914,60.025-23.344,28.351-70.562,14.995-74.951-21.412l-84.752-18.093-24.961,73.999c9.134.242,18.341-.3,27.481-.026,35.185,1.054,71.382-.518,106.744-1,16.078-.219,31.991-.016,47.913,1.062,10.574.716,21.47,1.007,31.999,1.943,9.567.85,11.875,6.972,13.389,15.586,1.961,11.153.965,23.614,2.026,34.97.829,8.873,3.022,5.742,8.482,5.437,4.928-.275,11.554-.752,15.502,2.536.097,1.029-1.573.223-1.982.505-2.123,1.459,2.494,2.308,2.884,3.587-1.235,6.669,3.733,15.237-.886,20.92-.682.839-3.854,3.486-4.505,3.486h-19.465l.995,138.003,18.283,1.183c10.103,3.918,5.298,14.892,5.456,23.12l-2.782,4.692,3,.5c-.969,1.588-2.134,1.208-3.489,1.505-6.635,1.458-11.788.85-18.398.072-.398,1.486-.961,2.807-1.109,4.389-1.294,13.884,1.252,28.139-1.008,41.988-1.354,8.3-9.11,10.57-16.488,11.482-2.694.333-6.396-.906-8.418,1.067h-16.969c.426-3.255-1.145-1.805-3.006-1.513-1.158.182-2.068.504-3.435.56-35.597,1.455-72.181-1.213-107.885-.011-4.613-.389-4.648-3.055-4.963-3.05-1.653.025-2.145,1.756-3.975,2.026-4.684.69-11.163.943-15.981.989-1.658.016-4.58-.716-5.491,1h-45.917c-.913-1.716-3.836-.984-5.493-.998-16.926-.144-36.425,1.344-52.93.028-1.488-.119-5.56-.766-6.833-1.165-1.418-.444-1.216-2.013-1.902-2.623-.583-.519-1.619-.144-1.717-.241-.35-.347.953-2.865-1.994-1.998-.686,3.083,1.334,1.557,1.994,1.998.136.091-.08,2.179-.003,2.999-3.477-1.903-4.722.575-7.505.983-6.566.963-16.817-.051-23.932.02-1.658.016-4.579-.72-5.493.998h-92.831c-.912-1.716-3.835-.984-5.493-.998-15.37-.131-31.679.448-46.845-1.069-2.551-.255-9.709-1.908-11.529-3.45-1.223-1.035-4.009-6.655-4.009-7.983v-43.5h-14.474c-.116,0-1.058-.785-2.031-.965-3.264-.603-5.551.506-7.008-3.979-1.024-3.152-.806-16.197-.443-20.056.276-2.939.832-4.358,3.707-5.786,4.353-2.162,13.335-1.961,18.256-2.211l1.044-136.404c-7.731-4.097-18.96,2.155-24.005-7.599v-10c1.778-1.209.95-4.821.998-7,.092-4.153.69-2.053,2.995-4.996l-2.992-.502c5.861-4.141,15.286-2.738,21.955-1.498.178-1.56.902-2.813,1.041-4.466,1.205-14.392-1.132-30.29.146-44.852,3.403-7.547,10.355-10.167,18.236-10.731,25.918-1.856,53.024.801,78.857,1.091,21.66.243,46.875-1.859,67.956-.082,4.613.389,4.648,3.058,4.963,3.051,1.548-.033,1.964-1.361,3.223-1.78,6.315-2.106,32.238-2.03,39.722-1.264,2.524.258,5.363,2.057,6.992,2.037,1.42-.017,2.274-1.745,3.953-2.016,2.765-.446,13.354.668,14.394-.077l33.529-97.912c1.422-4.734,4.746-6.456,8.481-9.003h8.984ZM733.524,373.024c0-12.641-10.229-22.889-22.848-22.889s-22.848,10.248-22.848,22.889,10.229,22.889,22.848,22.889,22.848-10.248,22.848-22.889ZM755.598,466.997c-5.283.639-9.538-.615-14.478-2.064-129.729.75-260.542,3.134-390.258.037-9.812-.234-19.677.239-29.48.028-.187,3.135.262,6.405.034,9.534-.482,6.601-1.82,14.456-2.101,20.978-.148,3.439,1.87,8.088,2.114,11.945.442,6.989-2.974,11.225.013,16.991-2.647,53.457,3.327,109.994-.026,163.087-.146,2.313-.631,6.588-.976,8.855-.156,1.023-3.618.986-3.046,3.109.298,1.107,3.391,1.563,3.874,3.123,1.064,3.438-1.043,13.128.557,15.442,2.191,3.171,22.241,1.276,26.99,1.96,5.007.721,1.304,2.022,7.194.14,2.655-.848,5.068,1.072,7.754.885,51.009-1.156,102.673-2.083,153.641-.076,1.061,3.028,3.182,3.028,4.243,0,34.936-1.996,70.539-.69,105.728-.924,31.966-.212,63.711-.649,95.735,0,4.44.09,32.073.461,33.526-.504.902-.599,1.761-2.922,1.925-4.071.848-5.937.244-16.603.075-23.016-1.862-70.443.655-141.696-3.071-211.924-.238-4.481.232-9.056.034-13.534Z"/><path class="cls-1" d="M556.956,690c-.927-.931.736-9.406.726-11.317-.03-6.169-1.613-14.137-1.755-20.152-.359-15.175,2.373-40.517.034-54.034-.759-4.385-4.927-9.407-5.058-14.98-.05-2.105,2.495-15.915,3.141-16.46.614-.519,3.606,1.268,3.924-3.614.107-1.653-.987-3.182-1.047-4.912-.661-19.346-2.173-41.125-.025-60.091.256-2.263-.659-6.879,1.004-7.995,1.547-1.038,7.013-.286,9.476-.507,13.234-1.187,22.962-.569,35.966.093,8.892.453,24.856-2.814,26.43,9.522.805,6.309.245,16.303.083,22.978-.046,1.893-1.03,3.668-1.074,5.924-.212,10.824,1.986,37.413-2.16,45.836-1.196,2.429-4.145,3.106-3.844,6.196.245,2.516,7.381,7.685,8.019,12.04-1.601,23.407,2.27,49.872-.04,72.906-.934,9.315-4.429,16.388-14.471,17.503-2.867.318-9.721,1.064-11.914,1.064h-47.414ZM585.953,572.95c1.873.015,3.554.928,5.411,1.081,11.57.949,7.739-2.025,8.484-10.561,1.027-11.767,2.016-26.164,1.071-38.012-.503-6.303-10.1-2.444-15.018-3.461-.226,13.126-1.738,26.294-1.04,39.548.198,3.756,1.707,7.395,1.092,11.405ZM600.877,662.5v-53c0-.131-.799-1.047-.971-2.028-.216-1.236.183-2.659-.137-3.863-.681-2.564-11.287-3.415-12.935-1.003-.536.784-.884,2.801-.968,3.859-1.207,15.269-.413,33.346-.926,49.062-.063,1.922-1.956,5.596.144,7.301,1.804,1.465,15.146,2.148,15.792-.329Z"/><path class="cls-1" d="M471.612,496c.16-.001.72-.833,1.797-.806,2.004.051,10.318,3.809,10.7,6.286l.026,150.065c-.178,3.967-3.015,8.434,1.946,10.988,2.601,1.339,3.572-.86,5.672-1.355,5.485-1.293,8.449,3.055,9.713,2.789,5.155-1.083,3.288-18.131,3.555-22.498.223-3.634,1.996-9.609,2.017-13.011.011-1.715-2.637-3.411-2.876-5.121-.098-.704,2.82-5.224,2.8-7.839-.266-33.701-4.534-71.866-.969-105.056.565-5.26-.779-12.338,6.572-13.416,3.272-.48,14.047-.391,16.477,1.476.777.598,1.38,4.448,2.939,2.463.613-.781.137-5.286,3.036.515.186,10.339-.299,20.715-.049,31.05.958,39.594,1.631,79.327,0,118.938-.371,9.017.443,17.836-1.178,26.82-2.578,14.289-22.521,10.239-33.26,10.68-1.923.079-3.664,1.012-5.913,1.076-10.237.292-20.567-.15-30.803-.231-11.341-5.361-8.975-12.152-9.638-22.345-2.466-37.92-.848-78.919,1.013-116.924.266-5.432-2.205-19.679-.076-22.92.728-1.109,2.647.173,2.045-3.132-.121-.662-1.87-.174-2.042-1.11-.965-5.26-2.01-19.84-.521-24.432.241-.742,1.581-2.951,2.045-2.951,4.99,0,9.983.046,14.973,0Z"/><path class="cls-1" d="M697.201,663c4.868-1.321.774-10.951.471-14.472-1.238-14.379.972-30.461.036-45.036-.705-4.236-6.512-3.446-7.014-6.973-.928-6.509.584-14.367,1.135-20.901.419-1.569,7.25-2.49,9.334-2.649,5.273-.402,17.07-.696,22.01.012,4.717.676,3.13,8.219,3.443,11.55,2.669,28.348.113,57.45,1.075,86.014-.82,11.492-5.569,18.485-17.485,19.483-10.903.913-27.928.648-39.003.017-3.741-.213-8.373-1.227-12.164-1.814-3.645-2.421-6.59-5.765-8.064-9.921-.726-38.272.298-76.58-.144-114.856-.026-2.257-1.048-4.05-1.074-5.924-.199-14.37-1.644-37.526,1.214-50.845.791-3.687,7.561-11.422,11.244-11.736,14.753,2.221,46.647-4.071,58.812,3.181,1.044.622,5.319,4.665,5.482,5.489.172.87-.856,2.478-.894,3.85-.226,8.22.584,16.948.065,25.061-.19,2.972-1.779,6.096-1.041,9.455-2.262-.299-4.275.871-6.448,1.044-2.904.231-13.742.497-15.884-.144-2.882-.863-.792-3.495-.885-5.206-.049-.91-.695-1.97-.752-3.148-.12-2.484.328-10.955-1.111-12.395-.333-.333-5.316-1.223-6.352-1.223-4.034,0-8.959,2.083-13.477,1.083l-.028,8.534c.018,38.511,3.49,80.612,1.074,119.015-.234,3.726-1.205,8.249-2.065,11.92l3.516,1.534c4.116-.711,11.379.975,14.973,0Z"/><path class="cls-1" d="M386.281,613.016c.109,2.474-.227,5.039-.045,7.515,1.321,17.954,2.398,41.036,1.072,59.012-.344,4.665-1.183,10.649-6.561,11.428-2.506.363-19.402.308-20.473-.432-.265-.183-3.707-4.886-3.799-5.194-.895-2.977.094-9.258-.124-12.876-.643-10.658-.242-17.602,0-27.938.186-7.953-1.192-19.811-.041-27.039.597-3.745,4.365-2.495-1.49-7.531-.735-.632-2.18-.863-2.35-1.1-.653-.906-.471-19.974-.118-22.337.445-2.984,3.424-5.27,3.917-9.076,1.438-11.104-2.819-23.844,3.063-33.936l-3.007-.512.104-44.391c.491-1.666,4.639-2.477,6.35-2.639,15.209-1.441,36.612-.151,51.905,1.06,6.912.547,16.17-1.564,18.47,7.496l-.129,98.817c-10.63,14.357-31.601,5.914-46.745,9.673ZM402.238,523h-14.973l-.18,52.314c-2.01,1.594-2.382,5.397-.187,6.748,1.863,1.147,13.686,2.717,15.403,1.467.626-.456.661-1.698,1.213-2.25.559-.559,1.803-.602,2.247-1.208,1.481-2.023-.198-4.89-.54-7.077l-1.981,1.014-1.002-51.007Z"/></svg>