<?xml version="1.0" encoding="UTF-8"?><svg id="AirDrop" xmlns="http://www.w3.org/2000/svg" width="1000" height="1000" xmlns:xlink="http://www.w3.org/1999/xlink" viewBox="0 0 1000 1000"><defs><style>.cls-1{fill:none;}.cls-2{fill:#96daf1;}.cls-3{clip-path:url(#clippath-1);}.cls-4{fill:#96d9f0;}.cls-5{clip-path:url(#clippath);}.cls-6{fill:#105379;}</style><clipPath id="clippath"><rect class="cls-1" x="93.29" y="93.29" width="813.42" height="813.42"/></clipPath><clipPath id="clippath-1"><rect class="cls-1" x="93.29" y="93.29" width="813.42" height="813.42"/></clipPath></defs><g id="Background"><g class="cls-5"><g class="cls-3"><path class="cls-6" d="M93.29,500c0-224.62,182.09-406.71,406.71-406.71s406.71,182.09,406.71,406.71-182.09,406.71-406.71,406.71S93.29,724.62,93.29,500"/><path class="cls-2" d="M137.226,500c0-200.354,162.419-362.774,362.774-362.774s362.773,162.42,362.773,362.774-162.419,362.774-362.773,362.774-362.774-162.42-362.774-362.774"/><path class="cls-6" d="M175.475,500c0-179.23,145.295-324.525,324.525-324.525s324.526,145.295,324.526,324.525-145.295,324.525-324.526,324.525-324.525-145.295-324.525-324.525"/></g></g></g><path class="cls-4" d="M547.32,574.542c-.433-1.741.717-1.996,1.492-3.004,4.39-5.707,10.984-12.474,15.975-17.987,49.515-54.688,99.68-108.799,148.85-163.802l.499-2.989c-22.832-7.243-44.174-12.711-68.415-9.987-7.939.892-44.381,8.898-47.915,15.015l-54.402,180.338-1.58,2.416h-18.479l52.008-188.122c-.206-.896-9.559-4.323-11.283-4.935-37.473-13.296-90.635-13.769-127.877.523-2.706,1.039-10.44,3.316-10.771,6.235l52.972,186.299h-18.479c-3.358-6.619-5.48-14.148-7.758-21.21-17.366-53.849-32.497-108.485-49.224-162.541-2.894-5.026-37.071-13.015-44.023-13.913-25.607-3.309-49.183,2.024-73.304,9.883l.499,2.989c52.665,58.454,107.557,115.001,159.838,173.791,2.078,2.337,5.208,5.688,6.985,7.998.775,1.007,1.924,1.263,1.492,3.004h-23.474c-52.808-59.593-108.852-116.381-161.834-175.791-1.4-1.57-9.302-10.464-9.287-11.305,15.709-62.528,54.431-118.457,109.767-151.95,126.876-76.793,295.13-29.898,355.703,106.627,4.579,10.319,13.303,31.755,14.561,42.399.241,2.04.821,4.053-.703,5.781-56.561,61.011-112.727,122.38-168.363,184.238h-23.474Z"/><rect class="cls-4" x="445.433" y="641.467" width="119.867" height="103.885"/><rect class="cls-4" x="445.433" y="585.475" width="119.867" height="44.005"/><rect class="cls-4" x="399.484" y="641.467" width="32.963" height="103.885"/><rect class="cls-4" x="578.286" y="641.467" width="23.973" height="103.885"/><rect class="cls-4" x="388.497" y="585.529" width="43.951" height="43.951"/><rect class="cls-4" x="578.286" y="585.529" width="32.963" height="43.951"/></svg>