<?xml version="1.0" encoding="UTF-8"?><svg id="AreaBlocking" xmlns="http://www.w3.org/2000/svg" width="1000" height="1000" xmlns:xlink="http://www.w3.org/1999/xlink" viewBox="0 0 1000 1000"><defs><style>.cls-1{font-family:RefrigeratorDeluxe-ExtraBold, 'Refrigerator Deluxe';font-size:140.485px;font-weight:700;}.cls-1,.cls-2{fill:#94d8ef;}.cls-3{fill:none;}.cls-4{fill:#96daf1;}.cls-5{clip-path:url(#clippath-1);}.cls-6{fill:#3c89b5;}.cls-7{clip-path:url(#clippath);}.cls-8{fill:#105379;}</style><clipPath id="clippath"><rect class="cls-3" x="93.29" y="93.29" width="813.42" height="813.42"/></clipPath><clipPath id="clippath-1"><rect class="cls-3" x="93.29" y="93.29" width="813.42" height="813.42"/></clipPath></defs><g id="Background"><g class="cls-7"><g class="cls-5"><path class="cls-8" d="M93.29,500c0-224.62,182.09-406.71,406.71-406.71s406.71,182.09,406.71,406.71-182.09,406.71-406.71,406.71S93.29,724.62,93.29,500"/><path class="cls-4" d="M137.226,500c0-200.354,162.419-362.774,362.774-362.774s362.773,162.42,362.773,362.774-162.419,362.774-362.773,362.774-362.774-162.42-362.774-362.774"/><path class="cls-8" d="M175.475,500c0-179.23,145.295-324.525,324.525-324.525s324.526,145.295,324.526,324.525-145.295,324.525-324.526,324.525-324.525-145.295-324.525-324.525"/></g></g></g><text class="cls-1" transform="translate(241.422 651.289) scale(1.099 1)"><tspan x="0" y="0">BLOCKING</tspan></text><path class="cls-6" d="M530.253,375.685c12.082-5.548,24.04-11.283,35.778-17.529,38.181,7.793,80.351,15.085,118.225,24.215l-1.782,1.035c-55.98,34.807-115.296,67.736-172.012,102.144-7.08,4.295-21.252,15.759-28.744,18.089l1.103-103.687c2.604-1.83,1.931-1.171,4.412-2.206,7.889-3.29,13.856-6.949,20.958-11.031,8.291-4.765,13.51-7.104,22.061-11.031Z"/><path class="cls-6" d="M456.092,398.756l.071,91.289-2.132,3.509-161.089-65.13c-.894-.328-1.488-.911-1.716-1.847l116.437-44.308c13.724,4.71,28.254,7.97,41.753,13.37,1.536.614,5.758,2.203,6.676,3.117Z"/><path class="cls-2" d="M696.909,388.731l-5.263,3.273c-201.78,120.862,5.263-3.273-201.78,120.862-13.523,8.108,0,0-13.739,7.737l-.546-135.896,220.755-107.381M682.371,377.805c0-12.001,0-3.067-1.027-75.507l-144.83,72.92c-7.744,3.556-12.47,5.674-19.978,9.989l-18.979,9.989-4.384,1.929c-1.633.719,0,0-1.628.73l-.981,93.235"/><path class="cls-2" d="M695.949,271.882l-2.347,1.211-220.656,105.801-194.143-63.625c-.411-2.257.109-1.587,1.27-2.217,7.064-3.83,16.486-7.591,24.023-10.931,60.81-26.944,122.836-51.33,183.935-77.615,69.071,15.379,138.586,33.192,207.918,47.375ZM659.076,276.502l-3.631-.753-167.333-36.381c-56.588,25.889-115.201,47.433-172.006,72.772-1.118.499-3.463.729-3.336,2.132l159.166,51.698,187.14-89.469Z"/><path class="cls-2" d="M469.588,517.06l-191.787-79.412v-117.37l191.787,64.428v132.353ZM292.785,426.314l1.663.639,156.161,63.137,2.911,1.123c1.27-93.288.094-.522,1.27-93.288l-8.655-2.754c-40.472-12.877,0,0-40.237-13.596-2.941-.994-6.58-2.325-9.691-3.397-34.393-11.853-68.87-23.543-103.416-34.921l-.007,83.057Z"/></svg>