<?xml version="1.0" encoding="UTF-8"?><svg id="BGM" xmlns="http://www.w3.org/2000/svg" width="1000" height="1000" xmlns:xlink="http://www.w3.org/1999/xlink" viewBox="0 0 1000 1000"><defs><style>.cls-1{fill:#95d9f0;}.cls-2{fill:none;}.cls-3{fill:#96daf1;}.cls-4{clip-path:url(#clippath-1);}.cls-5{clip-path:url(#clippath);}.cls-6{fill:#105379;}</style><clipPath id="clippath"><rect class="cls-2" x="93.29" y="93.29" width="813.42" height="813.42"/></clipPath><clipPath id="clippath-1"><rect class="cls-2" x="93.29" y="93.29" width="813.42" height="813.42"/></clipPath></defs><g id="Background"><g class="cls-5"><g class="cls-4"><path class="cls-6" d="M93.29,500c0-224.62,182.09-406.71,406.71-406.71s406.71,182.09,406.71,406.71-182.09,406.71-406.71,406.71S93.29,724.62,93.29,500"/><path class="cls-3" d="M137.226,500c0-200.354,162.419-362.774,362.774-362.774s362.773,162.42,362.773,362.774-162.419,362.774-362.773,362.774-362.774-162.42-362.774-362.774"/><path class="cls-6" d="M175.475,500c0-179.23,145.295-324.525,324.525-324.525s324.526,145.295,324.526,324.525-145.295,324.525-324.526,324.525-324.525-145.295-324.525-324.525"/></g></g></g><path class="cls-1" d="M381.973,302.766c3.233-.549,6.538-.13,9.793-.277,116.357,18.75,233.237,35.517,349.13,56.416,7.837,4.757,11.842,12.095,12.957,21.079-29.579,99.347-62.402,197.854-93.904,296.651-11.945,28.923-31.582,20.887-56.152,16.15-113.139-21.813-225.289-49.249-338.444-71.101-12.152-1.765-21.112-11.175-18.857-23.88,27.352-70.518,58.573-139.748,88.259-209.404,9.339-21.913,17.868-47.697,28.314-68.578,3.99-7.975,9.355-15.435,18.903-17.057ZM404.976,334.742c-6.701.869-14.469,6.409-17.571,12.413l-93.835,220.815c-6.28,15.194-2.716,26.452,13.711,30.766l303.353,58.297c8.215.433,18.229-4.253,22.121-11.588,28.215-80.101,53.437-161.565,79.005-242.637.888-15.161-5.973-20.225-19.643-23.093-91.864-12.429-182.922-31.249-274.712-43.935-4.027-.557-8.417-1.56-12.429-1.04Z"/><path class="cls-6" d="M404.976,334.742c4.012-.52,8.402.483,12.429,1.04,91.79,12.686,182.847,31.506,274.712,43.935,13.67,2.868,20.531,7.932,19.643,23.093-25.568,81.072-50.79,162.535-79.005,242.637-3.892,7.335-13.906,12.021-22.121,11.588l-303.353-58.297c-16.427-4.315-19.991-15.573-13.711-30.766l93.835-220.815c3.102-6.004,10.87-11.544,17.571-12.413ZM402.938,339.715c-1.86.387-6.797,3.413-8.211,4.775-5.311,5.115-20.059,43.038-24.215,52.699-25.307,58.821-49.145,118.295-74.712,177.006-2.733,11.111,2.794,18.104,13.291,20.734l296.65,56.958c9.566,1.138,16.574.194,22.655-7.802,24.085-69.699,48.06-140.27,69.753-210.935,2.394-7.797,9.879-28.221,9.475-34.98-.358-5.988-5.811-12.025-11.49-13.482-20.674-5.303-48.6-6.986-70.402-10.508-68.285-11.033-136.773-24.416-205.332-33.403-5.382-.706-12.197-2.157-17.463-1.062Z"/><path class="cls-1" d="M402.938,339.715c5.266-1.094,12.081.357,17.463,1.062,68.559,8.987,137.046,22.37,205.332,33.403,21.802,3.523,49.728,5.205,70.402,10.508,5.68,1.457,11.133,7.494,11.49,13.482.404,6.759-7.082,27.182-9.475,34.98-21.693,70.665-45.668,141.235-69.753,210.935-6.081,7.996-13.09,8.94-22.655,7.802l-296.65-56.958c-10.497-2.63-16.024-9.623-13.291-20.734,25.567-58.711,49.406-118.186,74.712-177.006,4.156-9.661,18.904-47.584,24.215-52.699,1.414-1.362,6.351-4.388,8.211-4.775ZM533.165,441.48c7.421-1.256,15.292,4.029,20.794,8.469,18.986,15.322,19.274,34.179,5.908,53.686-2.81,4.101-14.901,15.195-14.913,18.145-.046,11.045,16.024-.484,19.601-3.468,16.272-13.573,28.139-36.419,22.789-57.797-5.519-22.053-21.462-29.313-33.279-45.633-6.248-8.629-13.076-31.497-25.047-14.015l-37.028,111.305c-1.83,1.182-20.061-5.303-24.456-5.765-21.823-2.292-58.431,6.632-60.325,33.378-2.83,39.967,76.717,40.791,91.657,5.736l34.298-104.041Z"/></svg>