<?xml version="1.0" encoding="UTF-8"?><svg id="ChanceTrigger" xmlns="http://www.w3.org/2000/svg" width="1000" height="1000" xmlns:xlink="http://www.w3.org/1999/xlink" viewBox="0 0 1000 1000"><defs><style>.cls-1{fill:none;}.cls-2{fill:#96daf1;}.cls-3{clip-path:url(#clippath-1);}.cls-4{fill:#94d8ef;}.cls-5{clip-path:url(#clippath);}.cls-6{fill:#105379;}</style><clipPath id="clippath"><rect class="cls-1" x="93.29" y="93.29" width="813.42" height="813.42"/></clipPath><clipPath id="clippath-1"><rect class="cls-1" x="93.29" y="93.29" width="813.42" height="813.42"/></clipPath></defs><g id="Background"><g class="cls-5"><g class="cls-3"><path class="cls-6" d="M93.29,500c0-224.62,182.09-406.71,406.71-406.71s406.71,182.09,406.71,406.71-182.09,406.71-406.71,406.71S93.29,724.62,93.29,500"/><path class="cls-2" d="M137.226,500c0-200.354,162.419-362.774,362.774-362.774s362.773,162.42,362.773,362.774-162.419,362.774-362.773,362.774-362.774-162.42-362.774-362.774"/><path class="cls-6" d="M175.475,500c0-179.23,145.295-324.525,324.525-324.525s324.526,145.295,324.526,324.525-145.295,324.525-324.526,324.525-324.525-145.295-324.525-324.525"/></g></g></g><path class="cls-4" d="M619.289,285.87c7.035-1.276,40.441-1.303,47.647-.174,4.265.668,6.257,3.992,5.355,8.17-91.342,142.637-184.556,284.039-277.951,425.324-2.111,2.096-5.012,3.7-8.007,3.98l-52.458-.523c-.786-.517-1.65-1.279-1.875-2.2-.626-2.573,10.738-18.99,13.04-22.586,86.745-135.466,178.578-267.795,264.29-403.968,2.623-3.388,5.482-7.212,9.957-8.023Z"/><path class="cls-4" d="M322.233,301.965c42.922-41.771,112.453-30.47,141.664,20.955,41.31,72.726-19.889,165.12-103.271,142.228-70.327-19.307-89.231-113.71-38.393-163.183ZM386.478,327.971c-58.873-.429-48.895,102.736,8.529,88.222,42.121-10.646,37.744-87.885-8.529-88.222Z"/><path class="cls-4" d="M675.865,698.56c-53.481,49.677-133.026,20.995-148.72-48.321-14.47-63.907,34.328-126.798,101.626-116.609,78.398,11.87,103.703,112.348,47.095,164.93ZM610.32,582.564c-45.072,6.11-44.02,83.59-.997,89.382,59.699,8.037,58.938-97.237.997-89.382Z"/></svg>