<?xml version="1.0" encoding="UTF-8"?><svg id="ConquestArea" xmlns="http://www.w3.org/2000/svg" width="1000" height="1000" xmlns:xlink="http://www.w3.org/1999/xlink" viewBox="0 0 1000 1000"><defs><style>.cls-1{fill:#95d9f0;}.cls-2{fill:none;}.cls-3{fill:#96daf1;}.cls-4{clip-path:url(#clippath-1);}.cls-5{clip-path:url(#clippath);}.cls-6{fill:#105379;}</style><clipPath id="clippath"><rect class="cls-2" x="93.29" y="93.29" width="813.42" height="813.42"/></clipPath><clipPath id="clippath-1"><rect class="cls-2" x="93.29" y="93.29" width="813.42" height="813.42"/></clipPath></defs><g id="Background"><g class="cls-5"><g class="cls-4"><path class="cls-6" d="M93.29,500c0-224.62,182.09-406.71,406.71-406.71s406.71,182.09,406.71,406.71-182.09,406.71-406.71,406.71S93.29,724.62,93.29,500"/><path class="cls-3" d="M137.226,500c0-200.354,162.419-362.774,362.774-362.774s362.773,162.42,362.773,362.774-162.419,362.774-362.773,362.774-362.774-162.42-362.774-362.774"/><path class="cls-6" d="M175.475,500c0-179.23,145.295-324.525,324.525-324.525s324.526,145.295,324.526,324.525-145.295,324.525-324.526,324.525-324.525-145.295-324.525-324.525"/></g></g></g><path class="cls-1" d="M426.431,265.378c31.581-13.059,65.452-16.83,99.076-9.676,30.369,6.462,55.212,25.37,86.346,29.526,25.516,3.406,50.868-1.989,74.29-11.859v167.314c-26.869,20.089-60.86,23.333-93.083,16.169-45.733-10.169-83.484-43.39-133.508-32.993-6.199,1.288-30.196,10.025-32.608,15.338l-.599,215.161c-5.377,22.475-38.834,20.397-40.908-2.869l.037-403.595c2.66-18.439,26.227-24.872,37.379-9.404.826,1.146,3.579,5.475,3.579,6.41v20.477Z"/><path class="cls-1" d="M362.502,583.025v33.962c-28.851,13.489-49.13,38.16-18.991,64.44,59.47,51.856,220.87,48.658,288.378,13.659,57.995-30.067,35.312-65.135-14.423-83.84-43.578-16.39-98.235-19.941-144.628-18.274-5.172.186-21.174,3.035-24.776,1.877-.552-.178-1.653-.973-1.653-1.337v-29.467c38.647-5.025,79.575-3.989,118.227,1.141,48.225,6.4,142.9,30.613,148.461,90.274,7.601,81.546-128.177,111.628-188.233,114.398-65.278,3.011-191.594-13.164-228.456-75.289-31.876-53.721,20.244-94.926,66.095-111.545Z"/></svg>