<?xml version="1.0" encoding="UTF-8"?><svg id="DamageTrigger" xmlns="http://www.w3.org/2000/svg" width="1000" height="1000" xmlns:xlink="http://www.w3.org/1999/xlink" viewBox="0 0 1000 1000"><defs><style>.cls-1{fill:none;}.cls-2{fill:#96daf1;}.cls-3{clip-path:url(#clippath-1);}.cls-4{fill:#94d8ef;}.cls-5{clip-path:url(#clippath);}.cls-6{fill:#105379;}</style><clipPath id="clippath"><rect class="cls-1" x="93.29" y="93.29" width="813.42" height="813.42"/></clipPath><clipPath id="clippath-1"><rect class="cls-1" x="93.29" y="93.29" width="813.42" height="813.42"/></clipPath></defs><g id="Background"><g class="cls-5"><g class="cls-3"><path class="cls-6" d="M93.29,500c0-224.62,182.09-406.71,406.71-406.71s406.71,182.09,406.71,406.71-182.09,406.71-406.71,406.71S93.29,724.62,93.29,500"/><path class="cls-2" d="M137.226,500c0-200.354,162.419-362.774,362.774-362.774s362.773,162.42,362.773,362.774-162.419,362.774-362.773,362.774-362.774-162.42-362.774-362.774"/><path class="cls-6" d="M175.475,500c0-179.23,145.295-324.525,324.525-324.525s324.526,145.295,324.526,324.525-145.295,324.525-324.526,324.525-324.525-145.295-324.525-324.525"/></g></g></g><path class="cls-4" d="M238.502,399.664c2.225-.374,4.428-.438,6.668-.154,8.348,1.057,30.48,22.261,39.632,28.29,47.657,31.392,113.708,30.838,169.265,27.6,30.468-1.776,59.825-12.774,84.278-30.594,7.208-5.253,25.428-23.391,32.042-24.895,14.806-3.367,27.261,8.897,23.51,23.512-2.437,9.493-22.95,25.897-31.178,31.75-26.802,19.065-58.954,32.244-91.519,37.338l-1.564,1.433-.069,98.703c14.619,35.664,32.242,70.224,47.064,105.766,2.865,6.869,7.122,15.965,9.095,22.87,8.105,28.354-26.383,43.747-43.068,20.093l-56.594-129.199c-.724-1.119-1.851-.91-2.948-1.047-5.675-.707-22.377-.687-28.083-.002-1.103.132-2.185.021-2.95,1.046-17.341,36.747-32.131,74.732-49.258,111.563-6.626,14.25-10.639,29.005-29.672,28.347-10.026-.347-20.916-8.205-22.357-18.62-1.59-11.492,8.92-31.916,13.717-43.045,13.971-32.415,28.947-64.506,42.906-96.939l.095-99.533-1.556-1.44c-27.563-3.709-54.556-14.261-78.14-28.741-10.598-6.508-32.712-22.576-39.476-32.444-7.26-10.591-3.545-29.352,10.161-31.656Z"/><circle class="cls-4" cx="408.86" cy="359.617" r="76.046"/><path class="cls-6" d="M676.956,770.138c-12.229,0-22.896-4.173-30.851-12.067-8.058-7.999-10.595-17.838-7.337-28.455,2.424-7.898,7.728-14.969,12.595-20.844,11.193-13.507,31.705-29.132,52.298-33.592,2.975-.644,5.99-.864,8.651-1.06,2.094-.153,4.652-.341,5.97-.721,2.46-1.643,10.18-8.454,15.341-13.377,1.293-1.234,4.324-4.127,4.626-4.971.382-1.065-.174-6.006-.356-7.63-1.55-13.78-14.136-30.315-25.409-38.341-13.201-9.397-28.954-14.365-45.556-14.365-24.567,0-52.658,12.117-65.216,38.873,9.188,3.729,16.228,11.95,17.312,21.469.352,3.083.208,6.112.081,8.784-.096,2.013-.186,3.912-.048,5.4,1.66,17.973,6.128,35.178,11.951,46.022.303.564.814,1.029,1.768,1.871,7.204,6.362,7.799,13.61,1.77,21.542-5.507,7.243-20.459,16.099-29.628,17.548-2.346.371-4.684.559-6.947.56-33.206.002-44.833-37.975-48.653-50.454-4.074-13.306-10.299-37.578-6.221-50.643,2.687-8.608,8.781-13.742,12.814-17.14.977-.823,2.288-1.928,2.783-2.489,1.134-2.474,1.966-5.346,2.923-8.65,1.559-5.378,3.324-11.473,7.021-17.94,19.612-34.324,56.415-54.815,98.447-54.815,26.165,0,51.506,8.027,71.355,22.604,22.062,16.2,35.638,38.929,39.262,65.727.34,2.515.218,4.964.111,7.124-.04.804-.096,1.91-.087,2.659.178.239.378.504.547.729,2.131,2.819,5.697,7.537,6.494,14.66,2.264,20.22-10.484,26.585-18.92,30.797-2.942,1.469-5.721,2.856-8.012,4.684-1.148.915-1.86,1.533-2.296,1.937-.096,1.484-.257,3.669-.928,6.659-6.43,28.683-45.62,57.906-77.655,57.906Z"/><path class="cls-4" d="M740.79,666.704c7.952-7.588,8.651-8.987,7.305-20.953-1.896-16.863-16.03-35.748-29.547-45.37-45.544-32.421-114.879-14.921-130.166,40.764,9.108-1.628,19.903,5.112,20.972,14.491.504,4.427-.406,9.464.01,13.974,1.456,15.76,5.57,35.811,13.099,49.832,3.359,6.255,9.69,5.654,4.386,12.631-3.985,5.241-16.775,12.703-23.228,13.723-26.414,4.174-38.211-22.476-44.477-42.945-3.294-10.759-9.452-34.434-6.236-44.735,2.984-9.559,12.646-13.176,14.943-18.014,3.669-7.728,4.35-16.801,9.735-26.225,45.564-79.743,178.421-59.232,190.471,29.894.491,3.633-.606,8.561.324,11.663.905,3.02,5.948,6.43,6.715,13.281,2.088,18.651-12.41,17.924-23.228,26.548-8.113,6.467-4.929,6.113-6.748,14.228-6.96,31.049-64.988,67.445-91.703,40.929-12.004-11.915-2.825-25.275,5.912-35.82,10.956-13.221,29.779-26.531,46.715-30.199,5.431-1.176,12.099-.596,16.585-2.394,3.025-1.212,15.045-12.329,18.161-15.302ZM614.343,728.049c-6.471-15.929-13.604-34.13-14.962-51.454-.438-5.587,1.844-19.67-2.461-22.526-4.943-3.278-8.086,5.519-8.546,9.554-1.929,16.927,7.403,45.436,18.47,58.45.757.891,6.48,7.092,7.499,5.976Z"/><path class="cls-4" d="M723.137,304.616c.659.953-.092,3.441-.841,4.477-12.282,19.86-27.803,37.893-40.453,57.433-4.071,6.289-6.247,10.76,1.864,14.978l42.898,11.823c1.277.725.729,2.811.134,4.115l-98.883,25.998c-4.151-.61-2.143-7.171-2.529-10.526-3.284-28.523-8.21-51.806-42.729-40.748-5.067,1.623-10.137,7.315-13.623,1.204-7.971-22.163-17.812-43.647-26.314-65.582-1.357-3.5-8.575-21.751-8.276-23.706.437-2.861,2.646-3.151,5.033-2.026l42.602,33.318c6.735,2.953,10.468.974,13.372-5.33,8.87-19.255,11.874-45.874,21.446-65.458,2.717-5.559,6.292-5.557,9.001,0,9.947,20.409,14.223,48.651,23.96,67.939,3.068,6.078,6.424,5.558,12.739,4.727,17.253-2.269,39.047-11.936,55.481-13.533,1.197-.116,4.623.184,5.116.897Z"/><path class="cls-4" d="M646.228,725.966c-2.156,1.503-6.504-1.775-6.923-4.463-1.188-7.618,7.696-24.352,12.173-30.737,12.559-17.913,42.13-37.181,64.022-25.405,13.203,7.102-8.535,8.493-12.098,9.405-21.153,5.416-41.559,20.578-52.266,39.632-1.295,2.305-4.393,11.209-4.908,11.568Z"/></svg>