<?xml version="1.0" encoding="UTF-8"?><svg id="Interaction" xmlns="http://www.w3.org/2000/svg" width="1000" height="1000" xmlns:xlink="http://www.w3.org/1999/xlink" viewBox="0 0 1000 1000"><defs><style>.cls-1{fill:#95d9f0;}.cls-2{fill:none;}.cls-3{fill:#96daf1;}.cls-4{clip-path:url(#clippath-1);}.cls-5{clip-path:url(#clippath);}.cls-6{fill:#105379;}</style><clipPath id="clippath"><rect class="cls-2" x="93.29" y="93.29" width="813.42" height="813.42"/></clipPath><clipPath id="clippath-1"><rect class="cls-2" x="93.29" y="93.29" width="813.42" height="813.42"/></clipPath></defs><g id="Background"><g class="cls-5"><g class="cls-4"><path class="cls-6" d="M93.29,500c0-224.62,182.09-406.71,406.71-406.71s406.71,182.09,406.71,406.71-182.09,406.71-406.71,406.71S93.29,724.62,93.29,500"/><path class="cls-3" d="M137.226,500c0-200.354,162.419-362.774,362.774-362.774s362.773,162.42,362.773,362.774-162.419,362.774-362.773,362.774-362.774-162.42-362.774-362.774"/><path class="cls-6" d="M175.475,500c0-179.23,145.295-324.525,324.525-324.525s324.526,145.295,324.526,324.525-145.295,324.525-324.526,324.525-324.525-145.295-324.525-324.525"/></g></g></g><path class="cls-1" d="M324.393,490.823c-24.787-2.792-40.859-23.49-42.494-47.406-1.938-28.353-1.966-72.634,0-100.97,1.541-22.2,14.947-40.454,36.778-46.13,117.895-2.986,236.286-.391,354.365-1.312,23.083,1.893,42.807,17.821,45.291,41.613,3.767,36.091-2.553,78.032.113,114.74-.419,17.38-22.636,39.466-39.447,39.466h-135.35v-69.423c0-4.344-4.575-15.965-6.824-20.147-21.863-40.663-85.118-38.916-103.91,3.309-1.525,3.427-5.138,13.567-5.138,16.838v69.423h-103.385Z"/><path class="cls-1" d="M514.681,548.759l5,.005c-1.442-19.487,12.944-32.006,32.219-28.733,10.108,1.716,19.718,15.453,19.718,25.232v16.482l3.998-.01c-2.463-20.156,17.906-34.48,36.28-24.785,13.014,6.867,13.956,21.605,13.672,34.784,2.907-3.16,3.802-7.293,6.569-10.901,13.439-17.524,39.785-11.11,45.068,9.698,3.7,14.573,2.334,65.487,1.336,82.655-2.998,51.536-42.978,102.214-93.735,114.034-118.175,27.519-154.384-95.124-211.408-168.574-18.32-30.07,20.548-59.568,43.806-33.817l39.542,58.849v-198.28c0-1.801,3.874-10.883,5.161-12.819,16.27-24.471,52.775-9.601,52.775,18.812v117.37Z"/></svg>