<?xml version="1.0" encoding="UTF-8"?><svg id="ItemProvide" xmlns="http://www.w3.org/2000/svg" width="1000" height="1000" xmlns:xlink="http://www.w3.org/1999/xlink" viewBox="0 0 1000 1000"><defs><style>.cls-1{fill:none;}.cls-2{fill:#96daf1;}.cls-3{clip-path:url(#clippath-1);}.cls-4{fill:#95d8ef;}.cls-5{clip-path:url(#clippath);}.cls-6{fill:#105379;}</style><clipPath id="clippath"><rect class="cls-1" x="93.29" y="93.29" width="813.42" height="813.42"/></clipPath><clipPath id="clippath-1"><rect class="cls-1" x="93.29" y="93.29" width="813.42" height="813.42"/></clipPath></defs><g id="Background"><g class="cls-5"><g class="cls-3"><path class="cls-6" d="M93.29,500c0-224.62,182.09-406.71,406.71-406.71s406.71,182.09,406.71,406.71-182.09,406.71-406.71,406.71S93.29,724.62,93.29,500"/><path class="cls-2" d="M137.226,500c0-200.354,162.419-362.774,362.774-362.774s362.773,162.42,362.773,362.774-162.419,362.774-362.773,362.774-362.774-162.42-362.774-362.774"/><path class="cls-6" d="M175.475,500c0-179.23,145.295-324.525,324.525-324.525s324.526,145.295,324.526,324.525-145.295,324.525-324.526,324.525-324.525-145.295-324.525-324.525"/></g></g></g><path class="cls-4" d="M611.922,332.269c-.176,1.943,3.107.851,4.023.523,9.167-3.279,19.281-10.473,28.954-13.999,32.125-11.709,68.696-7.119,70.894,33.436-5.177-2.419-8.703-5.316-14.448-7.018-13.571-4.019-24.502.533-36.702,6.311-8.162,3.865-18.108,9.638-24.76,15.685,5.842-.603,11.232-4.122,16.766-5.699,41.547-11.834,59.962,4.726,76.309,40.991.991,2.199,6.761,14.62,5.809,15.656-4.3-1.197-8.008-4.739-11.981-6.488-58.571-25.787-86.251,74.67-150.139,38.263-1.987-1.132-16.948-12.566-17.67-11.787-2.985,26.679-19.446,51.785-46.171,59.212-1.748.486-4.906,1.679-6.414,1.687-3.775.02-12.576-10.198-15.32-13.481-71.399-85.429,15.399-212.301,120.223-192.143,5.494,1.056,30.212,8.485,33.556,11.397,1.583,1.379.684,1.272-.494,2.449-3.723,3.718-10.567,7.47-14.935,11.036-5.763,4.704-10.732,10.699-17.5,13.97Z"/><path class="cls-4" d="M528.013,293.305c.127.133.117,2.202-.226,2.801-.505.881-13.729,10.035-16.235,12.202-40.01,34.609-63.989,80.941-51.616,135.099-.825,3.16-22.669,17.216-26.794,19.232-21.392,10.451-44.396,10.506-66.948,3.961-20.016-5.808-39.682-13.798-59.423-20.489-10.125-29.492-11.806-59.239-10.443-90.273l-10.957-3.7-.063-2.297,44.063-101.852c4.721-12.959,16.64-17.786,29.587-12.889,54.802,19.018,109.476,38.431,164.255,57.511,1.434.5,4.633.516,4.8.692ZM367.154,342.289c1.262,1.781-10.262,22.927-11.278,27.117-.429,1.769-1.155,2.885-.215,4.797,1.239,2.521,28.796,11.603,31.981,11.035,5.317-.949,11.874-28.812,16.196-29.873,3.11-.764,24.36,8.841,30.036,9.651,1.953.279,3.061.558,4.813-.72,1.373-1.002,13.087-27.927,13.934-31.009.968-3.52,1.159-5.982-2.251-7.799-4.517-2.406-29.597-9.263-30.825-11.192.127-6.572,10.478-20.816,9.627-26.458-.139-.919-.365-1.412-1.029-2.061-1.173-1.147-27.522-9.743-29.433-9.483-1.815.247-3.04,1.661-3.958,3.113-2.2,3.477-7.805,20.997-8.692,21.763-.811.7-4.572-.054-5.938-.335-6.125-1.263-19.928-8.257-24.616-8.341-2.906-.052-5.032,5.322-6.153,7.442-3.386,6.406-8.566,18.233-10.897,25.054-.604,1.767-1.636,3.594-1.097,5.556,1.152,4.195,24.994,9.503,29.798,11.743Z"/><path class="cls-4" d="M494.045,763.777l-215.76-105.383v-110.377l171.278,60.989,41.624-81.328c.51-2.207,2.858-1.183,2.858-.138v236.238Z"/><path class="cls-4" d="M503.035,766.773v-235.738l45.405,84.912,164.316-73.493c1.006-1.031,3.042.455,3.042,1.067v111.876l-212.764,111.376Z"/><polygon class="cls-4" points="719.729 436.165 756.755 513.046 550.128 602.802 509.45 518.004 719.729 436.165"/><path class="cls-4" d="M485.972,517.126c.66.771-.112,4.44-.686,5.654l-37.802,75.261-204.238-74.639,38.463-72.271,204.263,65.996Z"/></svg>