<?xml version="1.0" encoding="UTF-8"?><svg id="ItemSpawn" xmlns="http://www.w3.org/2000/svg" width="1000" height="1000" viewBox="0 0 1000 1000"><defs><style>.cls-1{fill:#95d8ef;}.cls-2{fill:#105379;}</style></defs><path class="cls-2" d="M91.804,500c0-224.62,182.09-406.71,406.71-406.71s406.71,182.09,406.71,406.71-182.09,406.71-406.71,406.71S91.804,724.62,91.804,500"/><path class="cls-1" d="M629.144,556.935l-23.453,57.008c-30.964-7.508-61.606-24.434-85.442-45.516-3.925-3.472-13.771-15.407-16.977-17.054-.765-.393-1.232-.66-1.983-.007l-21,20.943c1.081,3.453,9.711,25.145,11.526,25.574,3.435-.653,9.986-10.55,12.103-10.919,1.165-.203,6.108,4.728,6.251,5.564.627,3.654-15.072,13.388-14.743,16.67l18.71,41.912c-.537,2.142-32.178,27.486-34.373,27.73-.609.068-1.21.046-1.795-.148-6.484-2.151-28.665-74.635-31.564-85.367-9.918-8.911-11.596,4.542-18.488,8.608-5.531,3.264-12.26-6.146-18.355-4.879-5.319,8.984-11.432,17.508-17.339,26.113-3.405,4.96-13.382,16.539-15.28,20.68-1.337,2.917-.152,7.917-.604,11.383-1.776,13.617-12.093,21.75-18.096,31.849-12.882,21.67-21.138,53.24-32.409,76.266.509,3.687,1.35,7.713.202,11.396-.468,1.502-13.049,18.527-14.18,18.865-1.793.536-9.513-5.586-11.664-7.118-19.585-13.95-40.333-32.896-56.614-50.267-1.739-1.855-13.272-15.433-13.598-16.45-.454-1.417-.61-2.415.537-3.559,15.758-13.857,29.888-29.406,45.005-43.928,21.236-20.399,43.599-42.931,67.948-58.911l43.484-42.489c2.102-4.59-12.656-15.396-11.397-20.242,1.077-4.145,21.004-17.299,20.683-20.997-.386-4.437-13.653-17.453-12.864-23.1.113-.806.445-1.516.99-2.118,4.886-3.091,15.437-17.426,20.512-17.5,1.961-.029,9.669,3.788,12.177,4.896,3.862,1.705,17.463,9.974,20.265,8.702l180.395-180.344v-1.981s-23.515-24.481-23.515-24.481c2.557-1.855,10.105-11.527,12.468-11.522,4.004,1.585,6.555,6.51,9.994,9.02,2.852,2.081,18.284,6.333,22.253,6.778,6.771.759,6.377-4.877,10.916-5.597,3.435-.545,6.343,3.353,8.255,2.392l98.632-100.319,3.833.805c4.957,6.047,11.37,10.69,16.954,16.009,2.35,2.239,9.426,7.899,7.998,10.994l-94.963,96.887c-1.852,2.905,5.721,4.507,4.39,9.299-53.142,56.055-108.009,110.518-161.606,166.17,23.635,29.952,59.794,50.836,95.822,62.302Z"/><path class="cls-1" d="M831.359,609.249l-16.693-19.341c-32.606,117.275-129.968,206.838-250.998,228.993-77.654,14.215-151.543.761-213.491-32.182-1.409-.749-3.138-.5-4.267.629l-22.819,22.819c-1.688,1.688-1.321,4.534.757,5.711,52.697,29.844,113.592,46.897,178.478,46.897,169.208,0,311.357-115.849,351.464-272.556l-22.431,19.031Z"/><path class="cls-1" d="M231.076,678.214c-23.984-36.432-40.826-77.983-48.533-122.661h61.677l-78.949-111.105-83.547,111.105h62.07c8.4,54.659,29.014,105.287,58.945,149.034,1.29,1.885,3.987,2.119,5.602.504l22.275-22.275c1.23-1.23,1.415-3.149.459-4.602Z"/><path class="cls-1" d="M708.962,206.883c1.554-1.554,1.336-4.147-.471-5.397-53.932-37.32-118.459-60.413-188.164-63.82-184.552-9.019-342.544,121.984-374.769,296.578l25.99-22.029,14.443,15.436c34.506-150.104,173.81-260.969,335.36-251.626,59.228,3.426,114.186,22.749,160.697,53.747,1.403.935,3.265.76,4.457-.432l22.457-22.457Z"/><path class="cls-1" d="M862.833,459.477c-7.689-69.166-34.817-132.457-75.805-184.295-1.469-1.858-4.24-2.001-5.915-.326l-21.592,21.592c-1.417,1.417-1.546,3.658-.32,5.244,34.432,44.536,57.536,98.268,65.007,156.887.301,2.363-1.562,4.448-3.945,4.448h-54.649s73.906,110.714,73.906,110.714c2.058-3.178-2.656-3.979-.026-.102l74.964-110.611h-47.681c-2.029,0-3.721-1.532-3.945-3.549Z"/></svg>