<?xml version="1.0" encoding="UTF-8"?><svg id="Mover" xmlns="http://www.w3.org/2000/svg" width="1000" height="1000" viewBox="0 0 1000 1000"><defs><style>.cls-1{fill:#95d9f0;}.cls-2{fill:#96daf1;}.cls-3{fill:#105379;}</style></defs><path class="cls-3" d="M93.29,500c0-224.62,182.09-406.71,406.71-406.71s406.71,182.09,406.71,406.71-182.09,406.71-406.71,406.71S93.29,724.62,93.29,500"/><path class="cls-1" d="M584.884,556.488h-293.174c-.442,0-5.963-2.59-6.83-3.159-5.016-3.296-6.201-8.533-6.691-14.285-2.2-25.787,1.643-54.732.124-80.858-.485-4.092,7.029-12.574,10.4-12.574h296.171v-62.431c0-.747,1.808-3.647,2.46-4.532,11.417-15.514,30.682,7.702,40.005,15.009,12.571,9.853,25.32,19.996,37.974,29.951,24.396,19.194,55.145,39.721,77.4,60.446,6.783,6.317,10,8.879,9.035,19.061-.5,5.274-3.995,7.946-7.579,11.392l-135.195,108.534c-5.571,4.833-16.456,4.96-21.13-1.1-.86-1.115-2.97-6.008-2.97-7.018v-58.435Z"/><path class="cls-1" d="M398.591,308.763c-10.233-2.055-14.116-17.801-5.907-24.886,22.225-22.743,42.966-46.956,64.828-70.023,8.952-9.445,22.461-25.421,31.952-32.976,18.325-14.586,27.783,4.438,38.969,16.023,27.974,28.97,55.63,58.256,82.837,87.973,4.41,5.567,5.263,12.727.624,18.435-1.053,1.296-6.368,5.454-7.531,5.454h-65.927c-.106,0-1.498,1.392-1.498,1.498v66.926c0,3.509-8.974,8.912-12.574,9.401-9.037,1.228-36.738,1.212-45.884.111-5.748-.692-13.462-7.665-13.462-13.508v-62.93c0-.106-1.392-1.498-1.498-1.498h-64.928Z"/><path class="cls-1" d="M465.017,625.911c.774-4.659,5.599-9.44,9.997-10.98,7.188-2.516,45.711-2.513,52.925,0,2.968,1.033,8.998,5.96,8.998,8.982v65.927c0,.106,1.392,1.498,1.498,1.498h65.927c7.135,0,14.636,15.318,8.486,21.472-29.895,31.638-58.399,64.85-88.871,95.924-9.595,9.785-18.251,21.181-33.013,10.984l-97.844-102.933c-5.043-6.153-7.557-13.99-1.568-20.498.759-.825,6.607-4.949,7.038-4.949h64.928c.106,0,1.498-1.392,1.498-1.498v-63.929Z"/><path class="cls-2" d="M664.194,220.043c95.928,56.383,160.332,160.641,160.332,279.957s-64.404,223.574-160.332,279.957l18.982,32.365.587.529c107.121-63.057,179.011-179.557,179.011-312.851s-71.89-249.794-179.011-312.851l-.587.529-18.982,32.365Z"/><path class="cls-2" d="M335.806,779.957c-95.928-56.383-160.332-160.641-160.332-279.957s64.404-223.574,160.332-279.957l-18.982-32.365-.587-.529c-107.121,63.057-179.011,179.558-179.011,312.851s71.89,249.794,179.011,312.851l.587-.529,18.982-32.365Z"/></svg>