<?xml version="1.0" encoding="UTF-8"?><svg id="PlayerIcon" xmlns="http://www.w3.org/2000/svg" width="1000" height="1000" viewBox="0 0 1000 1000"><defs><style>.cls-1{fill:#95d8ef;}.cls-2{fill:#105379;}</style></defs><path class="cls-2" d="M93.29,500c0-224.62,182.09-406.71,406.71-406.71s406.71,182.09,406.71,406.71-182.09,406.71-406.71,406.71S93.29,724.62,93.29,500"/><path class="cls-1" d="M863.604,500c0,200.813-162.791,363.604-363.604,363.604s-363.604-162.791-363.604-363.604S299.187,136.396,500,136.396s363.604,162.791,363.604,363.604ZM323.18,771.985c2.567-36.291,16.916-66.588,47.051-87.308,12.576-8.647,47.027-25.706,61.623-27.341,5.394-.604,8.323,4.634,12.893,7.581,28.886,18.625,79.809,19.414,109.223,1.723,3.326-2,10.857-9.177,13.525-9.524,5.274-.685,31.782,9.994,38.06,12.81,37.615,16.871,62.434,40.348,70.78,82.051,2.372,11.855-2.388,22.013,12.194,13.263,49.507-29.706,99.159-102.754,118.145-156.55,99.001-280.515-203.324-536.416-464.176-392.255-207.634,114.75-226.295,411.216-31.607,548.378,1.994,1.405,10.896,8.106,12.289,7.174Z"/><path class="cls-1" d="M555.546,466.73c59.983,44.699,45.902,155.934-29.586,176.895-81.36,22.591-135.263-60.117-110.586-133.561,19.86-59.107,90.053-80.683,140.172-43.334Z"/><path class="cls-1" d="M497.733,224.835c4.612-.826,9.91-.212,12.691,3.816,9.453,15.267,15.143,37.708,24.682,52.233,2.282,3.474,4.445,4.707,8.445,5.54,17.93,3.732,39.637,2.693,57.601,6.328,8.89,1.799,10.979,12.14,6.731,19.254-11.119,11.165-23.722,20.963-34.982,31.944-1.977,1.928-11.349,10.736-11.79,12.219-.729,2.447.662,7.65,1.131,10.454,2.817,16.854,7.763,33.458,10.7,50.31-.942,9.04-4.463,12.249-13.564,11.486-7.728-.648-32.542-16.962-41.381-21.546-5.474-2.839-11-5.715-16.655-8.183-2.183-.125-16.2,7.537-19.348,9.181-7.861,4.106-30.143,18.931-36.663,20.272-9.442,1.941-15.993-.919-16.187-11.109l11.753-59.846c-13.378-16.829-31.78-29.629-46.784-45.188-4.091-5.882-2.749-15.891,4.567-18.409,17.409-3.065,35.312-3.426,52.743-6.191,5.852-.928,10.776-.357,14.442-5.535,10.016-14.145,15.464-38.703,25.309-52.604,1.81-2.556,3.346-3.85,6.559-4.425Z"/></svg>