<?xml version="1.0" encoding="UTF-8"?><svg id="PlayerDamage" xmlns="http://www.w3.org/2000/svg" width="1000" height="1000" xmlns:xlink="http://www.w3.org/1999/xlink" viewBox="0 0 1000 1000"><defs><style>.cls-1{fill:none;}.cls-2{fill:#96daf1;}.cls-3{clip-path:url(#clippath-1);}.cls-4{fill:#94d8ef;}.cls-5{clip-path:url(#clippath);}.cls-6{fill:#105379;}</style><clipPath id="clippath"><rect class="cls-1" x="93.29" y="93.29" width="813.42" height="813.42"/></clipPath><clipPath id="clippath-1"><rect class="cls-1" x="93.29" y="93.29" width="813.42" height="813.42"/></clipPath></defs><g id="Background"><g class="cls-5"><g class="cls-3"><path class="cls-6" d="M93.29,500c0-224.62,182.09-406.71,406.71-406.71s406.71,182.09,406.71,406.71-182.09,406.71-406.71,406.71S93.29,724.62,93.29,500"/><path class="cls-2" d="M137.226,500c0-200.354,162.419-362.774,362.774-362.774s362.773,162.42,362.773,362.774-162.419,362.774-362.773,362.774-362.774-162.42-362.774-362.774"/><path class="cls-6" d="M175.475,500c0-179.23,145.295-324.525,324.525-324.525s324.526,145.295,324.526,324.525-145.295,324.525-324.526,324.525-324.525-145.295-324.525-324.525"/></g></g></g><path class="cls-4" d="M424.351,616.545l-60.273,135.006c-17.345,23.895-54.838,9.219-44.822-21.847l62.747-140.027.095-91.524c-.904-2.757-6.675-1.369-9.343-1.644-28.124-2.904-76.942-13.548-101.286-27.571-12.084-6.961-16.04-22.709-5.744-32.998,12.906-12.897,30.442-.837,43.823,3.91,72.443,25.696,171.938,28.612,245.285,5.009,14.334-4.613,32.991-16.49,47.421-14.031,18.174,3.097,20.041,28.41,3.753,38.235-28.065,16.929-72.186,23.177-104.278,27.575-1.969.27-6.88.728-7.484,2.505l.108,90.531,62.402,141.372c8.586,28.11-25.398,43.591-43.656,22.679l-60.874-135.908c-2.704-3.106-22.745-.773-27.873-1.271Z"/><path class="cls-4" d="M548.303,272.023c1.734-2.05,4.964-.697,7.006-.028,11.929,3.907,27.078,13.469,39.017,18.924,2.135.975,13.656,6.456,14.627,5.795,4.362-19.562,4.62-40.544,11.001-59.424,5.019-1.723,7.459-.224,10.437,3.58l37.533,58.357c9.694,2.803,54.436-10.268,59.942-6.991,1.857,1.105,2.522,5.535,1.549,7.537l-28.756,47.191c-.545.969-.923,2.05-.806,3.176.449,4.329,33.155,30.412,37.988,36,4.39,7.994,2.806,11.92-6.473,11.47-20.912-1.013-45.973-9.531-67.074-10.843-1.908-.119-3.761-.488-5.659.08-3.949,1.182-25.589,33.096-31.624,37.286-1.868,1.956-5.89,2.8-8.006.949-4.253-3.72-9.369-41.453-13.594-44.36-1.161-.799-2.542-.939-3.9-1.094-14.002-1.6-31.028.087-44.899-2.049-5.671-.873-5.266-5.07-4.056-9.917l34.436-29.543-38.111-56.684c-1.939-2.106-2.327-7.342-.578-9.411Z"/><circle class="cls-4" cx="437.787" cy="368.15" r="72.114"/></svg>