<?xml version="1.0" encoding="UTF-8"?><svg id="PlayerStatus" xmlns="http://www.w3.org/2000/svg" width="1000" height="1000" xmlns:xlink="http://www.w3.org/1999/xlink" viewBox="0 0 1000 1000"><defs><style>.cls-1{fill:#95d9ef;}.cls-2{fill:none;}.cls-3{fill:#96daf1;}.cls-4{clip-path:url(#clippath-1);}.cls-5{clip-path:url(#clippath);}.cls-6{fill:#105379;}</style><clipPath id="clippath"><rect class="cls-2" x="93.29" y="93.29" width="813.42" height="813.42"/></clipPath><clipPath id="clippath-1"><rect class="cls-2" x="93.29" y="93.29" width="813.42" height="813.42"/></clipPath></defs><g id="Background"><g class="cls-5"><g class="cls-4"><path class="cls-6" d="M93.29,500c0-224.62,182.09-406.71,406.71-406.71s406.71,182.09,406.71,406.71-182.09,406.71-406.71,406.71S93.29,724.62,93.29,500"/><path class="cls-3" d="M137.226,500c0-200.354,162.419-362.774,362.774-362.774s362.773,162.42,362.773,362.774-162.419,362.774-362.773,362.774-362.774-162.42-362.774-362.774"/><path class="cls-6" d="M175.475,500c0-179.23,145.295-324.525,324.525-324.525s324.526,145.295,324.526,324.525-145.295,324.525-324.526,324.525-324.525-145.295-324.525-324.525"/></g></g></g><path class="cls-1" d="M420.314,458.541c12.142,15.912,23.815,32.313,36.628,47.791.859,1.038.998,2.689,1.847,3.627,3.44,3.8,8.347,1.148,11.678,2.841.913.464,13.826,12.536,15.001,13.931.819.972,1.495,1.95,1.761,3.223-1.55,35.402-7.495,70.477-10.663,105.781-3.04,33.873-4.822,68.59-6.122,102.797l2.605,6.385,26.895,40.036c1.934.447,1.248-.552,1.751-1.25,9.418-13.095,17.487-27.819,26.95-40.955,1.262-71.464-10.613-142.678-16.015-213.801,9.319-7.327,14.222-18.97,27.758-18.185l40.161-52.221c2.306-1.349,15.569,3.023,18.978,4.072,4.081,1.255,15.407,4.47,17.641,7.331,3.346,4.285,10.848,23.432,12.646,29.307,24.82,81.121-4.925,163.151,5.597,246.123.856,6.752,5.077,20.731,4.781,26.18-.162,2.976-10.896,7.535-13.92,8.889-8.274,3.706-19.732,7.782-28.433,10.524-77.873,24.532-163.999,19.262-237.084-17.152.812-14.78,4.361-29.5,5.821-44.3,7.671-77.76-19.58-151.498,3.683-230.058,1.45-4.898,10.134-27.185,12.845-30.107,2.471-2.663,34.528-12.363,37.211-10.808Z"/><path class="cls-1" d="M367.574,474.307c-2.367,7.877-5.791,15.332-8.251,23.204-11.829,37.849-13.746,81.741-11.711,121.122.49,9.491,5.714,44.07,3.473,50.404-2.15,6.077-7.782,10.808-8.413,19.671-.442,6.21,4.596,13.851,3.936,18.765-.328,2.44-5.394,9.078-6.489,12.565-1.42,4.519-.794,11.864-3.027,14.953-2.587,3.578-16.575,7.012-20.791,10.845-1.844-.164-14.686-9.894-17.116-11.85-11.989-9.652-25.532-22.712-35.462-34.461-2.437-2.883-14.223-17.345-13.882-19.719.531-3.696,11.997-12.744,12.584-16.366.993-6.128-6.419-8.333,1.375-16.724,2.468-2.657,7.479-4.626,9.434-6.549,2.056-2.024,8.042-25.054,9.193-29.764,5.988-24.494,8.4-52.276,14.91-75.989,3.228-11.759,8.249-19.211,16.652-27.796,14.536-14.849,33.755-26.274,53.586-32.311Z"/><path class="cls-1" d="M676.582,497.929c30.685,25.998,25.601,39.348,33.081,75.301,1.716,8.249,13.91,63.706,16.766,66.646,1.033,1.063,6.114,3.386,8.21,5.271,10.092,9.074,1.512,10.695,3.766,19.198,1.139,4.298,11.768,13.057,11.763,16.249-18.34,25.397-40.998,47.785-66.44,66.115l-21.216-11.953c-1.996-4.977-.648-10.029-2.308-15.172-1.912-5.925-6.84-8.069-5.725-15.776,1.027-7.098,3.907-10.055,2.696-19.152-.931-6.987-6.003-11.683-7.455-16.52-2.505-8.347,3.115-41.124,3.585-52.447,1.971-47.448-1.552-97.225-21.03-140.872-.015-2.515,14.64,4.53,15.87,5.106,10.696,5.007,19.663,10.572,28.439,18.008Z"/><path class="cls-1" d="M592.325,369.415c2.238,16.836-6.887,32.603-22.618,38.814-3.026,1.195-13.672,4.935-14.337.652-1.754-11.286,2.56-8.508,8.926-13.055,8.609-6.148,10.031-17.496,8.945-27.299-48.379-5.609-97.605-5.104-146.087-.155l-.701.663c-.541,9.095.105,18.21,7.018,24.892,6.437,6.222,13.6,3.218,11.028,16.452-22.173,1.557-40.474-18.854-36.959-40.964-9.285,1.292-16.855-3.669-17.025-13.433-.355-20.388.017-43.598,1.125-63.974.208-3.832-1.883-4.538.412-9.498,2.553-5.519,6.784-7.63,12.456-8.51,58.757-9.115,127.902-7.741,186.79.068,1.491.198,3.019-.522,4.277-.289,9.156,1.697,12.922,7.402,13.719,16.246,1.423,15.784,1.783,51.468.018,66.91-1.05,9.19-8.001,13.779-16.987,12.48ZM480.249,285.807c-14.269.46-29.046,1.221-43.242,2.707-4.24.444-20.971,1.879-23.433,3.537-1.585,1.067-2.834,4.974-3.066,6.923-.694,5.826-.682,21.176.006,27.012.51,4.327,2.156,5.472,6.02,7.055,38.09-3.496,76.28-6.121,114.405-4.617,12.57.496,25.389,2.564,37.927,3.028,5.594.207,18.364,1.819,20.261-4.691.817-2.803.71-26.098.147-29.702-.45-2.875-2.206-5.004-4.878-6.11-34.554-3.782-69.368-6.264-104.148-5.142Z"/><path class="cls-1" d="M592.326,264.529c-13.526-.549-26.979-3.009-40.461-3.979-49.753-3.58-89.841.327-138.795,4.027-6.178.467-6.655.378-4.57-5.57,22.377-63.828,103.147-86.24,154.874-41.93,13.347,11.433,25.074,30.333,28.952,47.452Z"/><path class="cls-1" d="M491.086,476.947c-6.268,7.158-15.593,14.031-21.707,21.738-.832.812-1.775,1.431-3.004,1.149-2.514-.576-27.056-33.128-30.888-37.996-4.492-5.707-11.922-8.557-4.968-15.993,1.309-1.399,3.219-2.035,4.527-3.464,2.26-2.47,9.14-12.575,12.468-11.653l44.994,40.037c1.964,1.986.068,4.48-1.422,6.182Z"/><path class="cls-1" d="M565.007,441.693c.978,1.149,6.66,8.161,6.89,8.664.51,1.118.676,1.842-.053,2.925l-35.414,43.531c-1.573,1.969-3.508,3.358-6.011,1.969l-23.054-23.95-.499-2.519,45.566-41.5c3.153-1.047,6.872,5.935,8.883,8.089,1.131,1.211,2.912,1.874,3.693,2.79Z"/></svg>