<?xml version="1.0" encoding="UTF-8"?><svg id="PlayerSpawn" xmlns="http://www.w3.org/2000/svg" width="1000" height="1000" xmlns:xlink="http://www.w3.org/1999/xlink" viewBox="0 0 1000 1000"><defs><style>.cls-1{fill:none;}.cls-2{fill:#96daf1;}.cls-3{clip-path:url(#clippath-1);}.cls-4{fill:#94d8ef;}.cls-5{clip-path:url(#clippath);}.cls-6{fill:#105379;}</style><clipPath id="clippath"><rect class="cls-1" x="93.29" y="93.29" width="813.42" height="813.42"/></clipPath><clipPath id="clippath-1"><rect class="cls-1" x="93.29" y="93.29" width="813.42" height="813.42"/></clipPath></defs><g id="Background"><g class="cls-5"><g class="cls-3"><path class="cls-6" d="M93.29,500c0-224.62,182.09-406.71,406.71-406.71s406.71,182.09,406.71,406.71-182.09,406.71-406.71,406.71S93.29,724.62,93.29,500"/><path class="cls-2" d="M137.226,500c0-200.354,162.419-362.774,362.774-362.774s362.773,162.42,362.773,362.774-162.419,362.774-362.773,362.774-362.774-162.42-362.774-362.774"/><path class="cls-6" d="M175.475,500c0-179.23,145.295-324.525,324.525-324.525s324.526,145.295,324.526,324.525-145.295,324.525-324.526,324.525-324.525-145.295-324.525-324.525"/></g></g></g><path class="cls-4" d="M557.949,502.212l.135,81.072,60.728,147.041c8.848,19.721-19.727,36.827-32.997,20.011-4.324-5.479-10.288-21.257-13.47-28.484-17.508-39.771-32.83-80.573-50.543-120.268-.5-1.098-1.299-1.379-2.413-1.582-2.495-.456-21.888-.283-22.581.618l-60.645,145.903c-9.906,18.603-35.45,11.042-36.964-9.173,19.323-52.156,41.282-103.568,62.527-155.053l.271-79.529c-18.856-4.91-36.457-10.071-53.657-19.464-12.41-6.777-52.929-36.298-55.21-49.665-1.991-11.67,7.407-21.594,19.197-19.201,8.117,1.648,23.413,18.806,31.379,24.554,57.022,41.146,159.155,40.274,215.402-1.977,8.507-6.39,20.159-21.968,30.142-22.817,12.998-1.106,20.338,9.566,16.802,21.814-1.673,5.795-19.866,23.016-25.285,27.657-23.622,20.228-52.368,32.759-82.819,38.543Z"/><path class="cls-4" d="M564.073,404.431c-1.064,1.768-3.086,14.354-5.837,19.659-25.335,48.854-98.246,32.949-102.314-18.335-5.692-71.768,89.392-91.252,108.399-15.503.902,3.594,4.428,6.469,2.362,12.353-.457,1.301-2.306,1.318-2.612,1.826Z"/><path class="cls-4" d="M537.868,314.82c-.104.496-1.535,2.715-1.999,2.996-4.578,2.769-43.031-.933-51.277.336-1.99-.667-2.466-3.46-2.679-5.312-.714-6.182,1.439-31.126-.885-34.077-.959-1.217-2.151-1.264-3.547-1.448-5.674-.746-31.397,1.808-33.583-1.616-2.773-4.345.552-7.562,3.101-10.794,12.335-15.64,29.631-33.635,43.408-48.49,3.193-3.443,15.803-17.817,19.083-17.984.971-.05,1.52.109,2.38.505,1.59.733,12.299,12.159,14.525,14.483,13.861,14.465,34.273,35.389,45.848,51.045,2.038,2.756,6.664,12.898.087,12.898h-32.963c-.273,0-.991,1.169-1.498,1.498-1.482,10.304,1.993,26.426,0,35.96Z"/></svg>