<?xml version="1.0" encoding="UTF-8"?><svg id="PlayerTag" xmlns="http://www.w3.org/2000/svg" width="1000" height="1000" xmlns:xlink="http://www.w3.org/1999/xlink" viewBox="0 0 1000 1000"><defs><style>.cls-1{fill:none;}.cls-2{fill:#96daf1;}.cls-3{clip-path:url(#clippath-1);}.cls-4{fill:#94d8ef;}.cls-5{clip-path:url(#clippath);}.cls-6{fill:#105379;}</style><clipPath id="clippath"><rect class="cls-1" x="93.29" y="93.29" width="813.42" height="813.42"/></clipPath><clipPath id="clippath-1"><rect class="cls-1" x="93.29" y="93.29" width="813.42" height="813.42"/></clipPath></defs><g id="Background"><g class="cls-5"><g class="cls-3"><path class="cls-6" d="M93.29,500c0-224.62,182.09-406.71,406.71-406.71s406.71,182.09,406.71,406.71-182.09,406.71-406.71,406.71S93.29,724.62,93.29,500"/><path class="cls-2" d="M137.226,500c0-200.354,162.419-362.774,362.774-362.774s362.773,162.42,362.773,362.774-162.419,362.774-362.773,362.774-362.774-162.42-362.774-362.774"/><path class="cls-6" d="M175.475,500c0-179.23,145.295-324.525,324.525-324.525s324.526,145.295,324.526,324.525-145.295,324.525-324.526,324.525-324.525-145.295-324.525-324.525"/></g></g></g><path class="cls-4" d="M457.41,295.953c-1.799,6.539-3.27,13.569-5.521,19.951-1.976,5.603-6.255,11.5-7.23,17.742-2.196,14.059,3.627,28.429,16.705,34.759,6.157,2.979,38.196,9.298,45.479,9.516,18.155.545,34.545-18.511,26.208-36.253-1.769-3.766-5.821-6.352-6.979-9.027-2.271-5.245,5.139-17.762,6.385-23.566,1.712-.463,3.496-.169,5.229-.011,13.508,1.232,35.375,5.063,48.611,8.327,9.322,2.299,15.905,5.306,21.763,13.198,7.422,10,37.095,57.83,40.08,67.801,2.409,8.048,1.922,13.556.763,21.632-13.534,94.309-37.533,189.266-51.949,283.678-3.652,13.943-12.317,23.361-27.185,24.748-94.429-14.722-188.963-31.906-282.85-49.746-15.546-6.625-17.13-19.153-14.992-34.325,13.1-92.99,36.998-186.594,50.928-279.705,3.687-14.657,9.194-18.63,19.666-28.28,10.189-9.388,45.748-41.889,56.263-45.624,17.292-6.142,40.591,4.738,58.628,5.187ZM364.241,396.069c-10.664,1.955-13.274,11.928-15.237,20.724-14.825,66.402-22.899,135.763-37.315,202.418-1.888,13.303,3.569,22.718,16.636,26.074l220.798,38.996c10.999.014,19.857-6.542,21.861-17.54l37.978-207.749c2.36-12.181-3.562-21.867-15.483-24.921l-218.603-38.111c-3.437-.095-7.257-.509-10.634.11Z"/><path class="cls-4" d="M603.241,214.052c-.105,1.369-1.46,1.585-2.446,2.035-5.376,2.451-10.593,3.643-16.202,6.772-43.977,24.527-63.1,86.255-76.194,131.619l-40.219-6.872c-21.662-6.796-8.07-47.696-2.268-62.628,9.81-25.245,43.441-81.921,73.905-81.987l63.424,11.062Z"/><path class="cls-4" d="M489.366,538.684c.039,3.309,3.808,2.336,4.784,6.703,1.744,7.807-2.375,35.363-8.812,40.702-1.282,1.064-5.842,3.21-7.516,3.472-9.46,1.481-37.125-2.25-46.776-5.045-3.103-.899-5.259-1.237-4.537-5.219,6.452-29.962,9.436-60.885,16.229-90.746.903-3.971.848-10.851,6.024-10.752,12.655,2.961,26.361,3.626,38.825,7.225,11.905,3.437,16.459,8.126,15.803,21.226-.248,4.964-4.473,27.742-7.496,30.461-1.853,1.666-4.08,2.096-6.528,1.974ZM458.439,524.656c7.286.342,17.243,6.35,20.681-2.719,6.196-16.341.053-19.965-15.752-20.808-2.14,1.468-4.155,19.756-4.929,23.527ZM451.469,567.596c14.959,3.163,21.566,4.326,21.953-13.491.211-9.717-10.971-9.248-18.056-10.03-1.338,1.049-4.798,22.575-3.897,23.52Z"/><path class="cls-4" d="M417.453,581.636l-20.876-3.101c-.846-4.118-.201-21.192-2.5-22.975-.958-.743-22.739-4.149-23.9-3.796-2.479.753-6.882,16.627-8.829,19.71-6.991.926-13.858-1.218-20.762-1.873l.19-5.213c14.243-29.586,24.432-65.392,39.844-94.004.66-1.225,1.005-2.931,2.527-3.46,2.908-1.011,14.7,1.389,18.506,2.148,2.555.509,11.04,1.453,11.671,3.312l4.129,109.253ZM394.475,537.181c-1.958-14.27,1.457-32.716,0-47.447l-18.016,45.431c-.115,2.203.124,1.26,1.526,1.499,2.306.393,16.772,2.518,17.489,2.005.211-.79-.951-1.139-.999-1.488Z"/><path class="cls-4" d="M571.939,503.058c2.851,2.858,4.418,9.15,4.422,13.15.004,3.442-2.135,16.677-3.283,19.772-.31.835-.51,1.329-1.435,1.629-2.595.844-15.342-3.54-19.321-2.95-.767-6.804,5.851-14.222-1.676-18.8-10.225-6.218-13.885-.51-16.03,8.632-3.779,16.108-4.981,33.675-8.996,49.852.024,5.587,9.382,9.18,14.153,8.284,5.57-1.046,5.383-11.44,6.637-15.868.755-.638,18.022,1.704,18.934,2.325,2.914,1.987-1.689,21.301-3.327,24.761-1.903,4.019-6.029,7.641-10.443,8.536-8.212,1.666-37.21-2.339-43.569-7.922-5.5-4.83-5.127-12.653-4.636-19.305,1.187-16.073,7.41-47.443,11.437-63.48,1.815-7.226,4.196-14.604,12.451-16.517,8.85-2.051,38.101,1.303,44.681,7.9Z"/></svg>