<?xml version="1.0" encoding="UTF-8"?><svg id="PlayerEvent" xmlns="http://www.w3.org/2000/svg" width="1000" height="1000" viewBox="0 0 1000 1000"><defs><style>.cls-1{fill:#95d8ef;}.cls-2{fill:#105379;}</style></defs><path class="cls-2" d="M93.29,500c0-224.62,182.09-406.71,406.71-406.71s406.71,182.09,406.71,406.71-182.09,406.71-406.71,406.71S93.29,724.62,93.29,500"/><path class="cls-2" d="M716.393,851.127c-9.131,0-17.467-1.934-24.776-5.749-9.09-4.744-14.223-11.008-15.676-19.316l-16.261,3.375c-5.18,1.076-10.424,1.621-15.585,1.621-28.369,0-52.268-16.104-62.368-42.03-4.365-11.204-4.259-21.055-4.166-29.745.042-3.925.082-7.655-.34-11.084-1.838-2.833-5.297-8.491-4.229-18.238,1.188-10.825,9.223-17.314,14.023-21.191.962-.776,2.399-1.937,2.886-2.456,1.103-1.627,3.068-7.307,4.247-10.712,1.387-4.006,2.696-7.79,4.276-11.112,19.827-41.709,62.046-67.619,110.181-67.619,37.88,0,73.199,16.175,96.9,44.378,21.19,25.213,21.287,49.769,21.389,75.767.009,2.115.017,4.265.036,6.452.012,1.242.13,2.087.295,3.257.908,6.455.578,11.533-3.756,19.869-4.872,9.371-12.209,15.642-18.104,20.68-2.921,2.496-5.939,5.075-7.226,6.933-.333.624-.948,2.37-1.36,3.536-.844,2.396-1.802,5.11-3.247,7.823-13.383,25.123-47.987,45.562-77.139,45.563ZM675.763,816.511c.038-.339.08-.683.127-1.027,4.771-35.201,57.295-70.601,86.513-73.326.927-.086,1.844-.13,2.729-.13,2.161,0,4.592.261,7.062,1.027,1.487-2.451,2.854-4.49,4.495-6.167,1.812-1.852,3.854-3.164,5.877-4.371-.113-4.864-1.52-13.432-3.731-20.092-10.812-32.557-45.226-47.129-74.534-47.129-30.91,0-56.854,14.3-69.398,38.252-.472.9-1.207,2.483-2.049,4.391,1.566.844,2.985,1.963,4.179,3.321l4.021,4.577-.31,6.083c-1.067,21.023,4.439,43.332,16.37,66.319l18.65,28.271Z"/><path class="cls-1" d="M402.377,150.94c5.536,6.158,1.699,9.811,1.358,16.102-.573,10.597,2.463,20.923-8.068,27.779-9.346,6.085-15.991,2.51-19.369,16.477-3.2,13.232-4.813,39.158-5.428,53.32-.786,18.07-1.186,44.847,3.64,62.059,6.692,23.868,38.794,50.222,63.603,51.933,6.905.476,4.336-2.226,6.329-7.584,1.254-3.37,3.164.634,5.167,2.032,11.535,8.05,23.465,12.392,37.531,7.83,5.332-1.729,9.04-5.393,14.157-7.242-.706,14.093.764,15.353,12.955,19.407,15.633,5.198,42.903,8.808,56.109,16.58,12.502,7.358,30.984,49.916,39.306,64.251,6.095,10.499,14.285,19.963,19.104,31.193,1.392.317,1.636-.204,2.502-.967,5.179-4.562,12.441-15.141,16.813-21.025,11.457-15.419,41.648-54.822,43.393-72.114,1.003-9.938-2.14-14.802-2.893-23.016-1.511-16.474,31.148-33.265,44.466-24.512,4.539,2.984,12.904,18.678,13.971,23.863,2.496,12.127-12.731,28.39-20.173,37.129-1.856,2.18-4.712,3.712-6.132,5.319-8.015,9.072-20.749,51.523-26.478,65.628-6.652,16.377-28.572,70.277-42.229,78.256-10.659,6.227-33.02,5.127-43.846-.669-8.304-4.445-25.932-26.101-28.711-35.016-3.175-10.185-2.37-26.268-3.595-37.23-.304-2.723-.445-8.289-2.849-9.583-2.095,14.855-1.373,30.283-1.962,45.345-1.776,45.337-3.687,90.954-3.069,136.417.066,4.87,1.721,9.238.949,14.807-1.343,9.684-11.735,12.37-13.423,19.436-1.52,6.359,1.011,32.593-.693,34.656-3.777,1.921-7.869,3.269-11.919,4.51-51.186,15.684-123.507,4.804-168.37-24.335-4.326-2.81-18.487-13.937-19.42-18.48-.942-4.59,3.79-8.745,5.684-12.832,19.826-42.761,17.681-128.885,13.056-176.118-5.219-53.299-21.81-67.555-42.668-111.672-18.469-39.065-30.512-93.694-12.848-135.043,3.172-7.424,9.803-14.137,12.435-21.42,9.538-26.391,5.166-70.113,28.142-89.356,3.892-3.26,9.583-5.176,12.918-7.992,4.791-4.045,5.803-10.982,15.034-7.981.917.298,14.802,9.051,15.526,9.857Z"/><path class="cls-1" d="M427.616,152.089c-.145-1.275-2.9-6.453-1.994-7.462,9.169-1.36,18.287-3.811,27.512-4.858,171.517-19.471,333.652,74.117,391.716,237.338,26.904,75.628,27.639,162.438,1.961,238.496l-101.542-90.607-38.999,86.47c-13.105-.251-26.557,5.067-39.196,6.115-23.382,1.939-49.972.221-73.72.959-1.914.06-3.583.773-5.425,1.048v-25.889l90.208-1.898,57.173-127.546c22.721,20.231,45.582,40.372,68.19,60.744,3.333,3.004,6.589,5.972,9.965,8.954,1.849,1.633,10.501,11.936,12.44,9.954-.429-9.35,1.675-19.1,2.038-28.333,6.471-165.013-101.488-301.801-262.905-333.626-46.217-9.112-91.375-8.243-137.424,1.505-.82-9.98,1.109-21.597,0-31.366Z"/><path class="cls-1" d="M611.73,839.752c.371.581-.018,1.986.099,2.869-56.027,19.101-114.713,25.332-173.445,15.633-189.537-31.302-324.366-210.664-301.398-402.337,12.271-102.405,69.25-197.876,154.299-255.946,4.487-3.064,17.339-11.986,21.802-13.09,2.932-.726,4.021-.284,4.044,2.994l-8.571,44.298c-11.274,8.441-22.966,16.837-33.306,26.439-119.367,110.84-137.369,296.794-41.625,428.996,79.153,109.293,212.363,160.792,344.826,126.139,7.303,5.604,13.151,12.478,21.112,17.742,2.437,1.612,11.796,5.687,12.163,6.264Z"/><path class="cls-1" d="M351.94,530.969c-1.445,1.636-12.145-11.732-12.934-10.952l-41.264,77.623-72.251-93.551c-2.404,106.369,66.128,208.251,163.324,249.395,45.252,19.155,100.137,25.101,148.665,17.293,8.591-1.382,16.851-4.146,25.555-4.818-2.4,5.004,6.335,26.515,5.89,28.301s-13.237,4.545-15.812,5.094c-137.578,29.347-278.654-46.503-333.788-174.108-28.141-65.131-30.721-140.594-12.224-208.746l2.429-1.032,83.673,122.467,37.333-66.707c1.506,4.925,21.403,30.417,21.403,32.357v27.383Z"/><path class="cls-1" d="M787.411,747.377c1.745-1.784,8.083-4.422,8.965-6.543,3.116-7.495-.696-25.283-3.306-33.139-23.293-70.131-136.138-78.541-171.456-11.108-2.039,3.893-10.333,22.964-9.742,26.01.667,3.439,13.312-2.098,13.89-1.439-1.327,26.14,6.418,51.821,18.406,74.698l12.463,18.892c-26.014,5.4-51.164-6.107-60.928-31.168-5.404-13.871-1.764-26.022-3.844-38.973-.777-4.84-4.804-5.286-3.957-13.014.783-7.143,10.079-11.214,13.828-16.055,4.07-5.255,7.046-17.894,10.24-24.611,33.551-70.578,132.742-78.704,182.051-20.031,19.214,22.862,17.657,44.706,17.909,72.704.067,7.42,2.43,7.991-1.77,16.071-6.131,11.794-18.888,17.855-24.531,26.252-2.24,3.333-3.29,8.745-5.337,12.586-12.844,24.11-55.691,47.164-81.736,33.57-6.903-3.603-8.849-6.867-7.803-14.583,3.53-26.044,48.336-58.1,73.043-60.405,9.824-.916,6.558,8.137,11.655,6.783,3.504-.931,9.445-13.929,11.959-16.499Z"/><path class="cls-1" d="M467.186,251.404c21.241-3.304,41.358,8.229,48.905,28.286,10.712,28.468-5.017,106.014-47.682,95.477-32.055-7.917-39.629-53.887-37.794-81.67,1.296-19.62,16.527-38.976,36.571-42.094Z"/><path class="cls-1" d="M658.914,810.467c-8.943-7.315-20.104-34.327-23.451-45.734-3.182-10.842-7.777-31.285-5.723-42.096,1.318-6.94,17.689-1.678,21.858,2.064,9.681,8.691,18.144,50.219,18.967,63.679.341,5.58-1.702,30.223-11.65,22.086Z"/><path class="cls-1" d="M763.178,753.007c-28.717,7.647-55.532,24.182-70.866,50.126-1.436,2.429-6.162,14.132-6.813,14.606-3.436,2.5-5.964-13.586-5.993-15.484-.372-24.395,24.641-48.41,47.03-54.516,10.715-2.922,28.625-3.702,36.643,5.267Z"/></svg>