<?xml version="1.0" encoding="UTF-8"?><svg id="RandomTrigger" xmlns="http://www.w3.org/2000/svg" width="1000" height="1000" xmlns:xlink="http://www.w3.org/1999/xlink" viewBox="0 0 1000 1000"><defs><style>.cls-1{fill:none;}.cls-2{fill:#96daf1;}.cls-3{clip-path:url(#clippath-1);}.cls-4{fill:#94d8ef;}.cls-5{clip-path:url(#clippath);}.cls-6{fill:#105379;}</style><clipPath id="clippath"><rect class="cls-1" x="93.29" y="93.29" width="813.42" height="813.42"/></clipPath><clipPath id="clippath-1"><rect class="cls-1" x="93.29" y="93.29" width="813.42" height="813.42"/></clipPath></defs><g id="Background"><g class="cls-5"><g class="cls-3"><path class="cls-6" d="M93.29,500c0-224.62,182.09-406.71,406.71-406.71s406.71,182.09,406.71,406.71-182.09,406.71-406.71,406.71S93.29,724.62,93.29,500"/><path class="cls-2" d="M137.226,500c0-200.354,162.419-362.774,362.774-362.774s362.773,162.42,362.773,362.774-162.419,362.774-362.773,362.774-362.774-162.42-362.774-362.774"/><path class="cls-6" d="M175.475,500c0-179.23,145.295-324.525,324.525-324.525s324.526,145.295,324.526,324.525-145.295,324.525-324.526,324.525-324.525-145.295-324.525-324.525"/></g></g></g><path class="cls-4" d="M260.72,608.75c-.718-1.257.02-2.384.893-3.363,2.868-3.214,12.052-6.705,15.436-10.533,64.798-38.021,124.918-85.281,189.986-122.666,1.777-1.021,7.205-4.332,8.75-4.199l241.346,156.36-220.214,137.368-236.197-152.967ZM472.158,541.243c-41.312,2.582-49.113,41.82-10.769,57.117,19.147,7.639,53.234,6.428,62.295-15.583,11.102-26.967-30.439-42.852-51.526-41.534ZM452.736,681.432c22.514,23.093,91.444,14.605,79.278-22.84-9.124-28.082-60.533-33.305-80.026-13.66-11.137,11.224-10.014,25.462.749,36.501Z"/><path class="cls-4" d="M515.317,238.283l224.252,143.829-20.006,229.754-238.759-153.84,34.512-219.743ZM554.631,317.552c-13.567,13.567-.358,40.571,10.114,52.591,10.533,12.089,35.227,27.936,49.494,13.51,22.756-23.009-23.768-84.103-55.224-69.209-1.102.522-3.514,2.238-4.384,3.108ZM661.882,376.362c-5.461,1.042-12.027,5.442-14.446,10.522-13.183,27.684,31.965,80.627,59,62.995,18.397-11.998,4.168-43.026-6.816-55.787-7.412-8.611-26.312-19.911-37.738-17.73ZM545.047,401.364c-5.568,1.263-11.573,7.27-13.269,12.703-8.304,26.585,27.956,70.951,55.681,63.664,9.905-2.603,14.965-12.344,14.83-22.211-.331-24.299-31.382-60.023-57.242-54.156ZM645.956,462.229c-9.451.712-17.156,8.989-19.133,17.909-3.058,13.797,8.797,35.418,18.319,45.347,10.347,10.79,31.707,23.65,45.009,10.995,23.117-21.992-15.519-76.41-44.195-74.251Z"/><path class="cls-4" d="M263.597,590.881c6.638-38.02,12.428-76.238,19.079-114.263.268-1.534,1.518-2.671,1.787-4.207,6.078-34.687,10.305-69.548,18.026-103.838,54.701-36.159,110.485-70.711,165.743-105.955,8.438-5.382,17.107-12.382,25.576-17.376,1.189-.701,8.51-4.965,9.024-4.942,2.13.094.697,7.805.411,9.382-5.183,28.577-10.282,58.39-14.818,87.069-6.413,40.548-12.095,80.818-18.562,121.283-63.63,41.675-128.303,81.756-191.372,124.277l-14.894,8.57ZM399.17,364.376c-26.998,5.162-63.87,61.306-50.486,86.979,6.488,12.445,23.048,5.881,31.695-.897,17.39-13.631,39.968-48.93,36.778-71.58-1.321-9.378-8.114-16.391-17.987-14.503Z"/></svg>