<?xml version="1.0" encoding="UTF-8"?><svg id="RedZone" xmlns="http://www.w3.org/2000/svg" width="1000" height="1000" xmlns:xlink="http://www.w3.org/1999/xlink" viewBox="0 0 1000 1000"><defs><style>.cls-1{fill:none;}.cls-2{fill:#96daf1;}.cls-3{clip-path:url(#clippath-1);}.cls-4{fill:#94d8ef;}.cls-5{clip-path:url(#clippath);}.cls-6{fill:#105379;}</style><clipPath id="clippath"><rect class="cls-1" x="93.29" y="93.29" width="813.42" height="813.42"/></clipPath><clipPath id="clippath-1"><rect class="cls-1" x="93.29" y="93.29" width="813.42" height="813.42"/></clipPath></defs><g id="Background"><g class="cls-5"><g class="cls-3"><path class="cls-6" d="M93.29,500c0-224.62,182.09-406.71,406.71-406.71s406.71,182.09,406.71,406.71-182.09,406.71-406.71,406.71S93.29,724.62,93.29,500"/><path class="cls-2" d="M137.226,500c0-200.354,162.419-362.774,362.774-362.774s362.773,162.42,362.773,362.774-162.419,362.774-362.773,362.774-362.774-162.42-362.774-362.774"/><path class="cls-6" d="M175.475,500c0-179.23,145.295-324.525,324.525-324.525s324.526,145.295,324.526,324.525-145.295,324.525-324.526,324.525-324.525-145.295-324.525-324.525"/></g></g></g><path class="cls-4" d="M371.687,274.765c7.585,10.657,12.567,23.229,20.501,33.483,1.489,1.925.032,3.53,3.674,4.225l247.51.262c31.086,1.615,51.619,33.526,19.16,53.098-25.506,15.379-64.235,3.655-92.491,8.397-30.389,23.174-59.93,47.366-90.331,70.536-7.084,5.399-17.362,15.793-27.113,15.793h-54.44l42.486-84.873.456-3.029c-.366-.491-1.273.999-1.488.999h-65.927c-1.071,0-7.57-1.463-9.055-1.933-5.123-1.623-8.356-5.474-11.243-9.734-11.039-27.769-14.847-58.44-23.154-87.224h41.454Z"/><path class="cls-4" d="M413.14,559.445c-.34,2.46.97,8.064-.974,9.518-2.226,1.665-16.636,3.307-20.638,4.334-25.628,6.576-78.337,23.204-86.322,51.526-7.165,25.413,30.783,44.827,49.733,52.262,78.063,30.625,210.032,31.247,288.19.978,19.219-7.443,57.007-26.401,52.241-51.736-5.032-26.748-50.205-42.851-73.249-49.608-12.252-3.592-24.702-6.097-37.214-8.735-1.816-1.27-.692-6.32-.955-8.537.817-.03,1.641-.046,2.468.011,38.162,2.651,106.483,20.581,134.904,46.916,21.139,19.587,21.109,44.799,1.497,65.477-2.137,2.253-13.387,10.444-13.009,11.951l34.955,29.474c-11.079-.955-22.373-.366-33.448-1.004-12.795-.737-32.172-4.733-43.967-4.074-7.267.406-30.501,10.482-40.188,12.835-79.361,19.282-183.278,19.222-262.186-2.043-8.453-2.278-25.143-10.018-32.234-10.739-11.054-1.124-32.597,3.3-44.975,4.02-10.747.625-21.701-.038-32.449,1.004-.385-1.677.545-2.017,1.515-2.97,3.093-3.036,9.344-7.962,12.994-10.979,6.423-5.31,13.465-10.463,20.441-15.032,1.302-1.902-7.813-7.359-9.509-8.945-33.832-31.629-16.673-63.133,17.835-83.105,33.491-19.383,76.735-26.665,114.543-32.796Z"/><path class="cls-4" d="M642.386,435.586c1.477.284,9.98,4.171,11.792,5.189,20.745,11.649,14.56,37.773-6.3,44.255-1.168.363-9.948,2.498-10.487,2.498h-79.412v-51.942h84.406Z"/><path class="cls-4" d="M472.076,561.446v-52.941h71.421c7.025,0,25.051,7.686,30.004,12.948,8.252,8.767,8.716,25.094-1.601,32.436-3.2,2.277-15.856,7.557-19.413,7.557h-80.411Z"/><path class="cls-4" d="M404.151,636.363v-45.949h66.426c8.016,0,19.08,4.376,24.323,10.638,8.625,10.302,5.979,24.512-5.792,30.867-1.697.916-12.248,4.444-13.536,4.444h-71.421Z"/><polygon class="cls-4" points="498.546 264.776 550.988 300.736 459.589 300.736 435.117 264.776 498.546 264.776"/><path class="cls-4" d="M462.087,508.505v52.941h-22.475c-3.112,0-9.576-7.36-10.259-10.717-1-4.91-.895-24.414-.252-29.761.641-5.33,7.355-12.463,12.509-12.463h20.477Z"/><path class="cls-4" d="M547.991,435.586v51.942h-19.478c-.382,0-6.473-2.502-7.035-2.954-1.383-1.111-2.648-4.243-3.009-5.981-1.068-5.135-1.158-29.212.321-33.753,1.114-3.422,5.949-9.255,9.724-9.255h19.478Z"/><path class="cls-4" d="M394.162,590.414v45.949h-21.476c-.352,0-4.865-2.8-5.542-3.448-6.1-5.845-5.577-32.514.489-38.563,1.338-1.334,7.501-3.938,9.048-3.938h17.481Z"/></svg>