<?xml version="1.0" encoding="UTF-8"?><svg id="RoundEvent" xmlns="http://www.w3.org/2000/svg" width="1000" height="1000" xmlns:xlink="http://www.w3.org/1999/xlink" viewBox="0 0 1000 1000"><defs><style>.cls-1{fill:none;}.cls-2{fill:#96daf1;}.cls-3{clip-path:url(#clippath-1);}.cls-4{fill:#94d8ef;}.cls-5{clip-path:url(#clippath);}.cls-6{fill:#105379;}</style><clipPath id="clippath"><rect class="cls-1" x="93.29" y="93.29" width="813.42" height="813.42"/></clipPath><clipPath id="clippath-1"><rect class="cls-1" x="93.29" y="93.29" width="813.42" height="813.42"/></clipPath></defs><g id="Background"><g class="cls-5"><g class="cls-3"><path class="cls-6" d="M93.29,500c0-224.62,182.09-406.71,406.71-406.71s406.71,182.09,406.71,406.71-182.09,406.71-406.71,406.71S93.29,724.62,93.29,500"/><path class="cls-2" d="M137.226,500c0-200.354,162.419-362.774,362.774-362.774s362.773,162.42,362.773,362.774-162.419,362.774-362.773,362.774-362.774-162.42-362.774-362.774"/><path class="cls-6" d="M175.475,500c0-179.23,145.295-324.525,324.525-324.525s324.526,145.295,324.526,324.525-145.295,324.525-324.526,324.525-324.525-145.295-324.525-324.525"/></g></g></g><path class="cls-4" d="M489.582,330.79c-.88-3.147-6.781-2.598-9.382-2.37-37.926,3.317-75.461,36.216-89.383,70.529-45.772,112.812,89.36,216.047,181.78,132.632,47.12-42.529,53.975-107.644,17.817-159.668-3.543-5.097-12.934-12.619-11.842-19.098.905-5.37,31.69-26.499,37.062-31.983,8.902-3.211,17.976,15.453,21.973,21.706,86.371,135.121-32.792,312.613-191.463,265.383-166.956-49.695-155.006-302.251,26.06-333.448,5.897-1.016,16.434,1.112,17.431-6.561,1.301-10.008-1.813-24.553-.053-34.016,1.28-6.886,10.667.473,13.474,2.526,24.971,18.259,48.246,41.221,73.541,59.394,3.503,2.39,4.488,7.025,1.034,10.05l-77.717,61.215c-1.58,2.672-10.33,3.031-10.33.668v-36.959Z"/><path class="cls-4" d="M570.582,633.953l23.757,47.657,2.243,1.288v-48.946h20v92.897h-21.5l-23.306-45.643-3.194-2.304v45.45c0,.33-1.325,1.517-1,2.497h-19v-92.897h22Z"/><path class="cls-4" d="M342.082,633.953c23.797,2.265,31.043,22.76,25.018,43.97-2.244,7.899-6.706,10.025-11.579,15.477.343,5.807,12.554,27.118,11.864,30.821-.695,3.73-18.368,3.366-20.819,2.145-3.083-1.536-10.675-29.417-12.124-30.343-1.473-.941-9.371.386-11.86-.139v28.468c0,.33-1.325,1.516-1,2.497h-18.5c-.106,0-1.5-1.392-1.5-1.498v-89.9c0-.106,1.394-1.498,1.5-1.498,12.177,0,27.243-1.119,39,0ZM322.582,677.905c6.41-.604,13.886,1.585,20.063-.439,7.794-2.553,6.822-25.532-2.563-25.532h-17.5v25.971Z"/><path class="cls-4" d="M630.582,726.85v-92.897h40.5c2.001,0,9.464,2.314,11.757,3.239,9.011,3.638,13.95,11.623,14.778,21.198.972,11.243,1.169,34.945-.029,45.991-.919,8.475-6.314,16.504-14.307,19.671-1.447.573-9.236,2.797-10.199,2.797h-42.5ZM650.582,709.869c8.948-.793,24.102,2.796,26.556-8.935,1.306-6.246,1.29-32.801.205-39.272-.834-4.974-5.031-9.729-10.26-9.729h-16.5v57.936Z"/><path class="cls-4" d="M406.341,632.214c14.322-1.936,37.75.354,42.959,16.505,3.012,9.34,2.752,49.247,1.042,59.412-3.472,20.641-31.229,23.298-47.792,19.251-12.8-3.127-19.862-10.623-21.004-23.97-.932-10.899-1.354-40.411.489-50.527,2.175-11.938,12.835-19.12,24.306-20.671ZM428.271,707.564c1.971-2.145,3.145-9.097,3.345-12.141.771-11.716-1.964-24.835-1.263-36.768-4.661-12.979-26.749-12.598-28.658,2.881-.922,7.472-1.032,35.346.954,41.782,2.866,9.29,20.334,10.002,25.622,4.246Z"/><path class="cls-4" d="M513.582,633.953h19.5c.106,0,1.5,1.392,1.5,1.498v66.926c0,3.465-3.405,12.409-5.565,15.417-11.056,15.397-51.271,14.923-60.254-2.612-.682-1.331-3.18-7.91-3.18-8.81v-72.42h18.5c.106,0,1.5,1.392,1.5,1.498v65.927c0,4.74,9.012,9.461,13.502,9.568,4.304.103,14.498-3.989,14.498-8.569v-68.424Z"/></svg>