<?xml version="1.0" encoding="UTF-8"?><svg id="ScoreManager" xmlns="http://www.w3.org/2000/svg" width="1000" height="1000" xmlns:xlink="http://www.w3.org/1999/xlink" viewBox="0 0 1000 1000"><defs><style>.cls-1{font-family:RefrigeratorDeluxe-Heavy, 'Refrigerator Deluxe';font-size:273.622px;font-weight:800;letter-spacing:.025em;}.cls-1,.cls-2,.cls-3{fill:#96daf1;}.cls-4{fill:none;}.cls-5{clip-path:url(#clippath-1);}.cls-3{font-family:PUBGBattlegrounds-Regular, 'PUBG Battlegrounds';font-size:407.915px;}.cls-6{clip-path:url(#clippath);}.cls-7{fill:#105379;}</style><clipPath id="clippath"><rect class="cls-4" x="93.29" y="93.29" width="813.42" height="813.42"/></clipPath><clipPath id="clippath-1"><rect class="cls-4" x="93.29" y="93.29" width="813.42" height="813.42"/></clipPath></defs><g id="Background"><g class="cls-6"><g class="cls-5"><path class="cls-7" d="M93.29,500c0-224.62,182.09-406.71,406.71-406.71s406.71,182.09,406.71,406.71-182.09,406.71-406.71,406.71S93.29,724.62,93.29,500"/><path class="cls-2" d="M137.226,500c0-200.354,162.419-362.774,362.774-362.774s362.773,162.42,362.773,362.774-162.419,362.774-362.773,362.774-362.774-162.42-362.774-362.774"/><path class="cls-7" d="M175.475,500c0-179.23,145.295-324.525,324.525-324.525s324.526,145.295,324.526,324.525-145.295,324.525-324.526,324.525-324.525-145.295-324.525-324.525"/></g></g></g><text class="cls-3" transform="translate(234.67 650.079)"><tspan x="0" y="0">+</tspan></text><text class="cls-1" transform="translate(384.896 586.896)"><tspan x="0" y="0">001</tspan></text></svg>