<?xml version="1.0" encoding="UTF-8"?><svg id="SpecialZone" xmlns="http://www.w3.org/2000/svg" width="1000" height="1000" xmlns:xlink="http://www.w3.org/1999/xlink" viewBox="0 0 1000 1000"><defs><style>.cls-1{fill:none;}.cls-2{fill:#96daf1;}.cls-3{clip-path:url(#clippath-1);}.cls-4{fill:#94d8ef;}.cls-5{clip-path:url(#clippath);}.cls-6{fill:#105379;}</style><clipPath id="clippath"><rect class="cls-1" x="93.29" y="93.29" width="813.42" height="813.42"/></clipPath><clipPath id="clippath-1"><rect class="cls-1" x="93.29" y="93.29" width="813.42" height="813.42"/></clipPath></defs><g id="Background"><g class="cls-5"><g class="cls-3"><path class="cls-6" d="M93.29,500c0-224.62,182.09-406.71,406.71-406.71s406.71,182.09,406.71,406.71-182.09,406.71-406.71,406.71S93.29,724.62,93.29,500"/><path class="cls-2" d="M137.226,500c0-200.354,162.419-362.774,362.774-362.774s362.773,162.42,362.773,362.774-162.419,362.774-362.773,362.774-362.774-162.42-362.774-362.774"/><path class="cls-6" d="M175.475,500c0-179.23,145.295-324.525,324.525-324.525s324.526,145.295,324.526,324.525-145.295,324.525-324.526,324.525-324.525-145.295-324.525-324.525"/></g></g></g><path class="cls-4" d="M369.506,263.949c1.239-8.411,9.937-10.484,15.244-4.256l1.747,37.719,18.074-19.375c6.103-5.859,14.613-1.294,14.703,6.678-2.101,6.087-32.787,34.687-32.787,37.17v42.453c2.314.548,1.64-.42,2.29-1.259,4.283-5.532,13.588-26.09,22.741-17.277,6.848,6.592-7.571,22.98-8.04,30.523l34.497-18.934c6.515-13.279,9.413-29.253,15.239-42.697,2.592-5.982,7.855-8.7,13.132-3.743,6.299,5.917-5.382,25.527-5.94,33.4.763.606,7.547-2.879,8.883-3.593,8.283-4.426,17.217-12.262,26.34-13.204,5.171,1.852,8.966,8.649,4.757,13.34-4.387,4.89-29.195,14.751-30.981,18.963-.875,2.063,1.445,1.316,2.366,1.59,4.328,1.284,23.78,5.835,25.561,7.42,3.577,3.184,2.703,12.445-2.492,13.438-1.543.295-3.294.066-4.861-.091-12.809-1.292-28.233-8.526-40.537-9.474-4.271-.329-26.089,13.419-31.602,16.47-.819.453-8.505,2.445-2.905,3.103,5.809.683,22.773.604,26.53,4.446,5.768,5.898-1.555,13.528-8.528,13.528h-19.478c-.266,2.444,2.921,3.689,4.694,4.795,4.402,2.744,25.613,15.775,28.865,16.157,1.331.157,2.36-.014,3.645-.195,12.173-1.721,28.696-9.739,40.478-10.566,7.875-.552,11.251,9.837,5.626,14.682l-27.989,6.977-1.377,2.096,30.912,16.549c6.263,6.732,1.545,17.194-7.977,13.959l-29.92-16.508c-1.5,1.954,8.639,24.678,8.505,29.478-.207,7.404-12.138,10.521-15.744,2.223l-13.998-43.438-34.701-19.229c-.91,8.247,14.171,24.001,7.055,30.536-10.646,9.777-18.314-14.717-25.045-19.549v42.453c4.629,7.395,32.936,31.728,32.706,38.785-.166,5.093-6.13,8.679-10.972,7.431-3.215-.829-16.339-16.525-19.92-20.061-.877-.866-.841-2.189-2.808-1.677-.854,3.583.919,7.304.997,10.481.042,1.708-1.085,3.446-1.046,5.046.177,7.315,5.102,27.143-8.318,26.109-5.28-.407-7.043-3.625-7.486-8.297-.74-7.783,1.183-18.522.949-26.867-.035-1.265-.506-5.933-1.098-6.474-1.61-1.473-1.843.793-2.268,1.273-2.459,2.776-17.344,19.276-18.949,19.936-3.41,1.402-7.205,1.14-9.754-1.712-4.648-5.199-.349-9.739,3.047-13.978,4.125-5.15,27.218-28.405,27.921-32.012l-.991-39.437c-7.561,5.01-12.766,26.927-24.346,18.854-8.204-5.719,7.397-23.008,6.885-30.821l-34.954,19.975c-5.379,12.308-7.681,29.783-13.449,41.49-4.19,8.504-15.274,6.664-15.723-1.195-.279-4.892,9.71-29.037,8.668-30.323l-30.666,17.776c-9.53,2.202-12.651-5.656-8.988-13.499l31.669-18.765c-6.295-2.552-24.644-3.852-29.514-7.436-4.526-3.33-3.516-13.795,4.065-14.096,12.173-.484,32.843,9.026,45.837,10.039,4.245-1.882,34.457-17.485,34.535-19.468.096-2.448-13.085-1.294-15.45-1.512-6.974-.641-15.006-.48-14.472-9.416.579-9.686,23.135-7.106,29.937-9.045-11.101-7.614-23.049-13.813-34.952-20.071l-40.51,10.516c-9.489,2.348-13.488-6.132-8.407-13.391,8.473-3.411,17.686-4.812,26.339-7.624,1.106-.36,2.417-.311,2.594-1.887-8.496-5.085-19.558-9.519-27.663-14.799-1.59-1.035-4.575-3.147-5.104-4.906-1.188-3.95,1.9-10.994,6.392-11.244,6.86-.381,33.03,18.337,34.364,16.947-1.196-7.928-11.256-25.75-8.228-32.707,2.327-5.346,11.981-5.846,14.448.026l15.309,44.625c11.635,6.14,22.646,12.551,34.409,18.022-.597-8.681-18.019-25.978-4.514-31.053,7.854-2.952,15.557,13.367,20.209,18.802,3.573,4.175,1.293-2.344,1.24-5.173-.191-10.234,2.422-24.914.993-33.956-.295-1.87-.946-2.62-1.94-4.054-7.373-10.639-23.301-21.455-30.417-32.505-4.324-6.715,2.919-13.989,10.393-11.39,2.174.756,16.994,17.04,19.736,20.143.599.677-.07,1.903,2.285,1.278,1.086-10.322-1.466-23.516,0-33.463Z"/><path class="cls-4" d="M639.388,619.517c0,68.707-55.698,124.406-124.406,124.406s-124.406-55.698-124.406-124.406,55.698-124.406,124.406-124.406,124.406,55.698,124.406,124.406ZM623.075,619.552c0-59.527-48.256-107.783-107.783-107.783s-107.783,48.256-107.783,107.783,48.256,107.783,107.783,107.783,107.783-48.256,107.783-107.783Z"/><path class="cls-4" d="M647.249,416.213c-2.295-3.557,4.299-3.342,6.849-4.523,14.759-6.835,25.015-24.337,26.785-40.137,5.835-52.096-38.857-79.019-86.111-75.123-15.197,1.253-28.503,8.712-42.462,13.96l7.97-8.496c50.569-51.822,143.786-29.011,150.718,47.09,2.757,30.268-17.231,70.231-51.314,70.28-1.554.002-12.083-2.506-12.434-3.051Z"/><path class="cls-4" d="M720.766,450.892c-41.479,40.792-123.333,21.616-130.224-38.386-1.523-13.258,4.968-34.482,18.692-39.174.315,6.044-4.039,11.235-4.063,17.476-.096,25.307,27.244,49.557,51.48,51.479,37.228,2.952,64.521-20.575,76.844-54.083l6.587-27.855c5.886,17.721,7.406,34.909,2.733,53.157-3.152,12.307-12.99,28.477-22.048,37.386Z"/><path class="cls-4" d="M655.215,358.334c-1.21-3.417-8.548-7.253-12.019-8.473-25.949-9.119-54.921,2.016-68.089,25.793-14.509,26.197-9.665,54.432,4.967,79.282l18.172,21.274c-22.6-6.211-43.92-25.641-53.327-47.051-21.668-49.316,11.947-110.736,68.695-105.655,15.69,1.405,36.029,11.21,42.596,26.327,1.221,2.812,3.851,8.518-.994,8.502Z"/><path class="cls-4" d="M495.866,580.098c2.808.81,14.141,27.814,16.991,31.975,1.635.24,1.99-1.26,2.683-2.312,2.391-3.633,13.619-29.663,15.287-29.663h17.481v82.908h-14.983v-53.94c-2.356-.485-1.606.302-2.241,1.288-6.395,9.926-11.188,23.349-17.238,33.683-6.241-10.289-11.535-21.351-16.622-32.334l-2.856-1.639v52.941h-14.983v-82.908c4.388.796,12.712-1.088,16.482,0Z"/><path class="cls-4" d="M469.395,580.098v13.984h-23.973v19.978h20.977v13.984h-20.977v19.478c0,2.797,20.962.515,23.973,1.498v13.984h-38.957v-82.908h38.957Z"/><path class="cls-4" d="M575.277,631.041v31.964h-14.983v-82.908h29.467c4.059,0,11.818,8.691,13.273,12.698,3.277,9.022,2.305,25.538-4.789,32.744-5.833,5.925-15.229,5.812-22.967,5.501ZM575.277,593.084v21.476c0,.39-1.381,1.479-1.004,2.489,20.738,6.087,22.106-28.223,1.004-23.965Z"/></svg>