<?xml version="1.0" encoding="UTF-8"?><svg id="SuperJump" xmlns="http://www.w3.org/2000/svg" width="1000" height="1000" xmlns:xlink="http://www.w3.org/1999/xlink" viewBox="0 0 1000 1000"><defs><style>.cls-1{fill:none;}.cls-2{fill:#96daf1;}.cls-3{clip-path:url(#clippath-1);}.cls-4{fill:#94d8ef;}.cls-5{clip-path:url(#clippath);}.cls-6{fill:#105379;}</style><clipPath id="clippath"><rect class="cls-1" x="93.29" y="93.29" width="813.42" height="813.42"/></clipPath><clipPath id="clippath-1"><rect class="cls-1" x="93.29" y="93.29" width="813.42" height="813.42"/></clipPath></defs><g id="Background"><g class="cls-5"><g class="cls-3"><path class="cls-6" d="M93.29,500c0-224.62,182.09-406.71,406.71-406.71s406.71,182.09,406.71,406.71-182.09,406.71-406.71,406.71S93.29,724.62,93.29,500"/><path class="cls-2" d="M137.226,500c0-200.354,162.419-362.774,362.774-362.774s362.773,162.42,362.773,362.774-162.419,362.774-362.773,362.774-362.774-162.42-362.774-362.774"/><path class="cls-6" d="M175.475,500c0-179.23,145.295-324.525,324.525-324.525s324.526,145.295,324.526,324.525-145.295,324.525-324.526,324.525-324.525-145.295-324.525-324.525"/></g></g></g><path class="cls-4" d="M672.082,309.092c-2.933,2.94-27.129.293-32.673,1.29-1.414,8.62-2.121,18.592-4.498,26.963-15.024,52.925-70.265,63.273-116.962,73.826l-16.433,71.96,40.442,1.014c43.219,7.836,17.474,50.071,5.05,73.954-6.594,12.675-32.703,60.013-42.546,66.334-7.154,4.594-18.665.958-22.776-6.099-8.372-14.37,5.228-29.097,11.381-41.257,7.897-15.609,14.907-31.696,22.406-47.499-.686-.977-1.303-1.293-2.472-1.494-7.249-1.245-25.338-.844-33.923-1.038-14.891-.337-22.809-1.809-30.898,12.136-11.407,19.664-20.201,45.017-31.029,65.863-9.185,17.683-20.082,36.43-30.34,53.567-4.882,8.155-17.476,30.996-23.14,36.508-6.764,6.583-18.633,4.463-24.993-1.703-4.166-4.038-4.446-9.317-3.964-14.991.915-10.79,22.772-47.64,28.811-60.082,28.712-59.159,43.599-102.566,54.765-167.987,3.218-18.856,4.86-37.611,7.372-56.553-35.484-13.375-61.823-42.066-78.499-75.465-6.654-13.326-20.225-40.336-3.814-50.803,22.645-14.442,29.649,18.018,36.78,31.821,18.785,36.358,40.176,55.014,81.202,62.639,29.66,5.513,103.35,7.626,123.613-18.681,7.164-9.301,8.539-21.81,10.464-32.978l-32.438-1.034c-2.694-.505-5.214-3.451-4.359-6.209l58.495-74.53c1.469-.483,2.697.026,4.015.607,5.509,2.433,23.989,32.979,28.816,40.114,7.322,10.823,15.658,21.161,22.631,32.31,1.125,1.886,1.036,5.973-.484,7.497Z"/><path class="cls-4" d="M515.143,250.746c50.387,44.809-10.487,125.5-64.488,86.965-60.505-43.177,8.137-137.078,64.488-86.965Z"/><path class="cls-4" d="M428.58,731.856c-2.573.418-4.313-.545-3.929-3.34,5.119-26.682,8.045-53.972,13.41-80.585.689-3.42,1.813-12.728,5.206-13.769,5.377-1.648,9.62,1.278,9.103,7.009-.57,6.321-4.399,19.12-6.081,25.976-5.319,21.679-12.495,42.994-17.709,64.71Z"/><path class="cls-4" d="M509.508,728.857c-.433-1.88,1.062-2.367,1.991-3.493,11.051-13.392,30.909-31.167,44.477-42.426,3.653-3.031,12.671-11.633,16.904-11.042,5.151.719,5.833,8.925,1.584,11.551-17.014,12.674-34.26,25.104-51.66,37.241-1.696,1.183-12.419,9.014-13.296,8.17Z"/><path class="cls-4" d="M461.561,743.841c3.617-16.797,9.95-32.867,15.242-49.176,1.788-5.511,9.474-36.201,13.38-37.558,5.04-1.751,10.169,1.245,7.874,6.856l-32.756,77.137-3.74,2.742Z"/><path class="cls-4" d="M393.505,705.017c3.046,1.898,10.938,47.997,12.109,54.806l-3.007-.671-15.725-46.01c-2.541-4.432,2.902-10.443,6.623-8.124Z"/><path class="cls-4" d="M530.23,748.032c5.497-.506,7.106,6.089,4.257,9.312-4.068,4.603-28.39,9.712-34.721,14.285-9.224-.714-2.019-4.963,1.617-7.435,4.458-3.031,24.996-15.807,28.847-16.162Z"/><path class="cls-4" d="M327.968,741.598c-3.35-3.463.328-9.69,4.997-8.599l27.71,15.33c2.467,2.54.261,6.922-3.022,6.124l-29.684-12.856Z"/></svg>