<?xml version="1.0" encoding="UTF-8"?><svg id="Teleport" xmlns="http://www.w3.org/2000/svg" width="1000" height="1000" xmlns:xlink="http://www.w3.org/1999/xlink" viewBox="0 0 1000 1000"><defs><style>.cls-1{fill:none;}.cls-2{fill:#96daf1;}.cls-3{clip-path:url(#clippath-1);}.cls-4{fill:#95d8ef;}.cls-5{clip-path:url(#clippath);}.cls-6{fill:#105379;}</style><clipPath id="clippath"><rect class="cls-1" x="93.29" y="93.29" width="813.42" height="813.42"/></clipPath><clipPath id="clippath-1"><rect class="cls-1" x="93.29" y="93.29" width="813.42" height="813.42"/></clipPath></defs><g id="Background"><g class="cls-5"><g class="cls-3"><path class="cls-6" d="M93.29,500c0-224.62,182.09-406.71,406.71-406.71s406.71,182.09,406.71,406.71-182.09,406.71-406.71,406.71S93.29,724.62,93.29,500"/><path class="cls-2" d="M137.226,500c0-200.354,162.419-362.774,362.774-362.774s362.773,162.42,362.773,362.774-162.419,362.774-362.773,362.774-362.774-162.42-362.774-362.774"/><path class="cls-6" d="M175.475,500c0-179.23,145.295-324.525,324.525-324.525s324.526,145.295,324.526,324.525-145.295,324.525-324.526,324.525-324.525-145.295-324.525-324.525"/></g></g></g><path class="cls-4" d="M640.821,294.282c.352.404,2.117,3.268,2.55,1.935-9.358-19.692-24.015-36.448-41.059-49.837-.671-.527-7.691-4.361-4.394-4.6,2.234-.162,16.802,7.432,19.788,9.181,92.361,54.088,114.2,181.501,97.579,279.508l7.448-13.014c2.831-2.608,4.852-18.228,5.537-18.947,1.406-1.474,1.813.1,1.989,1.482.656,5.15.305,14.585.039,20.037-1.192,24.44-6.329,56.171-13.286,79.61-14.248,48.002-45.019,88.879-85.637,117.642-.244,1.891,1.867.591,2.791.295,9.704-3.113,18.198-8.821,26.68-14.271-4.319,7.458-12.757,15.684-19.477,21.467-73.104,62.906-172.626,59.659-250.977,9.166-5.435-3.503-31.608-20.432-32.68-25.221-.314-1.404.774-1.667,1.613-2.283,2.362-1.736,20.815-13.653,22.083-13.97,1.859-.464,2.327.043,3.807.751,4.182,1.999,11.651,10.151,16.499,13.474,81.38,55.779,198.322,28.915,248.804-54.675,20.971-34.724,30.932-70.871,34.671-111.175.103-1.115.915-3.592-.868-3.363-3.272,9.386-7.401,18.471-12.515,26.985-.759,1.264.198,2.531-2.476,1.97,1.192-6.523,3.061-12.883,3.98-19.483,14.584-104.759-3.998-225.752-108.511-276.041-27.019-13.001-55.874-17.014-82.033.536-3.783,2.538-10.079,9.961-13.517,12.001-1.82,1.079-6.175.919-8.667,1.832-81.619,29.905-125.807,105.667-137.707,188.929-7.305,51.11-2.121,95.67,11.326,145.168,1.052,3.873,4.421,9.62,3.516,13.281-.367,1.485-22.473,12.582-26.326,10.765-.633-.143-4.748-10.126-5.429-11.79-23.145-56.533-21.025-126.492-7.973-185.308,1.297-5.845,3.724-11.759,4.735-17.725l-6.376,9.091-8.612,17.871-1.986-1.48c9.017-62.879,42.455-122.415,93.892-159.845-.692-1.379-2.687.019-3.677.319-13.324,4.032-26.52,11.053-37.777,19.159-.944-.059-.584-1.668-.318-2.315.797-1.941,11.989-14.417,14.261-16.706,56.77-57.188,147.153-85.159,223.992-53.088,29.307,12.232,44.577,29.579,64.699,52.682Z"/><path class="cls-4" d="M549.042,289.189c19.987,18.963,15.143,52.838-10.552,63.981,29.666,14.704,22.735,49.417,18.961,76.41,12.453-.079,20.721-3.618,29.515-11.913,6.759-6.376,22.403-30.043,32.968-20.102,9.407,8.852,2.374,22.382-3.143,30.93-10.463,16.211-29.885,35.917-49.976,37.926-9.047.905-14.813-1.86-23.276-2.792-2.441,16.268-8.764,31.771-10.921,48.141,13.158,13.515,25.743,27.631,38.851,41.186,16.49,17.052,29.573,23.276,36.422,48.441,4.635,17.031,5.409,28.405,13.964,44.97,1.952,3.78,8.668,11.41,7.025,14.939-.225.482-6.166,7.19-7.009,8.009-7.522,7.302-11.671,10.504-21.219,4.308-11.654-7.563-29.742-35.051-33.532-48.436-1.299-4.588-1.516-14.652-4.093-17.883l-53.994-33.905-2.952-1.042c-7.685,13.897-13.73,28.771-21.382,42.695-4.335,7.887-12.636,23.504-19.137,28.809-8.621,7.035-22.283,6.968-33.191,9.761-26.024,6.664-52.936,18.968-77.057,30.823-6.513,3.201-19.928,8.831-24.965,12.993-4.738,3.915-2.138,18.899-2.606,25.363-1.342,18.515-8.178,15.451-17.99,3.926-8.782-10.314-21.65-36.516-20.027-49.941,1.386-11.46,15.212-8.616,23.213-9.743,30.866-4.351,67.431-41.562,103.884-51.943,3.673-1.046,14.548-2.048,16.27-3.708,1.102-1.062,9.143-25.509,10.03-28.927,7.011-26.999,6.953-55.659,15.753-82.138.923-2.778,5.848-9.458,3.706-11.315-15.814-8.586-32.099-17.03-47.299-26.641-7.907-4.999-32.892-21.268-35.851-29.071-1.13-2.979-1.256-5.468-.028-8.456.595-1.448,11.037-11.611,12.999-13.198,12.205-9.868,30.178-20.695,43.856-28.831,21.893-13.023,44.774-24.734,68.242-34.653-11.561-13.031-17.445-21.632-15.962-39.925,2.454-30.281,39.902-38.591,60.502-19.046ZM473.537,403.616l-46.935,23.99c-.303,1.4-.193,1.273.633,2.06,11.276,10.742,28.588,19.589,41.812,27.902l1.501-1.488,2.99-52.463Z"/><path class="cls-4" d="M577.427,691.304c-13.346,14.383-33.592,22.904-52.733,26.659-22.727,4.458-44.349,2.465-66.115-6.212-3.008-1.199-6.734-2.62-9.005-4.979,7.644-.466,15.183,2.905,22.785,4.185,24.757,4.167,46.961,1.575,70.889-5.395l34.178-14.258Z"/><path class="cls-4" d="M346.68,587.402c-1.683,2.023-3.706-4.689-4.016-5.467-11.435-28.715-11.744-63.062-7.956-93.41,1.739-.236.94,2.268.987,3.48.604,15.498-.56,30.223,1.127,45.832,1.773,16.416,6.12,33.497,9.858,49.566Z"/><path class="cls-4" d="M273.759,502.509c-2.125,11.596-2.624,23.667-2.035,35.497.092,1.847,3.045,17.405,1.54,17.449-4.528-14.801-5.211-35.466-1.523-50.523.414-1.691-.989-2.911,2.018-2.423Z"/><path class="cls-4" d="M274.758,556.449l-.005,3.985c-.546,1.21-2.528-3.435-1.983-3.985h1.988Z"/></svg>