<?xml version="1.0" encoding="UTF-8"?><svg id="Timer" xmlns="http://www.w3.org/2000/svg" width="1000" height="1000" viewBox="0 0 1000 1000"><defs><style>.cls-1{fill:#96daf1;}.cls-2{fill:#94d8ef;}.cls-3{fill:#105379;}</style></defs><g id="Background"><circle class="cls-3" cx="500" cy="500" r="406.71"/><circle class="cls-1" cx="500" cy="500" r="362.774"/><circle class="cls-3" cx="500" cy="500" r="324.525"/></g><path class="cls-2" d="M524.403,301.937v-28.783h57.55c5.194,0,9.404-4.21,9.404-9.404v-25.761c0-5.194-4.21-9.404-9.404-9.404h-165.064c-5.194,0-9.404,4.21-9.404,9.404v25.761c0,5.194,4.21,9.404,9.404,9.404h57.312v28.833c-119.386,12.643-212.404,113.645-212.404,236.383,0,131.293,106.434,237.727,237.727,237.727s237.727-106.434,237.727-237.727c0-122.89-93.248-223.995-212.847-236.434ZM499.524,742.465c-112.718,0-204.094-91.376-204.094-204.094s91.376-204.094,204.094-204.094,204.094,91.376,204.094,204.094-91.376,204.094-204.094,204.094Z"/><rect class="cls-2" x="486.208" y="440.609" width="27.83" height="98.635"/><rect class="cls-2" x="527.527" y="510.485" width="27.83" height="128.397" transform="translate(-247.778 551.179) rotate(-45)"/><rect class="cls-2" x="656.235" y="520.999" width="38.607" height="29.6" rx="5.793" ry="5.793"/><rect class="cls-2" x="304.924" y="520.762" width="38.607" height="29.6" rx="5.793" ry="5.793"/><rect class="cls-2" x="480.701" y="696.654" width="38.607" height="29.6" rx="5.793" ry="5.793" transform="translate(1211.459 211.45) rotate(90)"/><rect class="cls-2" x="480.938" y="345.343" width="38.607" height="29.6" rx="5.793" ry="5.793" transform="translate(860.384 -140.098) rotate(90)"/></svg>