<?xml version="1.0" encoding="UTF-8"?><svg id="TriggerArea" xmlns="http://www.w3.org/2000/svg" width="1000" height="1000" viewBox="0 0 1000 1000"><defs><style>.cls-1{fill:#96daf1;}.cls-2,.cls-3{fill:#94d8ef;}.cls-4{fill:#71cdfd;}.cls-3{font-family:RefrigeratorDeluxe-ExtraBold, 'Refrigerator Deluxe';font-size:113.531px;font-weight:700;}.cls-5{fill:#105379;}</style></defs><g id="Background"><circle class="cls-5" cx="500" cy="500" r="406.71"/><circle class="cls-1" cx="500" cy="500" r="362.774"/><circle class="cls-5" cx="500" cy="500" r="324.525"/></g><path class="cls-2" d="M496.478,481.131v145l-145.838-72v-138l145.838,65ZM483.492,597.131v-104.5l-117.869-52.5v100l117.869,57Z"/><path class="cls-2" d="M646.311,417.131v136.5l-144.839,72.49,1.473-145.014,143.365-63.976ZM631.328,440.131l-118.868,52v106l118.868-58.5v-99.5Z"/><path class="cls-2" d="M490.278,235.425c42.048-2.124,87.515,11.141,119.543,38.736,7.386,6.363,26.94,23.036,16.041,32.999-9.14,8.355-18.182-5.628-23.479-10.553-56.491-52.517-148.338-54.554-205.322-1.503-6.408,5.965-11.766,17.923-21.686,13.755-17.265-7.254,1.558-24.3,9.212-31.242,28.851-26.169,66.766-40.226,105.69-42.192Z"/><path class="cls-2" d="M645.305,410.144c-48.964,19.915-98.312,44.848-147.165,64.765-47.042-20.645-93.665-42.229-140.508-63.301-1.653-.675-7.005-.345-2.72-2.709,46.759-21.598,95.575-39.777,143.218-59.479,49.808,18.367,97.887,41.024,147.175,60.724ZM623.338,410.142c-42.17-16.187-83.359-34.737-125.195-51.817-17.422,7.408-110.077,45.136-124.536,53.296,41.987,17.679,82.976,37.828,125.367,54.569,40.946-17.934,82.554-34.856,122.943-53.97,1.042-.535,1.883.525,1.421-2.079Z"/><path class="cls-2" d="M565.991,308.544c7.912,5.165,19.052,14.593,24.863,21.606,2.769,6.118.039,13.954-7.055,14.936-8.115,1.124-10.208-5.238-15.39-9.466-35.816-29.221-90.481-34.063-129-7.12-5.69,3.98-17.238,16.56-22.595,17.46-7.466,1.253-14.528-8.499-10.262-15.36,35.625-45.431,112.053-52.137,159.439-22.055Z"/><polygon class="cls-4" points="475.501 497.131 475.501 586.131 376.601 537.631 475.501 497.131"/><path class="cls-4" d="M530.44,501.131c29.082,11.814,60.404,22.701,88.611,35.781,1.079.619,1.734-.128,1.291,2.209l-99.891,48.01.005-87.997,9.984,1.997Z"/><path class="cls-2" d="M530.44,501.131l-9.984-1.997-.005,87.997-.989-90c3.538,1.581,7.398,2.542,10.978,4Z"/><text class="cls-3" transform="translate(278.762 722.631) scale(1.363 1)"><tspan x="0" y="0">TRIGGER</tspan></text></svg>