<?xml version="1.0" encoding="UTF-8"?><svg id="VehicleSpawn" xmlns="http://www.w3.org/2000/svg" width="1000" height="1000" viewBox="0 0 1000 1000"><defs><style>.cls-1{fill:#95d9f0;}.cls-2{fill:#96daf1;}.cls-3{fill:#105379;}</style></defs><g id="Background"><circle class="cls-3" cx="500" cy="500" r="406.71"/><circle class="cls-2" cx="500" cy="500" r="362.774"/><circle class="cls-3" cx="500" cy="500" r="324.525"/></g><path class="cls-1" d="M287.399,449.491c-3.219-.296-10.759-1.932-13.726-3.255-16.841-7.514-12.512-33.939,4.797-36.639,12.891-.65,35.146-3.979,39.169,12.65.251,1.206-.519,10.864,2.208,8.261,21.851-47.733,32.272-100.043,94.421-103.87,53.187-4.49,119.685-4.809,172.788,0,59.893,5.24,72.807,56.676,92.42,104.874,4.341,3.757-.18-19.366,15.698-21.749,4.075-.841,21.415-.837,25.682-.167,17.747,2.787,22.263,27.343,6.26,36.104-8.505,4.843-26.304,3.743-35.666,3.79,12.793,15.745,30.392,33.17,32.856,54.547,4.346,37.703.729,84.53-.932,122.715-.901,20.703,4.985,46.93-23.39,49.529-9.751.893-39.477,1.004-47.734-2.296-4.165-1.665-11.743-9.822-11.743-14.228v-24.972c-.12-4.394-279.173.018-280.688-1.498v26.471c-5.857,23.465-41.708,16.191-60.469,16.519-28.688-.523-22.963-37.232-23.396-57.515-1.094-35.167-3.172-70.663-1.083-105.882-.302-25.895,18.345-43.72,32.006-63.388-6.311-.419-13.251.573-19.478,0ZM653.222,442.243c4.627-6.34-10.107-29.357-12.541-37.376-8.128-18.332-14.837-40.144-34.456-48.453-28.676-10.801-203.545-13.253-223.908,6.194-9.397,7.627-27.272,49.138-32.661,62.237-2.528,6.144-8.982,16.371-.08,19.382l296.475.322c1.892.007,5.974-1.039,7.171-2.306ZM383.436,518.77c-18.564-16.842-44.949-18.649-70.801-19.153-5.213-.102-10.379,3.887-11.523,9.537-.819,4.046-1.055,23.482.015,27.504,2.074,7.798,9.779,13.349,17.498,14.46,10.631,1.53,51.123,1.745,61.432.021,14.842-2.483,10.768-24.029,3.38-32.368ZM684.278,499.67c-11.783.417-38.523,6.272-50.774,9.245-19.333.952-37.313,42.98-11.516,42.503,26.462-.49,86.45,14.664,77.365-38.409-1.047-7.693-7.162-13.619-15.074-13.339Z"/></svg>