<?xml version="1.0" encoding="UTF-8"?><svg id="WeaponDamage" xmlns="http://www.w3.org/2000/svg" width="1000" height="1000" viewBox="0 0 1000 1000"><defs><style>.cls-1{fill:#96daf1;}.cls-2{fill:#94d8ef;}.cls-3{fill:#105379;}</style></defs><g id="Background"><circle class="cls-3" cx="500" cy="500" r="406.71"/><circle class="cls-1" cx="500" cy="500" r="362.774"/><circle class="cls-3" cx="500" cy="500" r="324.525"/></g><path class="cls-2" d="M538.31,348.647h115.372c3.553,0,9.689,10.252,16.449,4.461,5.336-4.571-1.65-25.242,4.95-27.014,15.696-4.213,3.156,23.643,8.038,31.12,3.537-.175,26.002-1.483,26.958-.532.87.864-1.318,7.331,5.566,7.01,5.218-.243,4.927-6.238,8.979-7.036,3.779-.744,31.043-.632,34.732.193,9.688,2.167,12.098,22.999,1.151,24.702-3.833.596-11.605.909-15.882,1.099-11.184.498-84.337-2.123-87.39,1.008-2.116,2.17,4.298,10.106-4.539,10.938-29.06,2.737-64.181.329-93.946.957-2.362.05-4.546,1.018-6.91,1.081-8.169.22-27.077-1.577-33.557.406-9.346,2.859-5.55,17.982-3.869,24.951,3.12,12.931,10.284,29.611,16.532,41.403,1.606,3.031,11.102,15.574,9.323,18.043l-44.411,14.943-3.549-1.609-26.584-60.261c-15.307,3.911-45.091-4.55-56.285,7.797-3.387,4.355-18.633,33-21.622,34.029-2.175.749-6.034.167-8.376-.285-2.609-.504-24.957-8.059-25.948-9.009-1.991-1.908-.684-3.855.134-5.917,4.084-10.284,17.574-27.494,23.666-38.257,1.916-3.386,9.131-15.648,9.774-18.283,1.58-6.47-6.587-6.391-10.84-5.748-6.76,1.022-20.393,5.966-27.687,8.264-30.389,9.578-59.196,22.958-88.945,33.918-7.68,2.829-12.651,6.962-15.675-2.251-5.164-15.733-9.87-49.637-11.251-66.655-.273-3.367-1.37-13.316,1.969-14.984l134.154-.697c9.75-2.228,22.237-29.083,29.315-36.612,2.448-1.232,5.197-2.681,7.939-3.048,18.471-2.476,39.143-.417,56.952,4.804,24.473,2.221,49.032,3.201,73.651,3.264,5.616,1.88.19,19.126,1.663,23.809ZM417.444,358.636h100.388c5.195,0,8.389-11.553.978-12.965l-95.352.5c-4.165,2.977-5.659,7.481-6.014,12.465ZM456.401,405.584h-25.971c-.482,7.375-7.27,12.481-6.992,19.978h18.479c.421,0,5.998-2.598,6.832-3.157,4.953-3.324,7.405-11.031,7.652-16.821Z"/><path class="cls-2" d="M353.016,562.409c-2.13-.657-1.658-7.46-1.53-9.529,4.016-64.864,113.931-65.02,127.412-12.469,12.283,47.884-42.161,79.83-69.437,110.413-.257,3.058,1.082.486,1.49.486h70.422v32.963h-127.358c-.106,0-1.498-1.392-1.498-1.498v-26.97c18.923-20.316,41.218-37.471,60.447-57.422,7.281-7.554,20.041-21.8,23.483-31.456,15.117-42.406-47.102-44.575-43.974-4.518h-39.456Z"/><path class="cls-2" d="M555.791,550.423l20.987,37.964,21.965-37.964h49.945c.111,0,1.992,1.449,1.012,1.982l-43.428,64.448,44.913,67.421h-51.942c-5.559-13.356-15.242-24.741-21.486-37.968-1.66-.104-2.51,1.516-3.321,2.673-4.531,6.469-9.018,15.375-13.128,22.048-2.555,4.149-4.419,9.352-7.515,13.247h-50.444l43.981-67.46-43.981-66.391h52.442Z"/></svg>