<?xml version="1.0" encoding="UTF-8"?>
<svg xmlns="http://www.w3.org/2000/svg" xmlns:xlink="http://www.w3.org/1999/xlink" width="100px" height="100px" viewBox="0 0 100 100" version="1.1">
<defs>
<clipPath id="clip1">
  <path d="M 9.328125 9.328125 L 90.671875 9.328125 L 90.671875 90.671875 L 9.328125 90.671875 Z M 9.328125 9.328125 "/>
</clipPath>
</defs>
<g id="surface1">
<g clip-path="url(#clip1)" clip-rule="nonzero">
<path style=" stroke:none;fill-rule:nonzero;fill:rgb(6.27451%,32.549021%,47.450981%);fill-opacity:1;" d="M 9.328125 50 C 9.328125 27.539062 27.539062 9.328125 50 9.328125 C 72.460938 9.328125 90.671875 27.539062 90.671875 50 C 90.671875 72.460938 72.460938 90.671875 50 90.671875 C 27.539062 90.671875 9.328125 72.460938 9.328125 50 "/>
</g>
<path style=" stroke:none;fill-rule:nonzero;fill:rgb(58.823532%,85.490197%,94.509804%);fill-opacity:1;" d="M 13.722656 50 C 13.722656 29.964844 29.964844 13.722656 50 13.722656 C 70.035156 13.722656 86.277344 29.964844 86.277344 50 C 86.277344 70.035156 70.035156 86.277344 50 86.277344 C 29.964844 86.277344 13.722656 70.035156 13.722656 50 "/>
<path style=" stroke:none;fill-rule:nonzero;fill:rgb(6.27451%,32.549021%,47.450981%);fill-opacity:1;" d="M 17.546875 50 C 17.546875 32.078125 32.078125 17.546875 50 17.546875 C 67.921875 17.546875 82.453125 32.078125 82.453125 50 C 82.453125 67.921875 67.921875 82.453125 50 82.453125 C 32.078125 82.453125 17.546875 67.921875 17.546875 50 "/>
<path style=" stroke:none;fill-rule:nonzero;fill:rgb(58.823532%,85.09804%,94.117647%);fill-opacity:1;" d="M 54.730469 57.453125 C 54.6875 57.28125 54.804688 57.253906 54.882812 57.152344 C 55.320312 56.582031 55.980469 55.90625 56.480469 55.355469 C 61.429688 49.886719 66.445312 44.476562 71.363281 38.976562 L 71.414062 38.675781 C 69.128906 37.953125 66.996094 37.40625 64.570312 37.675781 C 63.777344 37.765625 60.132812 38.566406 59.78125 39.179688 L 54.339844 57.210938 L 54.183594 57.453125 L 52.335938 57.453125 L 57.535156 38.640625 C 57.515625 38.550781 56.578125 38.210938 56.40625 38.148438 C 52.660156 36.820312 47.34375 36.773438 43.621094 38.199219 C 43.347656 38.304688 42.574219 38.53125 42.542969 38.824219 L 47.839844 57.453125 L 45.992188 57.453125 C 45.65625 56.792969 45.445312 56.039062 45.214844 55.332031 C 43.480469 49.949219 41.964844 44.484375 40.292969 39.078125 C 40.003906 38.578125 36.585938 37.777344 35.890625 37.6875 C 33.332031 37.355469 30.972656 37.890625 28.5625 38.675781 L 28.609375 38.976562 C 33.878906 44.820312 39.367188 50.476562 44.59375 56.355469 C 44.800781 56.585938 45.113281 56.921875 45.292969 57.152344 C 45.371094 57.253906 45.484375 57.28125 45.441406 57.453125 L 43.09375 57.453125 C 37.8125 51.496094 32.210938 45.816406 26.910156 39.875 C 26.769531 39.71875 25.980469 38.828125 25.984375 38.746094 C 27.554688 32.492188 31.425781 26.898438 36.960938 23.550781 C 49.648438 15.871094 66.472656 20.558594 72.53125 34.210938 C 72.988281 35.246094 73.859375 37.386719 73.984375 38.453125 C 74.007812 38.65625 74.066406 38.859375 73.914062 39.03125 C 68.257812 45.132812 62.644531 51.269531 57.078125 57.453125 Z M 54.730469 57.453125 "/>
<path style=" stroke:none;fill-rule:nonzero;fill:rgb(58.823532%,85.09804%,94.117647%);fill-opacity:1;" d="M 44.542969 64.148438 L 56.53125 64.148438 L 56.53125 74.535156 L 44.542969 74.535156 Z M 44.542969 64.148438 "/>
<path style=" stroke:none;fill-rule:nonzero;fill:rgb(58.823532%,85.09804%,94.117647%);fill-opacity:1;" d="M 44.542969 58.546875 L 56.53125 58.546875 L 56.53125 62.949219 L 44.542969 62.949219 Z M 44.542969 58.546875 "/>
<path style=" stroke:none;fill-rule:nonzero;fill:rgb(58.823532%,85.09804%,94.117647%);fill-opacity:1;" d="M 39.949219 64.148438 L 43.246094 64.148438 L 43.246094 74.535156 L 39.949219 74.535156 Z M 39.949219 64.148438 "/>
<path style=" stroke:none;fill-rule:nonzero;fill:rgb(58.823532%,85.09804%,94.117647%);fill-opacity:1;" d="M 57.828125 64.148438 L 60.226562 64.148438 L 60.226562 74.535156 L 57.828125 74.535156 Z M 57.828125 64.148438 "/>
<path style=" stroke:none;fill-rule:nonzero;fill:rgb(58.823532%,85.09804%,94.117647%);fill-opacity:1;" d="M 38.851562 58.554688 L 43.246094 58.554688 L 43.246094 62.949219 L 38.851562 62.949219 Z M 38.851562 58.554688 "/>
<path style=" stroke:none;fill-rule:nonzero;fill:rgb(58.823532%,85.09804%,94.117647%);fill-opacity:1;" d="M 57.828125 58.554688 L 61.125 58.554688 L 61.125 62.949219 L 57.828125 62.949219 Z M 57.828125 58.554688 "/>
</g>
</svg>
