<?xml version="1.0" encoding="UTF-8"?>
<svg xmlns="http://www.w3.org/2000/svg" xmlns:xlink="http://www.w3.org/1999/xlink" width="100px" height="100px" viewBox="0 0 100 100" version="1.1">
<defs>
<clipPath id="clip1">
  <path d="M 9.328125 9.328125 L 90.671875 9.328125 L 90.671875 90.671875 L 9.328125 90.671875 Z M 9.328125 9.328125 "/>
</clipPath>
</defs>
<g id="surface1">
<g clip-path="url(#clip1)" clip-rule="nonzero">
<path style=" stroke:none;fill-rule:nonzero;fill:rgb(6.27451%,32.549021%,47.450981%);fill-opacity:1;" d="M 9.328125 50 C 9.328125 27.539062 27.539062 9.328125 50 9.328125 C 72.460938 9.328125 90.671875 27.539062 90.671875 50 C 90.671875 72.460938 72.460938 90.671875 50 90.671875 C 27.539062 90.671875 9.328125 72.460938 9.328125 50 "/>
</g>
<path style=" stroke:none;fill-rule:nonzero;fill:rgb(58.823532%,85.490197%,94.509804%);fill-opacity:1;" d="M 13.722656 50 C 13.722656 29.964844 29.964844 13.722656 50 13.722656 C 70.035156 13.722656 86.277344 29.964844 86.277344 50 C 86.277344 70.035156 70.035156 86.277344 50 86.277344 C 29.964844 86.277344 13.722656 70.035156 13.722656 50 "/>
<path style=" stroke:none;fill-rule:nonzero;fill:rgb(6.27451%,32.549021%,47.450981%);fill-opacity:1;" d="M 17.546875 50 C 17.546875 32.078125 32.078125 17.546875 50 17.546875 C 67.921875 17.546875 82.453125 32.078125 82.453125 50 C 82.453125 67.921875 67.921875 82.453125 50 82.453125 C 32.078125 82.453125 17.546875 67.921875 17.546875 50 "/>
<path style=" stroke:none;fill-rule:nonzero;fill:rgb(58.039218%,84.705883%,93.725491%);fill-opacity:1;" d="M 61.996094 23.929688 C 65.738281 26.898438 68.660156 31.597656 69.675781 36.277344 C 69.914062 37.371094 69.769531 37.648438 68.972656 38.375 C 65.65625 41.386719 61.351562 43.839844 57.984375 46.863281 C 57.75 47.042969 56.886719 47.734375 56.671875 47.746094 C 56.367188 47.761719 55.585938 46.886719 55.757812 46.585938 L 68.023438 37.027344 C 67.101562 36.140625 65.863281 35.40625 64.695312 34.863281 C 62.96875 34.058594 60.945312 33.445312 59.035156 33.53125 L 52.726562 46.503906 C 52.40625 47.035156 51.101562 46.828125 51.296875 46.078125 C 52.910156 42.558594 54.695312 39.117188 56.308594 35.601562 C 56.609375 34.949219 57.21875 33.804688 57.390625 33.183594 C 57.421875 33.066406 57.488281 32.917969 57.421875 32.800781 C 57.375 32.726562 56.144531 32.039062 55.941406 31.933594 C 52.320312 29.988281 47.480469 29.136719 43.5 30.28125 C 43.457031 34.214844 43.398438 38.183594 43.449219 42.125 C 43.460938 42.980469 43.652344 43.929688 43.554688 44.820312 C 43.414062 46.070312 41.941406 45.625 41.851562 44.925781 C 42.019531 40.695312 41.675781 36.441406 41.75 32.230469 C 41.761719 31.519531 42.230469 30.328125 41.28125 30.113281 C 38.824219 29.558594 35.695312 29.722656 33.339844 30.609375 C 32.964844 30.75 31.925781 31.0625 32.105469 31.488281 C 34.769531 35.703125 37.414062 39.917969 40.015625 44.167969 C 40.199219 44.78125 39.179688 45.554688 38.671875 45.003906 C 37.996094 44.273438 37.148438 42.46875 36.558594 41.546875 C 34.671875 38.597656 32.203125 35.089844 30.585938 32.015625 C 29.972656 30.839844 30.179688 30.765625 30.824219 29.695312 C 37.183594 19.125 52.242188 16.199219 61.996094 23.929688 Z M 61.996094 23.929688 "/>
<path style=" stroke:none;fill-rule:nonzero;fill:rgb(58.039218%,84.705883%,93.725491%);fill-opacity:1;" d="M 40.757812 50.0625 C 42.894531 49.652344 45.054688 48.71875 47.253906 49.210938 C 48.972656 49.597656 50.492188 50.726562 52.183594 51.167969 C 52.761719 50.300781 53.074219 47.457031 54.304688 47.371094 C 55.234375 47.304688 55.933594 48.09375 55.839844 49.015625 C 55.765625 49.761719 54.574219 53.289062 54.195312 53.960938 C 53.851562 54.574219 53.554688 54.808594 52.804688 54.75 C 52.117188 54.695312 50.078125 53.683594 49.644531 53.90625 C 49.351562 54.054688 47.90625 58.285156 47.640625 58.90625 L 47.660156 59.042969 C 47.769531 59.210938 50.890625 60.246094 51.410156 60.535156 C 52.015625 60.867188 52.199219 61.128906 52.332031 61.8125 C 52.636719 63.394531 52.578125 65.441406 52.742188 67.09375 C 52.765625 67.304688 52.882812 68.5 52.945312 68.542969 C 53.519531 68.425781 53.976562 68.046875 54.589844 68.035156 C 55.449219 68.019531 55.957031 68.714844 55.695312 69.546875 C 55.488281 70.199219 53.292969 71.292969 52.632812 71.578125 C 51.90625 71.890625 50.90625 72.332031 50.222656 71.742188 C 49.589844 71.195312 49.554688 68.597656 49.433594 67.707031 C 49.242188 66.351562 49.050781 64.992188 48.796875 63.648438 L 43.792969 62.054688 L 43.566406 62.210938 C 42.773438 63.59375 42.101562 66.414062 40.28125 66.722656 C 39.414062 66.867188 38.5625 66.601562 37.707031 66.546875 C 36.585938 66.472656 35.453125 66.488281 34.328125 66.339844 C 34.144531 66.386719 33.789062 68.652344 32.320312 68.4375 C 31.652344 68.335938 31.363281 67.648438 31.410156 67.039062 C 31.453125 66.527344 32.097656 63.738281 32.324219 63.355469 C 32.578125 62.929688 32.957031 62.878906 33.410156 62.84375 C 34.320312 62.78125 35.222656 62.921875 36.113281 62.949219 C 36.996094 62.976562 37.875 62.902344 38.75 63.042969 L 42.554688 52.660156 C 41.726562 52.71875 40.808594 52.992188 39.988281 53.023438 C 39.652344 53.035156 38.632812 53 38.332031 52.9375 C 37.574219 52.785156 37.253906 51.917969 37.367188 51.222656 C 38.023438 49.714844 38.359375 47.976562 39.039062 46.5 C 39.378906 45.761719 39.679688 45.269531 40.609375 45.367188 C 42.929688 45.609375 40.953125 48.855469 40.757812 50.0625 Z M 40.757812 50.0625 "/>
<path style=" stroke:none;fill-rule:nonzero;fill:rgb(58.039218%,84.705883%,93.725491%);fill-opacity:1;" d="M 51.011719 45.078125 C 51.011719 43.335938 49.597656 41.921875 47.855469 41.921875 C 46.113281 41.921875 44.703125 43.335938 44.703125 45.078125 C 44.703125 46.820312 46.113281 48.230469 47.855469 48.230469 C 49.597656 48.230469 51.011719 46.820312 51.011719 45.078125 Z M 51.011719 45.078125 "/>
</g>
</svg>
