<?xml version="1.0" encoding="UTF-8"?>
<svg xmlns="http://www.w3.org/2000/svg" xmlns:xlink="http://www.w3.org/1999/xlink" width="100px" height="100px" viewBox="0 0 100 100" version="1.1">
<defs>
<clipPath id="clip1">
  <path d="M 9.328125 9.328125 L 90.671875 9.328125 L 90.671875 90.671875 L 9.328125 90.671875 Z M 9.328125 9.328125 "/>
</clipPath>
</defs>
<g id="surface1">
<g clip-path="url(#clip1)" clip-rule="nonzero">
<path style=" stroke:none;fill-rule:nonzero;fill:rgb(6.27451%,32.549021%,47.450981%);fill-opacity:1;" d="M 9.328125 50 C 9.328125 27.539062 27.539062 9.328125 50 9.328125 C 72.460938 9.328125 90.671875 27.539062 90.671875 50 C 90.671875 72.460938 72.460938 90.671875 50 90.671875 C 27.539062 90.671875 9.328125 72.460938 9.328125 50 "/>
</g>
<path style=" stroke:none;fill-rule:nonzero;fill:rgb(58.823532%,85.490197%,94.509804%);fill-opacity:1;" d="M 13.722656 50 C 13.722656 29.964844 29.964844 13.722656 50 13.722656 C 70.035156 13.722656 86.277344 29.964844 86.277344 50 C 86.277344 70.035156 70.035156 86.277344 50 86.277344 C 29.964844 86.277344 13.722656 70.035156 13.722656 50 "/>
<path style=" stroke:none;fill-rule:nonzero;fill:rgb(6.27451%,32.549021%,47.450981%);fill-opacity:1;" d="M 17.546875 50 C 17.546875 32.078125 32.078125 17.546875 50 17.546875 C 67.921875 17.546875 82.453125 32.078125 82.453125 50 C 82.453125 67.921875 67.921875 82.453125 50 82.453125 C 32.078125 82.453125 17.546875 67.921875 17.546875 50 "/>
<path style=" stroke:none;fill-rule:nonzero;fill:rgb(58.431375%,85.09804%,94.117647%);fill-opacity:1;" d="M 38.199219 30.277344 C 38.519531 30.222656 38.851562 30.261719 39.175781 30.25 C 50.8125 32.125 62.5 33.800781 74.089844 35.890625 C 74.875 36.367188 75.273438 37.101562 75.386719 38 C 72.425781 47.933594 69.144531 57.785156 65.996094 67.664062 C 64.800781 70.554688 62.835938 69.753906 60.378906 69.277344 C 49.066406 67.097656 37.851562 64.355469 26.535156 62.167969 C 25.320312 61.992188 24.425781 61.050781 24.648438 59.78125 C 27.386719 52.730469 30.507812 45.804688 33.476562 38.839844 C 34.410156 36.648438 35.261719 34.070312 36.308594 31.980469 C 36.707031 31.183594 37.242188 30.4375 38.195312 30.277344 Z M 40.496094 33.472656 C 39.828125 33.5625 39.050781 34.113281 38.742188 34.714844 L 29.355469 56.796875 C 28.730469 58.316406 29.085938 59.441406 30.726562 59.875 L 61.0625 65.703125 C 61.886719 65.746094 62.886719 65.277344 63.277344 64.542969 C 66.097656 56.535156 68.621094 48.386719 71.175781 40.28125 C 71.265625 38.765625 70.578125 38.257812 69.210938 37.972656 C 60.023438 36.730469 50.917969 34.847656 41.742188 33.578125 C 41.335938 33.523438 40.898438 33.421875 40.496094 33.472656 Z M 40.496094 33.472656 "/>
<path style=" stroke:none;fill-rule:nonzero;fill:rgb(6.27451%,32.549021%,47.450981%);fill-opacity:1;" d="M 40.496094 33.472656 C 40.898438 33.421875 41.335938 33.523438 41.742188 33.578125 C 50.917969 34.847656 60.023438 36.730469 69.210938 37.972656 C 70.578125 38.257812 71.265625 38.765625 71.175781 40.28125 C 68.621094 48.386719 66.097656 56.535156 63.277344 64.542969 C 62.886719 65.277344 61.886719 65.746094 61.0625 65.703125 L 30.726562 59.875 C 29.085938 59.441406 28.730469 58.316406 29.355469 56.796875 L 38.742188 34.714844 C 39.050781 34.117188 39.828125 33.5625 40.496094 33.472656 Z M 40.292969 33.972656 C 40.109375 34.011719 39.613281 34.3125 39.472656 34.449219 C 38.941406 34.960938 37.46875 38.753906 37.050781 39.71875 C 34.519531 45.601562 32.136719 51.546875 29.578125 57.417969 C 29.308594 58.53125 29.859375 59.230469 30.910156 59.492188 L 60.574219 65.1875 C 61.53125 65.300781 62.230469 65.207031 62.839844 64.410156 C 65.25 57.4375 67.644531 50.382812 69.816406 43.316406 C 70.054688 42.535156 70.804688 40.492188 70.761719 39.816406 C 70.726562 39.21875 70.179688 38.613281 69.613281 38.46875 C 67.546875 37.9375 64.753906 37.769531 62.574219 37.417969 C 55.746094 36.316406 48.894531 34.976562 42.039062 34.078125 C 41.5 34.007812 40.820312 33.863281 40.292969 33.972656 Z M 40.292969 33.972656 "/>
<path style=" stroke:none;fill-rule:nonzero;fill:rgb(58.431375%,85.09804%,94.117647%);fill-opacity:1;" d="M 40.292969 33.972656 C 40.820312 33.863281 41.5 34.007812 42.039062 34.078125 C 48.894531 34.976562 55.746094 36.316406 62.574219 37.417969 C 64.753906 37.769531 67.546875 37.9375 69.613281 38.46875 C 70.179688 38.613281 70.726562 39.21875 70.761719 39.816406 C 70.804688 40.492188 70.054688 42.535156 69.816406 43.316406 C 67.644531 50.382812 65.25 57.4375 62.839844 64.410156 C 62.230469 65.207031 61.53125 65.300781 60.574219 65.1875 L 30.910156 59.492188 C 29.859375 59.230469 29.308594 58.53125 29.582031 57.417969 C 32.136719 51.546875 34.519531 45.601562 37.050781 39.71875 C 37.46875 38.753906 38.941406 34.960938 39.472656 34.449219 C 39.613281 34.3125 40.109375 34.011719 40.292969 33.972656 Z M 53.316406 44.148438 C 54.058594 44.023438 54.84375 44.550781 55.394531 44.996094 C 57.292969 46.527344 57.324219 48.414062 55.988281 50.363281 C 55.707031 50.773438 54.496094 51.882812 54.496094 52.179688 C 54.492188 53.28125 56.097656 52.128906 56.457031 51.832031 C 58.082031 50.472656 59.269531 48.1875 58.734375 46.050781 C 58.183594 43.847656 56.589844 43.121094 55.40625 41.488281 C 54.78125 40.625 54.097656 38.339844 52.902344 40.085938 L 49.199219 51.21875 C 49.015625 51.335938 47.191406 50.6875 46.753906 50.640625 C 44.570312 50.410156 40.910156 51.304688 40.722656 53.976562 C 40.4375 57.976562 48.394531 58.058594 49.886719 54.550781 Z M 53.316406 44.148438 "/>
</g>
</svg>
