<?xml version="1.0" encoding="UTF-8"?>
<svg xmlns="http://www.w3.org/2000/svg" xmlns:xlink="http://www.w3.org/1999/xlink" width="100px" height="100px" viewBox="0 0 100 100" version="1.1">
<g id="surface1">
<path style=" stroke:none;fill-rule:nonzero;fill:rgb(6.27451%,32.549021%,47.450981%);fill-opacity:1;" d="M 9.328125 50 C 9.328125 27.539062 27.539062 9.328125 50 9.328125 C 72.460938 9.328125 90.671875 27.539062 90.671875 50 C 90.671875 72.460938 72.460938 90.671875 50 90.671875 C 27.539062 90.671875 9.328125 72.460938 9.328125 50 "/>
<path style=" stroke:none;fill-rule:nonzero;fill:rgb(58.039218%,84.705883%,93.725491%);fill-opacity:1;" d="M 46.105469 33.222656 C 45.929688 33.417969 46.636719 33.667969 46.738281 33.738281 C 48.269531 34.835938 48.898438 35.953125 49.820312 37.550781 C 50.316406 38.414062 50.746094 39.332031 51.203125 40.214844 C 51.316406 40.304688 51.617188 39.957031 51.703125 39.867188 C 51.96875 39.582031 52.292969 39.132812 52.539062 38.808594 C 53.035156 38.15625 54.914062 34.945312 55.296875 34.773438 C 55.921875 34.492188 56.835938 34.773438 57.238281 35.328125 C 57.875 36.214844 57.601562 37.03125 57.132812 37.90625 C 56.085938 39.859375 54.308594 42.414062 53.039062 44.300781 C 52.304688 45.398438 51.605469 46.488281 50.152344 45.507812 L 46.65625 41.714844 L 43.476562 48.726562 L 43.402344 49.054688 L 43.511719 49.253906 L 51.664062 55.734375 C 52.808594 56.835938 53.015625 58.109375 51.894531 59.339844 L 43.359375 68.285156 L 43.304688 68.628906 C 43.449219 70.457031 44.160156 72.53125 44.210938 74.332031 C 44.242188 75.472656 43.523438 75.542969 42.804688 74.828125 C 41.652344 73.683594 39.820312 71.367188 38.816406 70.03125 C 38.605469 69.746094 38.207031 69.300781 38.21875 68.945312 C 38.242188 68.1875 39.242188 67.757812 39.714844 67.335938 C 41.1875 66.019531 42.648438 63.628906 43.867188 62 C 44.167969 61.597656 46.777344 58.425781 46.605469 58.195312 L 39.554688 54.996094 L 39.210938 55.144531 C 38.621094 56.007812 37.972656 56.839844 37.3125 57.644531 C 36.109375 59.105469 34.507812 61.25 33.171875 62.492188 C 30.667969 64.824219 27.34375 66.773438 24.78125 69.085938 C 23.144531 70.566406 22.886719 71.636719 22.507812 73.703125 C 22.171875 75.546875 21.070312 73.695312 20.71875 72.945312 C 20.316406 72.09375 19.59375 69.605469 19.851562 68.753906 C 19.984375 68.324219 22.453125 67.292969 22.980469 66.886719 C 23.84375 66.21875 25.242188 63.917969 26.226562 62.941406 C 27.203125 61.972656 28.390625 61.335938 29.375 60.492188 C 29.890625 60.050781 31.507812 55.929688 31.871094 54.996094 C 32.671875 52.9375 32.699219 51.824219 33.164062 49.800781 C 33.496094 48.351562 34.285156 46.648438 34.75 45.191406 C 35.3125 43.414062 36.691406 39.886719 36.90625 38.257812 C 36.925781 38.113281 36.917969 37.964844 36.914062 37.816406 C 35.203125 38.015625 33.449219 38.046875 31.765625 38.3125 C 31.65625 38.992188 31.753906 39.6875 31.726562 40.367188 C 31.671875 41.613281 31.464844 43.015625 31.617188 44.261719 C 31.671875 44.6875 32.023438 45.097656 32.097656 45.480469 C 32.421875 47.214844 30.515625 48.453125 29.03125 47.449219 C 27.984375 46.742188 28.367188 44.796875 28.328125 43.65625 C 28.257812 41.546875 27.917969 37.863281 28.347656 35.894531 C 28.589844 34.800781 30.246094 34.816406 31.144531 34.59375 C 33.769531 33.9375 36.660156 33.027344 39.289062 32.546875 C 40.683594 32.292969 41.566406 32.589844 42.871094 32.613281 C 43.902344 32.632812 42.773438 31.964844 42.511719 31.671875 C 41.007812 30 41.28125 27.203125 43.007812 25.78125 C 46.847656 22.613281 51.984375 27.074219 49.382812 31.257812 C 48.722656 32.316406 47.34375 33.09375 46.105469 33.222656 Z M 46.105469 33.222656 "/>
<path style=" stroke:none;fill-rule:nonzero;fill:rgb(58.039218%,84.705883%,93.725491%);fill-opacity:1;" d="M 65.464844 41.644531 C 72.859375 41.070312 79.679688 46.679688 80.167969 54.152344 C 81.039062 67.503906 65.234375 74.421875 56.292969 64.640625 C 55.53125 63.808594 53.796875 61.378906 53.617188 60.316406 C 53.53125 59.824219 54 59.417969 54.148438 58.898438 C 54.507812 57.636719 54.417969 56.308594 53.59375 55.25 C 53.308594 54.882812 52.824219 54.671875 52.792969 54.148438 C 52.71875 52.980469 53.417969 50.855469 53.910156 49.769531 C 55.960938 45.261719 60.492188 42.027344 65.464844 41.644531 Z M 77.082031 55.425781 C 77.082031 49.5625 72.328125 44.808594 66.464844 44.808594 C 60.601562 44.808594 55.847656 49.5625 55.847656 55.425781 C 55.847656 61.289062 60.601562 66.039062 66.464844 66.039062 C 72.328125 66.039062 77.082031 61.289062 77.082031 55.425781 Z M 77.082031 55.425781 "/>
<path style=" stroke:none;fill-rule:nonzero;fill:rgb(58.823532%,85.490197%,94.509804%);fill-opacity:1;" d="M 48.410156 13.757812 C 27.609375 14.679688 11.785156 33.019531 13.914062 53.730469 C 14.394531 58.414062 15.757812 62.8125 17.820312 66.765625 C 17.886719 66.894531 18.035156 66.957031 18.171875 66.917969 L 21.34375 66.019531 C 21.53125 65.964844 21.617188 65.75 21.523438 65.582031 C 19.453125 61.800781 18.105469 57.550781 17.6875 53.003906 C 15.96875 34.441406 30.339844 18.167969 48.96875 17.5625 C 66.371094 17 81.214844 30.335938 82.378906 47.839844 C 83.574219 65.722656 70.042969 81.1875 52.160156 82.378906 C 41.972656 83.058594 32.574219 78.960938 26.144531 72.003906 C 26.019531 71.867188 25.800781 71.875 25.683594 72.019531 L 23.671875 74.578125 C 23.578125 74.699219 23.585938 74.867188 23.691406 74.976562 C 30.863281 82.523438 41.214844 86.945312 52.414062 86.195312 C 72.40625 84.863281 87.53125 67.578125 86.195312 47.585938 C 84.882812 27.871094 68.050781 12.886719 48.410156 13.757812 Z M 48.410156 13.757812 "/>
</g>
</svg>
