<?xml version="1.0" encoding="UTF-8"?>
<svg xmlns="http://www.w3.org/2000/svg" xmlns:xlink="http://www.w3.org/1999/xlink" width="100px" height="100px" viewBox="0 0 100 100" version="1.1">
<defs>
<clipPath id="clip1">
  <path d="M 9.328125 9.328125 L 90.671875 9.328125 L 90.671875 90.671875 L 9.328125 90.671875 Z M 9.328125 9.328125 "/>
</clipPath>
</defs>
<g id="surface1">
<g clip-path="url(#clip1)" clip-rule="nonzero">
<path style=" stroke:none;fill-rule:nonzero;fill:rgb(6.27451%,32.549021%,47.450981%);fill-opacity:1;" d="M 9.328125 50 C 9.328125 27.539062 27.539062 9.328125 50 9.328125 C 72.460938 9.328125 90.671875 27.539062 90.671875 50 C 90.671875 72.460938 72.460938 90.671875 50 90.671875 C 27.539062 90.671875 9.328125 72.460938 9.328125 50 "/>
</g>
<path style=" stroke:none;fill-rule:nonzero;fill:rgb(58.823532%,85.490197%,94.509804%);fill-opacity:1;" d="M 13.722656 50 C 13.722656 29.964844 29.964844 13.722656 50 13.722656 C 70.035156 13.722656 86.277344 29.964844 86.277344 50 C 86.277344 70.035156 70.035156 86.277344 50 86.277344 C 29.964844 86.277344 13.722656 70.035156 13.722656 50 "/>
<path style=" stroke:none;fill-rule:nonzero;fill:rgb(6.27451%,32.549021%,47.450981%);fill-opacity:1;" d="M 17.546875 50 C 17.546875 32.078125 32.078125 17.546875 50 17.546875 C 67.921875 17.546875 82.453125 32.078125 82.453125 50 C 82.453125 67.921875 67.921875 82.453125 50 82.453125 C 32.078125 82.453125 17.546875 67.921875 17.546875 50 "/>
<path style=" stroke:none;fill-rule:nonzero;fill:rgb(58.039218%,84.705883%,93.725491%);fill-opacity:1;" d="M 61.929688 28.585938 C 62.632812 28.460938 65.972656 28.457031 66.695312 28.570312 C 67.121094 28.636719 67.320312 28.96875 67.230469 29.386719 C 58.09375 43.648438 48.773438 57.789062 39.433594 71.917969 C 39.222656 72.128906 38.933594 72.289062 38.632812 72.316406 L 33.386719 72.265625 C 33.308594 72.214844 33.222656 72.136719 33.199219 72.042969 C 33.136719 71.789062 34.273438 70.144531 34.503906 69.785156 C 43.179688 56.238281 52.363281 43.007812 60.933594 29.390625 C 61.195312 29.050781 61.480469 28.667969 61.929688 28.585938 Z M 61.929688 28.585938 "/>
<path style=" stroke:none;fill-rule:nonzero;fill:rgb(58.039218%,84.705883%,93.725491%);fill-opacity:1;" d="M 32.222656 30.195312 C 36.515625 26.019531 43.46875 27.148438 46.390625 32.292969 C 50.519531 39.566406 44.402344 48.804688 36.0625 46.515625 C 29.03125 44.585938 27.140625 35.144531 32.222656 30.195312 Z M 38.648438 32.796875 C 32.761719 32.753906 33.757812 43.070312 39.5 41.621094 C 43.710938 40.554688 43.273438 32.832031 38.648438 32.796875 Z M 38.648438 32.796875 "/>
<path style=" stroke:none;fill-rule:nonzero;fill:rgb(58.039218%,84.705883%,93.725491%);fill-opacity:1;" d="M 67.585938 69.855469 C 62.238281 74.824219 54.285156 71.957031 52.714844 65.023438 C 51.265625 58.632812 56.148438 52.34375 62.878906 53.363281 C 70.71875 54.550781 73.246094 64.597656 67.585938 69.855469 Z M 61.03125 58.257812 C 56.523438 58.867188 56.628906 66.617188 60.933594 67.195312 C 66.902344 68 66.824219 57.472656 61.03125 58.257812 Z M 61.03125 58.257812 "/>
</g>
</svg>
