<?xml version="1.0" encoding="UTF-8"?>
<svg xmlns="http://www.w3.org/2000/svg" xmlns:xlink="http://www.w3.org/1999/xlink" width="100px" height="100px" viewBox="0 0 100 100" version="1.1">
<defs>
<clipPath id="clip1">
  <path d="M 9.328125 9.328125 L 90.671875 9.328125 L 90.671875 90.671875 L 9.328125 90.671875 Z M 9.328125 9.328125 "/>
</clipPath>
</defs>
<g id="surface1">
<g clip-path="url(#clip1)" clip-rule="nonzero">
<path style=" stroke:none;fill-rule:nonzero;fill:rgb(6.27451%,32.549021%,47.450981%);fill-opacity:1;" d="M 9.328125 50 C 9.328125 27.539062 27.539062 9.328125 50 9.328125 C 72.460938 9.328125 90.671875 27.539062 90.671875 50 C 90.671875 72.460938 72.460938 90.671875 50 90.671875 C 27.539062 90.671875 9.328125 72.460938 9.328125 50 "/>
</g>
<path style=" stroke:none;fill-rule:nonzero;fill:rgb(58.823532%,85.490197%,94.509804%);fill-opacity:1;" d="M 13.722656 50 C 13.722656 29.964844 29.964844 13.722656 50 13.722656 C 70.035156 13.722656 86.277344 29.964844 86.277344 50 C 86.277344 70.035156 70.035156 86.277344 50 86.277344 C 29.964844 86.277344 13.722656 70.035156 13.722656 50 "/>
<path style=" stroke:none;fill-rule:nonzero;fill:rgb(6.27451%,32.549021%,47.450981%);fill-opacity:1;" d="M 17.546875 50 C 17.546875 32.078125 32.078125 17.546875 50 17.546875 C 67.921875 17.546875 82.453125 32.078125 82.453125 50 C 82.453125 67.921875 67.921875 82.453125 50 82.453125 C 32.078125 82.453125 17.546875 67.921875 17.546875 50 "/>
<path style=" stroke:none;fill-rule:nonzero;fill:rgb(58.431375%,85.09804%,94.117647%);fill-opacity:1;" d="M 42.644531 26.539062 C 45.800781 25.230469 49.1875 24.855469 52.550781 25.570312 C 55.585938 26.214844 58.070312 28.105469 61.183594 28.523438 C 63.738281 28.863281 66.273438 28.324219 68.613281 27.335938 L 68.613281 44.066406 C 65.925781 46.078125 62.527344 46.402344 59.304688 45.683594 C 54.734375 44.667969 50.957031 41.347656 45.957031 42.386719 C 45.335938 42.515625 42.9375 43.386719 42.695312 43.917969 L 42.632812 65.4375 C 42.097656 67.683594 38.75 67.476562 38.542969 65.148438 L 38.546875 24.789062 C 38.8125 22.945312 41.171875 22.300781 42.285156 23.847656 C 42.367188 23.964844 42.644531 24.398438 42.644531 24.488281 Z M 42.644531 26.539062 "/>
<path style=" stroke:none;fill-rule:nonzero;fill:rgb(58.431375%,85.09804%,94.117647%);fill-opacity:1;" d="M 36.25 58.300781 L 36.25 61.699219 C 33.363281 63.046875 31.335938 65.515625 34.351562 68.144531 C 40.296875 73.328125 56.4375 73.007812 63.1875 69.507812 C 68.988281 66.5 66.71875 62.996094 61.746094 61.125 C 57.390625 59.484375 51.921875 59.128906 47.285156 59.296875 C 46.765625 59.316406 45.167969 59.601562 44.804688 59.484375 C 44.75 59.46875 44.640625 59.386719 44.640625 59.351562 L 44.640625 56.40625 C 48.503906 55.902344 52.597656 56.003906 56.464844 56.519531 C 61.285156 57.160156 70.753906 59.578125 71.308594 65.546875 C 72.070312 73.699219 58.492188 76.707031 52.488281 76.984375 C 45.957031 77.285156 33.328125 75.667969 29.640625 69.457031 C 26.453125 64.085938 31.664062 59.964844 36.25 58.300781 Z M 36.25 58.300781 "/>
</g>
</svg>
