<?xml version="1.0" encoding="UTF-8"?>
<svg xmlns="http://www.w3.org/2000/svg" xmlns:xlink="http://www.w3.org/1999/xlink" width="100px" height="100px" viewBox="0 0 100 100" version="1.1">
<defs>
<clipPath id="clip1">
  <path d="M 9.328125 9.328125 L 90.671875 9.328125 L 90.671875 90.671875 L 9.328125 90.671875 Z M 9.328125 9.328125 "/>
</clipPath>
</defs>
<g id="surface1">
<g clip-path="url(#clip1)" clip-rule="nonzero">
<path style=" stroke:none;fill-rule:nonzero;fill:rgb(6.27451%,32.549021%,47.450981%);fill-opacity:1;" d="M 9.328125 50 C 9.328125 27.539062 27.539062 9.328125 50 9.328125 C 72.460938 9.328125 90.671875 27.539062 90.671875 50 C 90.671875 72.460938 72.460938 90.671875 50 90.671875 C 27.539062 90.671875 9.328125 72.460938 9.328125 50 "/>
</g>
<path style=" stroke:none;fill-rule:nonzero;fill:rgb(58.823532%,85.490197%,94.509804%);fill-opacity:1;" d="M 13.722656 50 C 13.722656 29.964844 29.964844 13.722656 50 13.722656 C 70.035156 13.722656 86.277344 29.964844 86.277344 50 C 86.277344 70.035156 70.035156 86.277344 50 86.277344 C 29.964844 86.277344 13.722656 70.035156 13.722656 50 "/>
<path style=" stroke:none;fill-rule:nonzero;fill:rgb(6.27451%,32.549021%,47.450981%);fill-opacity:1;" d="M 17.546875 50 C 17.546875 32.078125 32.078125 17.546875 50 17.546875 C 67.921875 17.546875 82.453125 32.078125 82.453125 50 C 82.453125 67.921875 67.921875 82.453125 50 82.453125 C 32.078125 82.453125 17.546875 67.921875 17.546875 50 "/>
<path style=" stroke:none;fill-rule:nonzero;fill:rgb(58.039218%,84.705883%,93.725491%);fill-opacity:1;" d="M 23.851562 39.964844 C 24.074219 39.929688 24.292969 39.921875 24.515625 39.949219 C 25.351562 40.058594 27.566406 42.175781 28.480469 42.78125 C 33.246094 45.917969 39.851562 45.863281 45.40625 45.539062 C 48.453125 45.363281 51.390625 44.261719 53.835938 42.480469 C 54.554688 41.957031 56.378906 40.140625 57.039062 39.992188 C 58.519531 39.65625 59.765625 40.878906 59.390625 42.34375 C 59.144531 43.292969 57.09375 44.933594 56.273438 45.515625 C 53.589844 47.421875 50.375 48.742188 47.121094 49.25 L 46.964844 49.394531 L 46.957031 59.265625 C 48.417969 62.832031 50.179688 66.285156 51.664062 69.839844 C 51.949219 70.527344 52.375 71.4375 52.574219 72.128906 C 53.382812 74.964844 49.933594 76.503906 48.265625 74.136719 L 42.605469 61.21875 C 42.535156 61.105469 42.421875 61.125 42.3125 61.113281 C 41.742188 61.042969 40.074219 61.042969 39.503906 61.113281 C 39.394531 61.125 39.285156 61.113281 39.207031 61.21875 C 37.472656 64.890625 35.996094 68.691406 34.28125 72.375 C 33.621094 73.796875 33.21875 75.273438 31.316406 75.207031 C 30.3125 75.171875 29.222656 74.386719 29.078125 73.347656 C 28.921875 72.195312 29.972656 70.15625 30.453125 69.042969 C 31.847656 65.800781 33.347656 62.589844 34.742188 59.347656 L 34.75 49.394531 L 34.597656 49.25 C 31.839844 48.878906 29.140625 47.824219 26.78125 46.375 C 25.722656 45.726562 23.511719 44.117188 22.835938 43.132812 C 22.109375 42.074219 22.480469 40.195312 23.851562 39.964844 Z M 23.851562 39.964844 "/>
<path style=" stroke:none;fill-rule:nonzero;fill:rgb(58.039218%,84.705883%,93.725491%);fill-opacity:1;" d="M 48.492188 35.960938 C 48.492188 31.761719 45.085938 28.355469 40.886719 28.355469 C 36.6875 28.355469 33.28125 31.761719 33.28125 35.960938 C 33.28125 40.160156 36.6875 43.566406 40.886719 43.566406 C 45.085938 43.566406 48.492188 40.160156 48.492188 35.960938 Z M 48.492188 35.960938 "/>
<path style=" stroke:none;fill-rule:nonzero;fill:rgb(6.27451%,32.549021%,47.450981%);fill-opacity:1;" d="M 67.695312 77.015625 C 66.472656 77.015625 65.40625 76.597656 64.609375 75.808594 C 63.804688 75.007812 63.550781 74.023438 63.875 72.960938 C 64.121094 72.171875 64.648438 71.464844 65.136719 70.878906 C 66.253906 69.527344 68.308594 67.964844 70.367188 67.519531 C 70.664062 67.453125 70.964844 67.429688 71.230469 67.410156 C 71.441406 67.398438 71.695312 67.378906 71.828125 67.339844 C 72.074219 67.175781 72.847656 66.496094 73.363281 66.003906 C 73.492188 65.878906 73.792969 65.589844 73.824219 65.503906 C 73.863281 65.398438 73.808594 64.90625 73.789062 64.742188 C 73.632812 63.363281 72.375 61.710938 71.25 60.90625 C 69.929688 59.96875 68.351562 59.472656 66.691406 59.472656 C 64.234375 59.472656 61.425781 60.683594 60.171875 63.359375 C 61.089844 63.730469 61.792969 64.554688 61.902344 65.503906 C 61.9375 65.8125 61.921875 66.117188 61.910156 66.382812 C 61.902344 66.585938 61.890625 66.773438 61.90625 66.925781 C 62.070312 68.722656 62.519531 70.441406 63.101562 71.527344 C 63.132812 71.582031 63.183594 71.628906 63.277344 71.714844 C 63.996094 72.347656 64.058594 73.074219 63.453125 73.867188 C 62.902344 74.59375 61.410156 75.476562 60.492188 75.621094 C 60.257812 75.660156 60.023438 75.679688 59.796875 75.679688 C 56.476562 75.679688 55.3125 71.882812 54.933594 70.632812 C 54.523438 69.300781 53.902344 66.875 54.308594 65.570312 C 54.578125 64.707031 55.1875 64.195312 55.589844 63.855469 C 55.6875 63.773438 55.820312 63.660156 55.871094 63.605469 C 55.984375 63.359375 56.066406 63.070312 56.160156 62.742188 C 56.316406 62.203125 56.492188 61.59375 56.863281 60.945312 C 58.824219 57.515625 62.503906 55.464844 66.707031 55.464844 C 69.324219 55.464844 71.859375 56.269531 73.84375 57.726562 C 76.050781 59.34375 77.40625 61.617188 77.769531 64.296875 C 77.804688 64.550781 77.792969 64.792969 77.78125 65.011719 C 77.777344 65.089844 77.773438 65.203125 77.773438 65.277344 C 77.789062 65.300781 77.808594 65.328125 77.828125 65.347656 C 78.039062 65.632812 78.398438 66.101562 78.476562 66.816406 C 78.703125 68.835938 77.429688 69.472656 76.585938 69.894531 C 76.289062 70.042969 76.011719 70.179688 75.785156 70.363281 C 75.667969 70.457031 75.597656 70.515625 75.554688 70.558594 C 75.542969 70.707031 75.527344 70.925781 75.460938 71.222656 C 74.816406 74.089844 70.898438 77.015625 67.695312 77.015625 Z M 67.695312 77.015625 "/>
<path style=" stroke:none;fill-rule:nonzero;fill:rgb(58.039218%,84.705883%,93.725491%);fill-opacity:1;" d="M 74.078125 66.671875 C 74.875 65.910156 74.945312 65.773438 74.808594 64.574219 C 74.621094 62.890625 73.207031 61 71.855469 60.039062 C 67.300781 56.796875 60.367188 58.546875 58.839844 64.113281 C 59.75 63.953125 60.828125 64.625 60.933594 65.5625 C 60.984375 66.007812 60.894531 66.511719 60.9375 66.960938 C 61.082031 68.535156 61.492188 70.542969 62.246094 71.945312 C 62.582031 72.570312 63.214844 72.507812 62.683594 73.207031 C 62.285156 73.730469 61.007812 74.476562 60.363281 74.578125 C 57.71875 74.996094 56.539062 72.332031 55.914062 70.285156 C 55.585938 69.210938 54.96875 66.839844 55.289062 65.8125 C 55.589844 64.855469 56.554688 64.492188 56.785156 64.011719 C 57.152344 63.238281 57.21875 62.332031 57.757812 61.386719 C 62.316406 53.414062 75.601562 55.464844 76.804688 64.378906 C 76.855469 64.742188 76.746094 65.234375 76.839844 65.542969 C 76.929688 65.84375 77.433594 66.1875 77.507812 66.871094 C 77.71875 68.738281 76.269531 68.664062 75.1875 69.527344 C 74.375 70.171875 74.695312 70.136719 74.511719 70.949219 C 73.816406 74.054688 68.011719 77.695312 65.339844 75.042969 C 64.140625 73.851562 65.058594 72.515625 65.933594 71.460938 C 67.027344 70.136719 68.910156 68.808594 70.605469 68.441406 C 71.148438 68.324219 71.8125 68.378906 72.261719 68.199219 C 72.566406 68.078125 73.765625 66.96875 74.078125 66.671875 Z M 61.433594 72.804688 C 60.789062 71.210938 60.074219 69.390625 59.9375 67.660156 C 59.894531 67.101562 60.121094 65.691406 59.691406 65.40625 C 59.199219 65.078125 58.882812 65.957031 58.835938 66.363281 C 58.644531 68.054688 59.578125 70.90625 60.683594 72.207031 C 60.761719 72.296875 61.332031 72.917969 61.433594 72.804688 Z M 61.433594 72.804688 "/>
<path style=" stroke:none;fill-rule:nonzero;fill:rgb(58.039218%,84.705883%,93.725491%);fill-opacity:1;" d="M 72.3125 30.460938 C 72.378906 30.558594 72.304688 30.804688 72.230469 30.910156 C 71 32.894531 69.449219 34.699219 68.183594 36.652344 C 67.777344 37.28125 67.558594 37.730469 68.371094 38.152344 L 72.660156 39.332031 C 72.789062 39.40625 72.734375 39.613281 72.675781 39.746094 L 62.785156 42.34375 C 62.371094 42.28125 62.570312 41.625 62.53125 41.292969 C 62.203125 38.4375 61.710938 36.109375 58.261719 37.214844 C 57.753906 37.378906 57.246094 37.949219 56.898438 37.335938 C 56.101562 35.121094 55.117188 32.972656 54.265625 30.777344 C 54.128906 30.429688 53.410156 28.605469 53.4375 28.40625 C 53.480469 28.121094 53.703125 28.09375 53.941406 28.207031 L 58.203125 31.539062 C 58.875 31.832031 59.25 31.636719 59.539062 31.003906 C 60.425781 29.078125 60.726562 26.417969 61.683594 24.457031 C 61.957031 23.902344 62.3125 23.902344 62.582031 24.457031 C 63.578125 26.5 64.007812 29.324219 64.980469 31.253906 C 65.285156 31.859375 65.621094 31.808594 66.253906 31.726562 C 67.980469 31.5 70.160156 30.53125 71.800781 30.371094 C 71.921875 30.359375 72.265625 30.390625 72.3125 30.460938 Z M 72.3125 30.460938 "/>
<path style=" stroke:none;fill-rule:nonzero;fill:rgb(58.039218%,84.705883%,93.725491%);fill-opacity:1;" d="M 64.621094 72.597656 C 64.40625 72.746094 63.972656 72.417969 63.929688 72.148438 C 63.8125 71.386719 64.699219 69.714844 65.148438 69.078125 C 66.402344 67.285156 69.359375 65.359375 71.550781 66.535156 C 72.871094 67.246094 70.695312 67.386719 70.339844 67.476562 C 68.226562 68.019531 66.183594 69.535156 65.113281 71.441406 C 64.984375 71.671875 64.675781 72.5625 64.621094 72.597656 Z M 64.621094 72.597656 "/>
</g>
</svg>
