<?xml version="1.0" encoding="UTF-8"?>
<svg xmlns="http://www.w3.org/2000/svg" xmlns:xlink="http://www.w3.org/1999/xlink" width="100px" height="100px" viewBox="0 0 100 100" version="1.1">
<defs>
<clipPath id="clip1">
  <path d="M 9.328125 9.328125 L 90.671875 9.328125 L 90.671875 90.671875 L 9.328125 90.671875 Z M 9.328125 9.328125 "/>
</clipPath>
</defs>
<g id="surface1">
<g clip-path="url(#clip1)" clip-rule="nonzero">
<path style=" stroke:none;fill-rule:nonzero;fill:rgb(6.27451%,32.549021%,47.450981%);fill-opacity:1;" d="M 9.328125 50 C 9.328125 27.539062 27.539062 9.328125 50 9.328125 C 72.460938 9.328125 90.671875 27.539062 90.671875 50 C 90.671875 72.460938 72.460938 90.671875 50 90.671875 C 27.539062 90.671875 9.328125 72.460938 9.328125 50 "/>
</g>
<path style=" stroke:none;fill-rule:nonzero;fill:rgb(58.823532%,85.490197%,94.509804%);fill-opacity:1;" d="M 13.722656 50 C 13.722656 29.964844 29.964844 13.722656 50 13.722656 C 70.035156 13.722656 86.277344 29.964844 86.277344 50 C 86.277344 70.035156 70.035156 86.277344 50 86.277344 C 29.964844 86.277344 13.722656 70.035156 13.722656 50 "/>
<path style=" stroke:none;fill-rule:nonzero;fill:rgb(6.27451%,32.549021%,47.450981%);fill-opacity:1;" d="M 17.546875 50 C 17.546875 32.078125 32.078125 17.546875 50 17.546875 C 67.921875 17.546875 82.453125 32.078125 82.453125 50 C 82.453125 67.921875 67.921875 82.453125 50 82.453125 C 32.078125 82.453125 17.546875 67.921875 17.546875 50 "/>
<path style=" stroke:none;fill-rule:nonzero;fill:rgb(58.431375%,85.09804%,94.117647%);fill-opacity:1;" d="M 32.4375 49.082031 C 29.960938 48.804688 28.351562 46.734375 28.191406 44.339844 C 27.996094 41.507812 27.992188 37.078125 28.191406 34.246094 C 28.34375 32.023438 29.683594 30.199219 31.867188 29.632812 C 43.65625 29.332031 55.496094 29.59375 67.304688 29.5 C 69.613281 29.691406 71.585938 31.28125 71.832031 33.660156 C 72.210938 37.269531 71.578125 41.464844 71.84375 45.136719 C 71.800781 46.875 69.582031 49.082031 67.898438 49.082031 L 54.363281 49.082031 L 54.363281 42.140625 C 54.363281 41.707031 53.90625 40.542969 53.683594 40.125 C 51.496094 36.058594 45.171875 36.234375 43.292969 40.457031 C 43.140625 40.800781 42.777344 41.8125 42.777344 42.140625 L 42.777344 49.082031 Z M 32.4375 49.082031 "/>
<path style=" stroke:none;fill-rule:nonzero;fill:rgb(58.431375%,85.09804%,94.117647%);fill-opacity:1;" d="M 51.46875 54.875 L 51.96875 54.875 C 51.824219 52.925781 53.261719 51.675781 55.191406 52.003906 C 56.199219 52.175781 57.160156 53.546875 57.160156 54.527344 L 57.160156 56.175781 L 57.5625 56.171875 C 57.316406 54.15625 59.351562 52.726562 61.191406 53.695312 C 62.492188 54.382812 62.585938 55.855469 62.558594 57.171875 C 62.847656 56.855469 62.9375 56.445312 63.214844 56.082031 C 64.558594 54.332031 67.191406 54.972656 67.71875 57.054688 C 68.089844 58.511719 67.953125 63.601562 67.855469 65.320312 C 67.554688 70.472656 63.554688 75.539062 58.480469 76.722656 C 46.664062 79.472656 43.042969 67.210938 37.339844 59.863281 C 35.507812 56.859375 39.394531 53.90625 41.71875 56.484375 L 45.675781 62.367188 L 45.675781 42.539062 C 45.675781 42.359375 46.0625 41.453125 46.191406 41.257812 C 47.816406 38.8125 51.46875 40.296875 51.46875 43.140625 Z M 51.46875 54.875 "/>
</g>
</svg>
