<?xml version="1.0" encoding="UTF-8"?>
<svg xmlns="http://www.w3.org/2000/svg" xmlns:xlink="http://www.w3.org/1999/xlink" width="100px" height="100px" viewBox="0 0 100 100" version="1.1">
<g id="surface1">
<path style=" stroke:none;fill-rule:nonzero;fill:rgb(6.27451%,32.549021%,47.450981%);fill-opacity:1;" d="M 9.179688 50 C 9.179688 27.539062 27.390625 9.328125 49.851562 9.328125 C 72.3125 9.328125 90.523438 27.539062 90.523438 50 C 90.523438 72.460938 72.3125 90.671875 49.851562 90.671875 C 27.390625 90.671875 9.179688 72.460938 9.179688 50 "/>
<path style=" stroke:none;fill-rule:nonzero;fill:rgb(58.431375%,84.705883%,93.725491%);fill-opacity:1;" d="M 62.914062 55.695312 L 60.570312 61.394531 C 57.472656 60.644531 54.410156 58.949219 52.023438 56.84375 C 51.632812 56.496094 50.648438 55.300781 50.328125 55.136719 C 50.25 55.097656 50.203125 55.070312 50.128906 55.136719 L 48.027344 57.230469 C 48.136719 57.578125 49 59.746094 49.179688 59.789062 C 49.523438 59.722656 50.179688 58.734375 50.390625 58.695312 C 50.507812 58.675781 51.003906 59.167969 51.015625 59.253906 C 51.078125 59.617188 49.507812 60.589844 49.542969 60.917969 L 51.414062 65.109375 C 51.359375 65.324219 48.195312 67.859375 47.976562 67.882812 C 47.914062 67.890625 47.855469 67.886719 47.796875 67.871094 C 47.148438 67.652344 44.929688 60.40625 44.640625 59.332031 C 43.648438 58.441406 43.480469 59.785156 42.792969 60.191406 C 42.238281 60.519531 41.566406 59.578125 40.957031 59.707031 C 40.425781 60.605469 39.8125 61.457031 39.222656 62.316406 C 38.882812 62.8125 37.882812 63.96875 37.695312 64.382812 C 37.558594 64.675781 37.679688 65.175781 37.632812 65.523438 C 37.457031 66.882812 36.425781 67.699219 35.824219 68.707031 C 34.535156 70.875 33.710938 74.03125 32.582031 76.335938 C 32.632812 76.703125 32.71875 77.105469 32.601562 77.472656 C 32.558594 77.625 31.296875 79.328125 31.183594 79.359375 C 31.007812 79.414062 30.234375 78.800781 30.019531 78.648438 C 28.0625 77.253906 25.984375 75.359375 24.359375 73.621094 C 24.183594 73.4375 23.03125 72.078125 22.996094 71.976562 C 22.953125 71.835938 22.9375 71.734375 23.050781 71.621094 C 24.628906 70.234375 26.039062 68.679688 27.550781 67.226562 C 29.675781 65.1875 31.910156 62.933594 34.347656 61.335938 L 38.695312 57.089844 C 38.90625 56.628906 37.429688 55.546875 37.554688 55.0625 C 37.664062 54.648438 39.65625 53.335938 39.625 52.964844 C 39.585938 52.519531 38.257812 51.21875 38.335938 50.65625 C 38.347656 50.574219 38.382812 50.503906 38.4375 50.441406 C 38.925781 50.132812 39.980469 48.699219 40.488281 48.691406 C 40.683594 48.691406 41.453125 49.070312 41.707031 49.183594 C 42.089844 49.351562 43.453125 50.179688 43.730469 50.050781 L 61.769531 32.019531 L 61.769531 31.820312 C 61.769531 31.820312 59.417969 29.371094 59.417969 29.371094 C 59.675781 29.1875 60.429688 28.21875 60.667969 28.21875 C 61.066406 28.378906 61.320312 28.871094 61.667969 29.121094 C 61.953125 29.328125 63.496094 29.753906 63.890625 29.800781 C 64.570312 29.875 64.527344 29.3125 64.984375 29.238281 C 65.328125 29.183594 65.617188 29.574219 65.808594 29.480469 L 75.671875 19.445312 L 76.054688 19.527344 C 76.550781 20.132812 77.191406 20.597656 77.75 21.128906 C 77.984375 21.351562 78.691406 21.917969 78.550781 22.226562 L 69.054688 31.917969 C 68.867188 32.207031 69.625 32.367188 69.492188 32.847656 C 64.179688 38.453125 58.691406 43.898438 53.332031 49.464844 C 55.695312 52.457031 59.3125 54.546875 62.914062 55.695312 Z M 62.914062 55.695312 "/>
<path style=" stroke:none;fill-rule:nonzero;fill:rgb(58.431375%,84.705883%,93.725491%);fill-opacity:1;" d="M 83.136719 60.925781 L 81.464844 58.992188 C 78.207031 70.71875 68.46875 79.675781 56.367188 81.890625 C 48.601562 83.3125 41.210938 81.964844 35.019531 78.671875 C 34.875 78.597656 34.703125 78.621094 34.589844 78.734375 L 32.308594 81.015625 C 32.140625 81.183594 32.175781 81.46875 32.386719 81.585938 C 37.65625 84.570312 43.742188 86.277344 50.234375 86.277344 C 67.152344 86.277344 81.367188 74.691406 85.378906 59.023438 Z M 83.136719 60.925781 "/>
<path style=" stroke:none;fill-rule:nonzero;fill:rgb(58.431375%,84.705883%,93.725491%);fill-opacity:1;" d="M 23.109375 67.820312 C 20.710938 64.179688 19.023438 60.023438 18.253906 55.554688 L 24.421875 55.554688 L 16.527344 44.445312 L 8.171875 55.554688 L 14.378906 55.554688 C 15.21875 61.019531 17.28125 66.085938 20.273438 70.457031 C 20.402344 70.648438 20.671875 70.671875 20.835938 70.507812 L 23.0625 68.28125 C 23.183594 68.160156 23.203125 67.964844 23.109375 67.820312 Z M 23.109375 67.820312 "/>
<path style=" stroke:none;fill-rule:nonzero;fill:rgb(58.431375%,84.705883%,93.725491%);fill-opacity:1;" d="M 70.894531 20.6875 C 71.050781 20.53125 71.03125 20.273438 70.847656 20.148438 C 65.457031 16.417969 59.003906 14.105469 52.03125 13.765625 C 33.578125 12.863281 17.777344 25.964844 14.554688 43.425781 L 17.15625 41.222656 L 18.597656 42.765625 C 22.050781 27.753906 35.980469 16.667969 52.136719 17.601562 C 58.058594 17.945312 63.554688 19.878906 68.203125 22.976562 C 68.34375 23.070312 68.53125 23.054688 68.652344 22.933594 Z M 70.894531 20.6875 "/>
<path style=" stroke:none;fill-rule:nonzero;fill:rgb(58.431375%,84.705883%,93.725491%);fill-opacity:1;" d="M 86.285156 45.949219 C 85.515625 39.03125 82.800781 32.703125 78.703125 27.519531 C 78.554688 27.332031 78.277344 27.316406 78.109375 27.484375 L 75.953125 29.644531 C 75.808594 29.785156 75.796875 30.011719 75.921875 30.167969 C 79.363281 34.621094 81.671875 39.996094 82.421875 45.859375 C 82.449219 46.09375 82.265625 46.300781 82.027344 46.300781 L 76.5625 46.300781 C 76.5625 46.300781 83.953125 57.375 83.953125 57.375 C 84.15625 57.054688 83.6875 56.976562 83.949219 57.363281 L 91.445312 46.304688 L 86.675781 46.304688 C 86.476562 46.304688 86.304688 46.148438 86.28125 45.949219 Z M 86.285156 45.949219 "/>
</g>
</svg>
