<?xml version="1.0" encoding="UTF-8"?>
<svg xmlns="http://www.w3.org/2000/svg" xmlns:xlink="http://www.w3.org/1999/xlink" width="100px" height="100px" viewBox="0 0 100 100" version="1.1">
<defs>
<clipPath id="clip1">
  <path d="M 9.328125 9.328125 L 90.671875 9.328125 L 90.671875 90.671875 L 9.328125 90.671875 Z M 9.328125 9.328125 "/>
</clipPath>
</defs>
<g id="surface1">
<g clip-path="url(#clip1)" clip-rule="nonzero">
<path style=" stroke:none;fill-rule:nonzero;fill:rgb(6.27451%,32.549021%,47.450981%);fill-opacity:1;" d="M 9.328125 50 C 9.328125 27.539062 27.539062 9.328125 50 9.328125 C 72.460938 9.328125 90.671875 27.539062 90.671875 50 C 90.671875 72.460938 72.460938 90.671875 50 90.671875 C 27.539062 90.671875 9.328125 72.460938 9.328125 50 "/>
</g>
<path style=" stroke:none;fill-rule:nonzero;fill:rgb(58.823532%,85.490197%,94.509804%);fill-opacity:1;" d="M 13.722656 50 C 13.722656 29.964844 29.964844 13.722656 50 13.722656 C 70.035156 13.722656 86.277344 29.964844 86.277344 50 C 86.277344 70.035156 70.035156 86.277344 50 86.277344 C 29.964844 86.277344 13.722656 70.035156 13.722656 50 "/>
<path style=" stroke:none;fill-rule:nonzero;fill:rgb(6.27451%,32.549021%,47.450981%);fill-opacity:1;" d="M 17.546875 50 C 17.546875 32.078125 32.078125 17.546875 50 17.546875 C 67.921875 17.546875 82.453125 32.078125 82.453125 50 C 82.453125 67.921875 67.921875 82.453125 50 82.453125 C 32.078125 82.453125 17.546875 67.921875 17.546875 50 "/>
<path style=" stroke:none;fill-rule:nonzero;fill:rgb(58.431375%,84.705883%,93.725491%);fill-opacity:1;" d="M 61.191406 33.226562 C 61.175781 33.421875 61.503906 33.3125 61.59375 33.277344 C 62.511719 32.953125 63.523438 32.230469 64.488281 31.878906 C 67.703125 30.707031 71.359375 31.167969 71.578125 35.222656 C 71.0625 34.980469 70.710938 34.691406 70.132812 34.519531 C 68.777344 34.121094 67.683594 34.574219 66.464844 35.152344 C 65.648438 35.539062 64.652344 36.117188 63.988281 36.71875 C 64.574219 36.660156 65.113281 36.308594 65.664062 36.152344 C 69.820312 34.96875 71.660156 36.625 73.296875 40.25 C 73.394531 40.46875 73.972656 41.710938 73.875 41.816406 C 73.445312 41.695312 73.074219 41.339844 72.679688 41.167969 C 66.820312 38.589844 64.054688 48.632812 57.664062 44.992188 C 57.464844 44.878906 55.96875 43.738281 55.898438 43.8125 C 55.597656 46.480469 53.953125 48.992188 51.28125 49.734375 C 51.105469 49.785156 50.789062 49.902344 50.640625 49.902344 C 50.261719 49.90625 49.382812 48.882812 49.105469 48.554688 C 41.96875 40.011719 50.648438 27.324219 61.128906 29.34375 C 61.679688 29.449219 64.152344 30.191406 64.484375 30.480469 C 64.644531 30.621094 64.554688 30.609375 64.4375 30.726562 C 64.0625 31.097656 63.378906 31.472656 62.941406 31.828125 C 62.367188 32.300781 61.867188 32.898438 61.191406 33.226562 Z M 61.191406 33.226562 "/>
<path style=" stroke:none;fill-rule:nonzero;fill:rgb(58.431375%,84.705883%,93.725491%);fill-opacity:1;" d="M 52.800781 29.332031 C 52.8125 29.34375 52.8125 29.550781 52.777344 29.609375 C 52.726562 29.699219 51.40625 30.613281 51.15625 30.832031 C 47.152344 34.292969 44.757812 38.925781 45.992188 44.339844 C 45.910156 44.65625 43.726562 46.0625 43.3125 46.265625 C 41.175781 47.308594 38.875 47.316406 36.621094 46.660156 C 34.617188 46.078125 32.652344 45.28125 30.675781 44.609375 C 29.664062 41.660156 29.496094 38.6875 29.632812 35.582031 L 28.535156 35.214844 L 28.53125 34.984375 L 32.9375 24.800781 C 33.410156 23.503906 34.601562 23.019531 35.894531 23.511719 C 41.375 25.410156 46.84375 27.351562 52.320312 29.261719 C 52.464844 29.3125 52.785156 29.3125 52.800781 29.332031 Z M 36.714844 34.230469 C 36.839844 34.40625 35.6875 36.523438 35.585938 36.941406 C 35.542969 37.117188 35.472656 37.230469 35.566406 37.421875 C 35.691406 37.671875 38.445312 38.582031 38.765625 38.523438 C 39.296875 38.429688 39.953125 35.644531 40.382812 35.535156 C 40.695312 35.460938 42.820312 36.421875 43.386719 36.5 C 43.582031 36.53125 43.695312 36.558594 43.867188 36.429688 C 44.007812 36.328125 45.175781 33.636719 45.261719 33.328125 C 45.359375 32.976562 45.378906 32.730469 45.035156 32.546875 C 44.585938 32.308594 42.078125 31.621094 41.953125 31.429688 C 41.96875 30.773438 43.003906 29.347656 42.917969 28.785156 C 42.902344 28.691406 42.878906 28.644531 42.8125 28.578125 C 42.695312 28.464844 40.0625 27.601562 39.871094 27.628906 C 39.691406 27.652344 39.566406 27.796875 39.476562 27.941406 C 39.253906 28.289062 38.695312 30.039062 38.605469 30.117188 C 38.523438 30.1875 38.148438 30.113281 38.011719 30.082031 C 37.398438 29.957031 36.019531 29.257812 35.550781 29.25 C 35.261719 29.246094 35.046875 29.78125 34.933594 29.992188 C 34.597656 30.632812 34.078125 31.816406 33.84375 32.5 C 33.785156 32.675781 33.683594 32.859375 33.734375 33.054688 C 33.851562 33.472656 36.234375 34.003906 36.714844 34.230469 Z M 36.714844 34.230469 "/>
<path style=" stroke:none;fill-rule:nonzero;fill:rgb(58.431375%,84.705883%,93.725491%);fill-opacity:1;" d="M 49.40625 76.378906 L 27.828125 65.839844 L 27.828125 54.800781 L 44.957031 60.902344 L 49.117188 52.769531 C 49.167969 52.546875 49.40625 52.648438 49.40625 52.753906 Z M 49.40625 76.378906 "/>
<path style=" stroke:none;fill-rule:nonzero;fill:rgb(58.431375%,84.705883%,93.725491%);fill-opacity:1;" d="M 50.304688 76.675781 L 50.304688 53.101562 L 54.84375 61.59375 L 71.277344 54.246094 C 71.375 54.140625 71.578125 54.289062 71.578125 54.351562 L 71.578125 65.539062 Z M 50.304688 76.675781 "/>
<path style=" stroke:none;fill-rule:nonzero;fill:rgb(58.431375%,84.705883%,93.725491%);fill-opacity:1;" d="M 71.972656 43.617188 L 75.675781 51.304688 L 55.011719 60.28125 L 50.945312 51.800781 Z M 71.972656 43.617188 "/>
<path style=" stroke:none;fill-rule:nonzero;fill:rgb(58.431375%,84.705883%,93.725491%);fill-opacity:1;" d="M 48.597656 51.710938 C 48.664062 51.789062 48.585938 52.15625 48.527344 52.277344 L 44.75 59.804688 L 24.324219 52.339844 L 28.171875 45.113281 Z M 48.597656 51.710938 "/>
</g>
</svg>
