<?xml version="1.0" encoding="UTF-8"?>
<svg xmlns="http://www.w3.org/2000/svg" xmlns:xlink="http://www.w3.org/1999/xlink" width="100px" height="100px" viewBox="0 0 100 100" version="1.1">
<g id="surface1">
<path style=" stroke:none;fill-rule:nonzero;fill:rgb(6.27451%,32.549021%,47.450981%);fill-opacity:1;" d="M 9.328125 50 C 9.328125 27.539062 27.539062 9.328125 50 9.328125 C 72.460938 9.328125 90.671875 27.539062 90.671875 50 C 90.671875 72.460938 72.460938 90.671875 50 90.671875 C 27.539062 90.671875 9.328125 72.460938 9.328125 50 "/>
<path style=" stroke:none;fill-rule:nonzero;fill:rgb(58.431375%,85.09804%,94.117647%);fill-opacity:1;" d="M 58.488281 55.648438 L 29.171875 55.648438 C 29.125 55.648438 28.574219 55.390625 28.488281 55.332031 C 27.988281 55.003906 27.867188 54.480469 27.820312 53.90625 C 27.597656 51.324219 27.984375 48.429688 27.832031 45.820312 C 27.78125 45.410156 28.535156 44.5625 28.871094 44.5625 L 58.488281 44.5625 L 58.488281 38.316406 C 58.488281 38.242188 58.667969 37.953125 58.734375 37.863281 C 59.875 36.3125 61.800781 38.636719 62.734375 39.367188 C 63.992188 40.351562 65.265625 41.367188 66.53125 42.359375 C 68.972656 44.28125 72.046875 46.332031 74.273438 48.40625 C 74.949219 49.039062 75.273438 49.292969 75.175781 50.3125 C 75.125 50.839844 74.777344 51.105469 74.417969 51.449219 L 60.898438 62.304688 C 60.339844 62.789062 59.253906 62.800781 58.785156 62.195312 C 58.699219 62.082031 58.488281 61.59375 58.488281 61.492188 Z M 58.488281 55.648438 "/>
<path style=" stroke:none;fill-rule:nonzero;fill:rgb(58.431375%,85.09804%,94.117647%);fill-opacity:1;" d="M 39.859375 30.875 C 38.835938 30.671875 38.449219 29.097656 39.269531 28.386719 C 41.492188 26.113281 43.566406 23.691406 45.75 21.386719 C 46.644531 20.441406 47.996094 18.84375 48.945312 18.085938 C 50.777344 16.628906 51.726562 18.53125 52.84375 19.691406 C 55.640625 22.585938 58.40625 25.515625 61.128906 28.488281 C 61.566406 29.042969 61.652344 29.761719 61.1875 30.332031 C 61.085938 30.460938 60.550781 30.875 60.4375 30.875 L 53.84375 30.875 C 53.832031 30.875 53.695312 31.015625 53.695312 31.027344 L 53.695312 37.71875 C 53.695312 38.070312 52.796875 38.609375 52.4375 38.660156 C 51.53125 38.78125 48.761719 38.78125 47.847656 38.667969 C 47.273438 38.601562 46.5 37.902344 46.5 37.320312 L 46.5 31.027344 C 46.5 31.015625 46.363281 30.875 46.351562 30.875 Z M 39.859375 30.875 "/>
<path style=" stroke:none;fill-rule:nonzero;fill:rgb(58.431375%,85.09804%,94.117647%);fill-opacity:1;" d="M 46.5 62.589844 C 46.578125 62.125 47.0625 61.648438 47.5 61.492188 C 48.21875 61.242188 52.074219 61.242188 52.792969 61.492188 C 53.089844 61.597656 53.695312 62.089844 53.695312 62.390625 L 53.695312 68.984375 C 53.695312 68.996094 53.832031 69.132812 53.84375 69.132812 L 60.4375 69.132812 C 61.148438 69.132812 61.898438 70.664062 61.285156 71.28125 C 58.296875 74.445312 55.445312 77.765625 52.398438 80.875 C 51.4375 81.851562 50.574219 82.992188 49.097656 81.972656 L 39.3125 71.679688 C 38.808594 71.0625 38.554688 70.28125 39.15625 69.628906 C 39.230469 69.546875 39.816406 69.132812 39.859375 69.132812 L 46.351562 69.132812 C 46.363281 69.132812 46.5 68.996094 46.5 68.984375 Z M 46.5 62.589844 "/>
<path style=" stroke:none;fill-rule:nonzero;fill:rgb(58.823532%,85.490197%,94.509804%);fill-opacity:1;" d="M 66.417969 22.003906 C 76.011719 27.644531 82.453125 38.070312 82.453125 50 C 82.453125 61.929688 76.011719 72.355469 66.417969 77.996094 L 68.316406 81.230469 L 68.375 81.285156 C 79.089844 74.980469 86.277344 63.328125 86.277344 50 C 86.277344 36.671875 79.089844 25.019531 68.375 18.714844 L 68.316406 18.769531 Z M 66.417969 22.003906 "/>
<path style=" stroke:none;fill-rule:nonzero;fill:rgb(58.823532%,85.490197%,94.509804%);fill-opacity:1;" d="M 33.582031 77.996094 C 23.988281 72.355469 17.546875 61.929688 17.546875 50 C 17.546875 38.070312 23.988281 27.644531 33.582031 22.003906 L 31.683594 18.769531 L 31.625 18.714844 C 20.910156 25.019531 13.722656 36.671875 13.722656 50 C 13.722656 63.328125 20.910156 74.980469 31.625 81.285156 L 31.683594 81.230469 Z M 33.582031 77.996094 "/>
</g>
</svg>
