<?xml version="1.0" encoding="UTF-8"?>
<svg xmlns="http://www.w3.org/2000/svg" xmlns:xlink="http://www.w3.org/1999/xlink" width="100px" height="100px" viewBox="0 0 100 100" version="1.1">
<g id="surface1">
<path style=" stroke:none;fill-rule:nonzero;fill:rgb(6.27451%,32.549021%,47.450981%);fill-opacity:1;" d="M 9.328125 50 C 9.328125 27.539062 27.539062 9.328125 50 9.328125 C 72.460938 9.328125 90.671875 27.539062 90.671875 50 C 90.671875 72.460938 72.460938 90.671875 50 90.671875 C 27.539062 90.671875 9.328125 72.460938 9.328125 50 "/>
<path style=" stroke:none;fill-rule:nonzero;fill:rgb(6.27451%,32.549021%,47.450981%);fill-opacity:1;" d="M 71.640625 85.113281 C 70.726562 85.113281 69.894531 84.917969 69.160156 84.539062 C 68.253906 84.0625 67.738281 83.4375 67.59375 82.605469 L 65.96875 82.945312 C 65.449219 83.050781 64.925781 83.105469 64.410156 83.105469 C 61.574219 83.105469 59.183594 81.496094 58.171875 78.902344 C 57.734375 77.78125 57.746094 76.796875 57.757812 75.929688 C 57.761719 75.535156 57.765625 75.164062 57.722656 74.820312 C 57.539062 74.535156 57.191406 73.972656 57.300781 72.996094 C 57.417969 71.914062 58.222656 71.265625 58.703125 70.878906 C 58.796875 70.800781 58.941406 70.683594 58.988281 70.632812 C 59.101562 70.46875 59.296875 69.902344 59.414062 69.558594 C 59.554688 69.160156 59.683594 68.78125 59.84375 68.449219 C 61.824219 64.277344 66.046875 61.6875 70.859375 61.6875 C 74.648438 61.6875 78.179688 63.304688 80.550781 66.125 C 82.667969 68.644531 82.679688 71.101562 82.6875 73.703125 C 82.691406 73.914062 82.691406 74.128906 82.691406 74.347656 C 82.695312 74.472656 82.707031 74.554688 82.722656 74.671875 C 82.8125 75.316406 82.78125 75.824219 82.347656 76.660156 C 81.859375 77.597656 81.125 78.222656 80.535156 78.726562 C 80.246094 78.976562 79.941406 79.234375 79.8125 79.421875 C 79.78125 79.484375 79.71875 79.65625 79.679688 79.773438 C 79.59375 80.015625 79.496094 80.285156 79.351562 80.554688 C 78.015625 83.070312 74.554688 85.113281 71.640625 85.113281 Z M 67.578125 81.652344 C 67.582031 81.617188 67.585938 81.582031 67.589844 81.546875 C 68.066406 78.027344 73.320312 74.488281 76.242188 74.214844 C 76.332031 74.207031 76.425781 74.203125 76.511719 74.203125 C 76.730469 74.203125 76.972656 74.230469 77.21875 74.304688 C 77.367188 74.058594 77.503906 73.855469 77.667969 73.6875 C 77.851562 73.503906 78.054688 73.371094 78.257812 73.25 C 78.246094 72.765625 78.105469 71.910156 77.882812 71.242188 C 76.800781 67.988281 73.359375 66.53125 70.429688 66.53125 C 67.339844 66.53125 64.746094 67.960938 63.492188 70.355469 C 63.441406 70.445312 63.371094 70.601562 63.285156 70.792969 C 63.441406 70.878906 63.582031 70.988281 63.703125 71.125 L 64.105469 71.582031 L 64.074219 72.191406 C 63.96875 74.292969 64.519531 76.523438 65.710938 78.824219 Z M 67.578125 81.652344 "/>
<path style=" stroke:none;fill-rule:nonzero;fill:rgb(58.431375%,84.705883%,93.725491%);fill-opacity:1;" d="M 40.238281 15.09375 C 40.792969 15.710938 40.40625 16.074219 40.375 16.703125 C 40.316406 17.765625 40.621094 18.796875 39.566406 19.480469 C 38.632812 20.089844 37.96875 19.734375 37.628906 21.128906 C 37.308594 22.453125 37.148438 25.046875 37.085938 26.460938 C 37.007812 28.269531 36.96875 30.945312 37.449219 32.667969 C 38.121094 35.054688 41.332031 37.691406 43.8125 37.859375 C 44.5 37.910156 44.246094 37.636719 44.445312 37.101562 C 44.570312 36.765625 44.761719 37.164062 44.960938 37.304688 C 46.113281 38.109375 47.308594 38.546875 48.714844 38.089844 C 49.246094 37.914062 49.617188 37.550781 50.128906 37.363281 C 50.058594 38.773438 50.207031 38.898438 51.425781 39.304688 C 52.988281 39.824219 55.714844 40.1875 57.035156 40.964844 C 58.285156 41.699219 60.132812 45.953125 60.964844 47.386719 C 61.578125 48.4375 62.394531 49.382812 62.878906 50.507812 C 63.015625 50.539062 63.039062 50.488281 63.128906 50.410156 C 63.644531 49.953125 64.371094 48.898438 64.808594 48.308594 C 65.953125 46.765625 68.972656 42.828125 69.148438 41.097656 C 69.25 40.101562 68.933594 39.617188 68.859375 38.796875 C 68.707031 37.148438 71.972656 35.46875 73.304688 36.34375 C 73.757812 36.644531 74.59375 38.210938 74.703125 38.730469 C 74.953125 39.941406 73.429688 41.570312 72.683594 42.445312 C 72.5 42.660156 72.214844 42.816406 72.070312 42.976562 C 71.269531 43.882812 69.996094 48.128906 69.425781 49.539062 C 68.757812 51.175781 66.566406 56.566406 65.199219 57.363281 C 64.136719 57.988281 61.898438 57.875 60.816406 57.296875 C 59.984375 56.851562 58.222656 54.6875 57.945312 53.796875 C 57.628906 52.777344 57.707031 51.167969 57.585938 50.074219 C 57.554688 49.800781 57.542969 49.242188 57.300781 49.113281 C 57.089844 50.597656 57.164062 52.140625 57.105469 53.648438 C 56.925781 58.183594 56.734375 62.742188 56.796875 67.289062 C 56.804688 67.777344 56.96875 68.214844 56.894531 68.769531 C 56.757812 69.738281 55.71875 70.007812 55.550781 70.714844 C 55.398438 71.351562 55.652344 73.972656 55.480469 74.179688 C 55.101562 74.371094 54.695312 74.507812 54.289062 74.632812 C 49.171875 76.199219 41.9375 75.113281 37.453125 72.199219 C 37.019531 71.917969 35.605469 70.804688 35.511719 70.347656 C 35.417969 69.890625 35.890625 69.476562 36.078125 69.066406 C 38.0625 64.789062 37.847656 56.179688 37.382812 51.453125 C 36.863281 46.125 35.203125 44.699219 33.117188 40.289062 C 31.269531 36.382812 30.066406 30.917969 31.832031 26.78125 C 32.148438 26.039062 32.8125 25.371094 33.078125 24.640625 C 34.03125 22.003906 33.59375 17.628906 35.890625 15.707031 C 36.28125 15.378906 36.847656 15.1875 37.183594 14.90625 C 37.660156 14.5 37.761719 13.808594 38.6875 14.109375 C 38.777344 14.136719 40.164062 15.011719 40.238281 15.09375 Z M 40.238281 15.09375 "/>
<path style=" stroke:none;fill-rule:nonzero;fill:rgb(58.431375%,84.705883%,93.725491%);fill-opacity:1;" d="M 42.761719 15.207031 C 42.746094 15.082031 42.472656 14.5625 42.5625 14.460938 C 43.480469 14.328125 44.390625 14.082031 45.3125 13.976562 C 62.464844 12.03125 78.679688 21.386719 84.484375 37.710938 C 87.175781 45.273438 87.25 53.953125 84.679688 61.558594 L 74.527344 52.5 L 70.628906 61.148438 C 69.316406 61.121094 67.972656 61.652344 66.707031 61.757812 C 64.371094 61.953125 61.710938 61.78125 59.335938 61.855469 C 59.144531 61.859375 58.976562 61.929688 58.792969 61.957031 L 58.792969 59.371094 L 67.8125 59.179688 L 73.53125 46.425781 C 75.804688 48.449219 78.089844 50.460938 80.351562 52.5 C 80.683594 52.800781 81.007812 53.097656 81.347656 53.394531 C 81.53125 53.558594 82.398438 54.589844 82.589844 54.390625 C 82.546875 53.457031 82.757812 52.480469 82.792969 51.558594 C 83.441406 35.054688 72.644531 21.378906 56.503906 18.195312 C 51.882812 17.285156 47.367188 17.371094 42.761719 18.34375 C 42.679688 17.347656 42.871094 16.1875 42.761719 15.207031 Z M 42.761719 15.207031 "/>
<path style=" stroke:none;fill-rule:nonzero;fill:rgb(58.431375%,84.705883%,93.725491%);fill-opacity:1;" d="M 61.171875 83.976562 C 61.210938 84.035156 61.171875 84.171875 61.183594 84.261719 C 55.582031 86.171875 49.710938 86.796875 43.839844 85.824219 C 24.882812 82.695312 11.402344 64.757812 13.699219 45.589844 C 14.925781 35.351562 20.625 25.804688 29.128906 19.996094 C 29.578125 19.691406 30.863281 18.796875 31.308594 18.6875 C 31.601562 18.617188 31.710938 18.660156 31.714844 18.988281 L 30.855469 23.417969 C 29.730469 24.261719 28.558594 25.101562 27.527344 26.0625 C 15.589844 37.144531 13.789062 55.742188 23.363281 68.960938 C 31.277344 79.890625 44.597656 85.039062 57.84375 81.574219 C 58.574219 82.136719 59.160156 82.824219 59.957031 83.347656 C 60.199219 83.511719 61.136719 83.917969 61.171875 83.976562 Z M 61.171875 83.976562 "/>
<path style=" stroke:none;fill-rule:nonzero;fill:rgb(58.431375%,84.705883%,93.725491%);fill-opacity:1;" d="M 35.195312 53.097656 C 35.050781 53.261719 33.980469 51.921875 33.902344 52 L 29.773438 59.765625 L 22.550781 50.410156 C 22.308594 61.046875 29.160156 71.234375 38.882812 75.347656 C 43.40625 77.265625 48.894531 77.859375 53.746094 77.078125 C 54.605469 76.941406 55.433594 76.664062 56.304688 76.597656 C 56.0625 77.097656 56.9375 79.246094 56.890625 79.425781 C 56.847656 79.605469 55.570312 79.878906 55.3125 79.933594 C 41.554688 82.871094 27.445312 75.285156 21.933594 62.523438 C 19.117188 56.011719 18.859375 48.464844 20.710938 41.648438 L 20.953125 41.546875 L 29.320312 53.792969 L 33.054688 47.121094 C 33.203125 47.617188 35.195312 50.164062 35.195312 50.359375 Z M 35.195312 53.097656 "/>
<path style=" stroke:none;fill-rule:nonzero;fill:rgb(58.431375%,84.705883%,93.725491%);fill-opacity:1;" d="M 78.742188 74.738281 C 78.914062 74.558594 79.550781 74.296875 79.636719 74.082031 C 79.949219 73.332031 79.566406 71.554688 79.308594 70.769531 C 76.976562 63.757812 65.691406 62.914062 62.160156 69.660156 C 61.957031 70.046875 61.128906 71.957031 61.1875 72.257812 C 61.253906 72.605469 62.519531 72.050781 62.578125 72.117188 C 62.445312 74.730469 63.21875 77.296875 64.417969 79.585938 L 65.664062 81.476562 C 63.0625 82.015625 60.546875 80.863281 59.570312 78.359375 C 59.03125 76.972656 59.394531 75.753906 59.1875 74.460938 C 59.109375 73.976562 58.707031 73.933594 58.789062 73.160156 C 58.867188 72.445312 59.796875 72.039062 60.171875 71.554688 C 60.578125 71.027344 60.878906 69.765625 61.195312 69.09375 C 64.550781 62.035156 74.472656 61.222656 79.402344 67.089844 C 81.324219 69.375 81.167969 71.558594 81.191406 74.359375 C 81.199219 75.101562 81.4375 75.160156 81.015625 75.96875 C 80.402344 77.148438 79.128906 77.753906 78.5625 78.59375 C 78.339844 78.925781 78.234375 79.46875 78.027344 79.851562 C 76.746094 82.261719 72.460938 84.566406 69.855469 83.207031 C 69.164062 82.847656 68.96875 82.519531 69.074219 81.75 C 69.429688 79.144531 73.910156 75.941406 76.378906 75.710938 C 77.363281 75.617188 77.035156 76.523438 77.546875 76.386719 C 77.894531 76.292969 78.488281 74.996094 78.742188 74.738281 Z M 78.742188 74.738281 "/>
<path style=" stroke:none;fill-rule:nonzero;fill:rgb(58.431375%,84.705883%,93.725491%);fill-opacity:1;" d="M 46.71875 25.140625 C 48.84375 24.808594 50.855469 25.964844 51.609375 27.96875 C 52.679688 30.816406 51.105469 38.570312 46.839844 37.515625 C 43.636719 36.726562 42.878906 32.128906 43.0625 29.351562 C 43.191406 27.386719 44.714844 25.453125 46.71875 25.140625 Z M 46.71875 25.140625 "/>
<path style=" stroke:none;fill-rule:nonzero;fill:rgb(58.431375%,84.705883%,93.725491%);fill-opacity:1;" d="M 65.890625 81.046875 C 64.996094 80.316406 63.882812 77.613281 63.546875 76.472656 C 63.226562 75.390625 62.769531 73.34375 62.972656 72.265625 C 63.105469 71.570312 64.742188 72.097656 65.160156 72.46875 C 66.128906 73.339844 66.972656 77.492188 67.054688 78.839844 C 67.089844 79.394531 66.886719 81.859375 65.890625 81.046875 Z M 65.890625 81.046875 "/>
<path style=" stroke:none;fill-rule:nonzero;fill:rgb(58.431375%,84.705883%,93.725491%);fill-opacity:1;" d="M 76.316406 75.300781 C 73.445312 76.066406 70.765625 77.71875 69.230469 80.3125 C 69.085938 80.554688 68.613281 81.726562 68.550781 81.773438 C 68.207031 82.023438 67.953125 80.414062 67.949219 80.226562 C 67.914062 77.785156 70.414062 75.382812 72.652344 74.773438 C 73.726562 74.480469 75.515625 74.402344 76.316406 75.300781 Z M 76.316406 75.300781 "/>
</g>
</svg>
