<?xml version="1.0" encoding="UTF-8"?>
<svg xmlns="http://www.w3.org/2000/svg" xmlns:xlink="http://www.w3.org/1999/xlink" width="100px" height="100px" viewBox="0 0 100 100" version="1.1">
<defs>
<clipPath id="clip1">
  <path d="M 9.328125 9.328125 L 90.671875 9.328125 L 90.671875 90.671875 L 9.328125 90.671875 Z M 9.328125 9.328125 "/>
</clipPath>
</defs>
<g id="surface1">
<g clip-path="url(#clip1)" clip-rule="nonzero">
<path style=" stroke:none;fill-rule:nonzero;fill:rgb(6.27451%,32.549021%,47.450981%);fill-opacity:1;" d="M 9.328125 50 C 9.328125 27.539062 27.539062 9.328125 50 9.328125 C 72.460938 9.328125 90.671875 27.539062 90.671875 50 C 90.671875 72.460938 72.460938 90.671875 50 90.671875 C 27.539062 90.671875 9.328125 72.460938 9.328125 50 "/>
</g>
<path style=" stroke:none;fill-rule:nonzero;fill:rgb(58.823532%,85.490197%,94.509804%);fill-opacity:1;" d="M 13.722656 50 C 13.722656 29.964844 29.964844 13.722656 50 13.722656 C 70.035156 13.722656 86.277344 29.964844 86.277344 50 C 86.277344 70.035156 70.035156 86.277344 50 86.277344 C 29.964844 86.277344 13.722656 70.035156 13.722656 50 "/>
<path style=" stroke:none;fill-rule:nonzero;fill:rgb(6.27451%,32.549021%,47.450981%);fill-opacity:1;" d="M 17.546875 50 C 17.546875 32.078125 32.078125 17.546875 50 17.546875 C 67.921875 17.546875 82.453125 32.078125 82.453125 50 C 82.453125 67.921875 67.921875 82.453125 50 82.453125 C 32.078125 82.453125 17.546875 67.921875 17.546875 50 "/>
<path style=" stroke:none;fill-rule:nonzero;fill:rgb(58.039218%,84.705883%,93.725491%);fill-opacity:1;" d="M 55.792969 50.222656 L 55.808594 58.328125 L 61.882812 73.03125 C 62.765625 75.003906 59.910156 76.714844 58.582031 75.035156 C 58.148438 74.484375 57.550781 72.90625 57.234375 72.183594 C 55.484375 68.207031 53.953125 64.128906 52.179688 60.160156 C 52.128906 60.046875 52.050781 60.019531 51.9375 60 C 51.6875 59.953125 49.75 59.972656 49.679688 60.0625 L 43.617188 74.652344 C 42.625 76.511719 40.070312 75.757812 39.917969 73.734375 C 41.851562 68.519531 44.046875 63.378906 46.171875 58.230469 L 46.199219 50.277344 C 44.3125 49.785156 42.554688 49.269531 40.835938 48.332031 C 39.59375 47.652344 35.542969 44.699219 35.3125 43.363281 C 35.113281 42.195312 36.054688 41.203125 37.234375 41.445312 C 38.042969 41.609375 39.574219 43.324219 40.371094 43.898438 C 46.074219 48.015625 56.285156 47.925781 61.910156 43.703125 C 62.761719 43.0625 63.925781 41.503906 64.925781 41.417969 C 66.226562 41.308594 66.957031 42.375 66.605469 43.601562 C 66.4375 44.179688 64.617188 45.902344 64.078125 46.367188 C 61.714844 48.390625 58.839844 49.644531 55.792969 50.222656 Z M 55.792969 50.222656 "/>
<path style=" stroke:none;fill-rule:nonzero;fill:rgb(58.039218%,84.705883%,93.725491%);fill-opacity:1;" d="M 56.40625 40.441406 C 56.300781 40.621094 56.097656 41.878906 55.824219 42.410156 C 53.289062 47.292969 46 45.703125 45.59375 40.574219 C 45.023438 33.398438 54.53125 31.449219 56.433594 39.023438 C 56.523438 39.382812 56.875 39.671875 56.667969 40.261719 C 56.621094 40.390625 56.4375 40.390625 56.40625 40.441406 Z M 56.40625 40.441406 "/>
<path style=" stroke:none;fill-rule:nonzero;fill:rgb(58.039218%,84.705883%,93.725491%);fill-opacity:1;" d="M 53.785156 31.480469 C 53.777344 31.53125 53.632812 31.753906 53.585938 31.78125 C 53.128906 32.058594 49.285156 31.6875 48.460938 31.816406 C 48.261719 31.75 48.210938 31.46875 48.191406 31.285156 C 48.121094 30.664062 48.335938 28.171875 48.101562 27.875 C 48.007812 27.753906 47.886719 27.75 47.75 27.730469 C 47.179688 27.65625 44.609375 27.914062 44.390625 27.570312 C 44.113281 27.136719 44.445312 26.8125 44.699219 26.492188 C 45.933594 24.925781 47.664062 23.128906 49.039062 21.640625 C 49.359375 21.296875 50.621094 19.859375 50.949219 19.84375 C 51.046875 19.839844 51.101562 19.855469 51.1875 19.894531 C 51.347656 19.96875 52.417969 21.109375 52.640625 21.34375 C 54.027344 22.789062 56.066406 24.878906 57.222656 26.445312 C 57.429688 26.722656 57.890625 27.734375 57.234375 27.734375 L 53.9375 27.734375 C 53.910156 27.734375 53.835938 27.851562 53.785156 27.886719 C 53.640625 28.917969 53.984375 30.527344 53.785156 31.480469 Z M 53.785156 31.480469 "/>
</g>
</svg>
