<?xml version="1.0" encoding="UTF-8"?>
<svg xmlns="http://www.w3.org/2000/svg" xmlns:xlink="http://www.w3.org/1999/xlink" width="100px" height="100px" viewBox="0 0 100 100" version="1.1">
<defs>
<clipPath id="clip1">
  <path d="M 9.328125 9.328125 L 90.671875 9.328125 L 90.671875 90.671875 L 9.328125 90.671875 Z M 9.328125 9.328125 "/>
</clipPath>
</defs>
<g id="surface1">
<g clip-path="url(#clip1)" clip-rule="nonzero">
<path style=" stroke:none;fill-rule:nonzero;fill:rgb(6.27451%,32.549021%,47.450981%);fill-opacity:1;" d="M 9.328125 50 C 9.328125 27.539062 27.539062 9.328125 50 9.328125 C 72.460938 9.328125 90.671875 27.539062 90.671875 50 C 90.671875 72.460938 72.460938 90.671875 50 90.671875 C 27.539062 90.671875 9.328125 72.460938 9.328125 50 "/>
</g>
<path style=" stroke:none;fill-rule:nonzero;fill:rgb(58.823532%,85.490197%,94.509804%);fill-opacity:1;" d="M 13.722656 50 C 13.722656 29.964844 29.964844 13.722656 50 13.722656 C 70.035156 13.722656 86.277344 29.964844 86.277344 50 C 86.277344 70.035156 70.035156 86.277344 50 86.277344 C 29.964844 86.277344 13.722656 70.035156 13.722656 50 "/>
<path style=" stroke:none;fill-rule:nonzero;fill:rgb(6.27451%,32.549021%,47.450981%);fill-opacity:1;" d="M 17.546875 50 C 17.546875 32.078125 32.078125 17.546875 50 17.546875 C 67.921875 17.546875 82.453125 32.078125 82.453125 50 C 82.453125 67.921875 67.921875 82.453125 50 82.453125 C 32.078125 82.453125 17.546875 67.921875 17.546875 50 "/>
<path style=" stroke:none;fill-rule:nonzero;fill:rgb(58.039218%,84.705883%,93.725491%);fill-opacity:1;" d="M 42.433594 61.65625 L 36.40625 75.15625 C 34.671875 77.542969 30.925781 76.078125 31.925781 72.96875 L 38.199219 58.96875 L 38.210938 49.816406 C 38.121094 49.539062 37.542969 49.679688 37.277344 49.652344 C 34.464844 49.359375 29.582031 48.296875 27.148438 46.894531 C 25.9375 46.199219 25.542969 44.621094 26.574219 43.59375 C 27.863281 42.304688 29.617188 43.511719 30.953125 43.984375 C 38.199219 46.554688 48.148438 46.847656 55.484375 44.484375 C 56.917969 44.023438 58.78125 42.835938 60.226562 43.082031 C 62.042969 43.390625 62.230469 45.921875 60.601562 46.90625 C 57.792969 48.597656 53.382812 49.222656 50.171875 49.664062 C 49.976562 49.691406 49.484375 49.738281 49.425781 49.914062 L 49.433594 58.96875 L 55.675781 73.105469 C 56.535156 75.914062 53.136719 77.464844 51.308594 75.371094 L 45.222656 61.78125 C 44.953125 61.472656 42.949219 61.703125 42.433594 61.65625 Z M 42.433594 61.65625 "/>
<path style=" stroke:none;fill-rule:nonzero;fill:rgb(58.039218%,84.705883%,93.725491%);fill-opacity:1;" d="M 54.832031 27.203125 C 55.003906 26.996094 55.328125 27.132812 55.53125 27.199219 C 56.722656 27.589844 58.238281 28.546875 59.433594 29.09375 C 59.644531 29.1875 60.796875 29.738281 60.894531 29.671875 C 61.332031 27.714844 61.355469 25.617188 61.996094 23.730469 C 62.496094 23.558594 62.742188 23.707031 63.039062 24.085938 L 66.792969 29.921875 C 67.761719 30.203125 72.234375 28.894531 72.785156 29.222656 C 72.972656 29.335938 73.039062 29.777344 72.941406 29.976562 L 70.066406 34.695312 C 70.011719 34.792969 69.972656 34.902344 69.984375 35.015625 C 70.03125 35.445312 73.300781 38.054688 73.785156 38.613281 C 74.222656 39.414062 74.066406 39.804688 73.136719 39.761719 C 71.046875 39.660156 68.539062 38.808594 66.429688 38.675781 C 66.238281 38.664062 66.054688 38.628906 65.863281 38.683594 C 65.46875 38.804688 63.304688 41.996094 62.699219 42.414062 C 62.515625 42.609375 62.113281 42.691406 61.902344 42.507812 C 61.476562 42.136719 60.964844 38.363281 60.542969 38.070312 C 60.425781 37.992188 60.285156 37.976562 60.152344 37.960938 C 58.75 37.804688 57.046875 37.972656 55.660156 37.757812 C 55.09375 37.671875 55.132812 37.25 55.253906 36.765625 L 58.699219 33.8125 L 54.886719 28.144531 C 54.695312 27.933594 54.65625 27.410156 54.832031 27.203125 Z M 54.832031 27.203125 "/>
<path style=" stroke:none;fill-rule:nonzero;fill:rgb(58.039218%,84.705883%,93.725491%);fill-opacity:1;" d="M 50.988281 36.816406 C 50.988281 32.832031 47.761719 29.605469 43.777344 29.605469 C 39.796875 29.605469 36.566406 32.832031 36.566406 36.816406 C 36.566406 40.796875 39.796875 44.027344 43.777344 44.027344 C 47.761719 44.027344 50.988281 40.796875 50.988281 36.816406 Z M 50.988281 36.816406 "/>
</g>
</svg>
