<?xml version="1.0" encoding="UTF-8"?>
<svg xmlns="http://www.w3.org/2000/svg" xmlns:xlink="http://www.w3.org/1999/xlink" width="100px" height="100px" viewBox="0 0 100 100" version="1.1">
<defs>
<clipPath id="clip1">
  <path d="M 9.328125 9.328125 L 90.671875 9.328125 L 90.671875 90.671875 L 9.328125 90.671875 Z M 9.328125 9.328125 "/>
</clipPath>
</defs>
<g id="surface1">
<g clip-path="url(#clip1)" clip-rule="nonzero">
<path style=" stroke:none;fill-rule:nonzero;fill:rgb(6.27451%,32.549021%,47.450981%);fill-opacity:1;" d="M 9.328125 50 C 9.328125 27.539062 27.539062 9.328125 50 9.328125 C 72.460938 9.328125 90.671875 27.539062 90.671875 50 C 90.671875 72.460938 72.460938 90.671875 50 90.671875 C 27.539062 90.671875 9.328125 72.460938 9.328125 50 "/>
</g>
<path style=" stroke:none;fill-rule:nonzero;fill:rgb(58.823532%,85.490197%,94.509804%);fill-opacity:1;" d="M 13.722656 50 C 13.722656 29.964844 29.964844 13.722656 50 13.722656 C 70.035156 13.722656 86.277344 29.964844 86.277344 50 C 86.277344 70.035156 70.035156 86.277344 50 86.277344 C 29.964844 86.277344 13.722656 70.035156 13.722656 50 "/>
<path style=" stroke:none;fill-rule:nonzero;fill:rgb(6.27451%,32.549021%,47.450981%);fill-opacity:1;" d="M 17.546875 50 C 17.546875 32.078125 32.078125 17.546875 50 17.546875 C 67.921875 17.546875 82.453125 32.078125 82.453125 50 C 82.453125 67.921875 67.921875 82.453125 50 82.453125 C 32.078125 82.453125 17.546875 67.921875 17.546875 50 "/>
<path style=" stroke:none;fill-rule:nonzero;fill:rgb(58.431375%,85.09804%,93.725491%);fill-opacity:1;" d="M 42.03125 45.855469 C 43.246094 47.445312 44.414062 49.085938 45.695312 50.632812 C 45.78125 50.738281 45.792969 50.902344 45.878906 50.996094 C 46.222656 51.375 46.714844 51.109375 47.046875 51.28125 C 47.136719 51.328125 48.429688 52.535156 48.546875 52.671875 C 48.628906 52.769531 48.695312 52.867188 48.722656 52.996094 C 48.566406 56.535156 47.972656 60.042969 47.65625 63.574219 C 47.351562 66.960938 47.175781 70.433594 47.042969 73.851562 L 47.304688 74.492188 L 49.996094 78.496094 C 50.1875 78.539062 50.121094 78.441406 50.167969 78.371094 C 51.109375 77.0625 51.917969 75.589844 52.863281 74.273438 C 52.992188 67.128906 51.804688 60.007812 51.261719 52.894531 C 52.195312 52.160156 52.683594 50.996094 54.039062 51.078125 L 58.054688 45.855469 C 58.285156 45.71875 59.613281 46.15625 59.953125 46.261719 C 60.359375 46.386719 61.492188 46.707031 61.71875 46.996094 C 62.050781 47.421875 62.800781 49.335938 62.980469 49.925781 C 65.464844 58.039062 62.488281 66.238281 63.542969 74.539062 C 63.625 75.210938 64.046875 76.609375 64.019531 77.15625 C 64.003906 77.453125 62.929688 77.910156 62.628906 78.042969 C 61.800781 78.414062 60.652344 78.824219 59.785156 79.097656 C 51.996094 81.550781 43.382812 81.023438 36.074219 77.382812 C 36.15625 75.902344 36.511719 74.429688 36.65625 72.953125 C 37.425781 65.175781 34.699219 57.800781 37.027344 49.945312 C 37.171875 49.457031 38.039062 47.226562 38.308594 46.933594 C 38.558594 46.667969 41.761719 45.699219 42.03125 45.855469 Z M 42.03125 45.855469 "/>
<path style=" stroke:none;fill-rule:nonzero;fill:rgb(58.431375%,85.09804%,93.725491%);fill-opacity:1;" d="M 36.757812 47.429688 C 36.519531 48.21875 36.179688 48.964844 35.933594 49.75 C 34.75 53.535156 34.558594 57.925781 34.761719 61.863281 C 34.808594 62.8125 35.332031 66.269531 35.109375 66.902344 C 34.894531 67.511719 34.332031 67.984375 34.265625 68.871094 C 34.222656 69.492188 34.726562 70.257812 34.660156 70.746094 C 34.628906 70.992188 34.121094 71.65625 34.011719 72.003906 C 33.871094 72.457031 33.933594 73.191406 33.710938 73.5 C 33.449219 73.855469 32.050781 74.199219 31.628906 74.582031 C 31.445312 74.566406 30.160156 73.59375 29.917969 73.398438 C 28.71875 72.433594 27.367188 71.128906 26.371094 69.953125 C 26.128906 69.664062 24.949219 68.21875 24.984375 67.980469 C 25.039062 67.609375 26.183594 66.707031 26.242188 66.34375 C 26.34375 65.730469 25.601562 65.511719 26.378906 64.671875 C 26.625 64.40625 27.128906 64.210938 27.324219 64.015625 C 27.527344 63.8125 28.128906 61.511719 28.242188 61.039062 C 28.839844 58.589844 29.082031 55.8125 29.734375 53.441406 C 30.054688 52.265625 30.558594 51.519531 31.398438 50.660156 C 32.851562 49.175781 34.773438 48.035156 36.757812 47.429688 Z M 36.757812 47.429688 "/>
<path style=" stroke:none;fill-rule:nonzero;fill:rgb(58.431375%,85.09804%,93.725491%);fill-opacity:1;" d="M 67.65625 49.792969 C 70.726562 52.394531 70.21875 53.726562 70.964844 57.324219 C 71.136719 58.148438 72.355469 63.695312 72.644531 63.988281 C 72.746094 64.09375 73.253906 64.328125 73.464844 64.515625 C 74.472656 65.421875 73.613281 65.585938 73.839844 66.433594 C 73.953125 66.863281 75.015625 67.738281 75.015625 68.058594 C 73.183594 70.597656 70.917969 72.839844 68.371094 74.671875 L 66.25 73.476562 C 66.050781 72.976562 66.1875 72.472656 66.019531 71.957031 C 65.828125 71.367188 65.335938 71.152344 65.449219 70.378906 C 65.550781 69.671875 65.839844 69.375 65.71875 68.464844 C 65.625 67.765625 65.117188 67.296875 64.972656 66.8125 C 64.722656 65.980469 65.285156 62.703125 65.332031 61.570312 C 65.527344 56.824219 65.175781 51.847656 63.226562 47.480469 C 63.226562 47.230469 64.691406 47.933594 64.816406 47.992188 C 65.882812 48.492188 66.78125 49.050781 67.660156 49.792969 Z M 67.65625 49.792969 "/>
<path style=" stroke:none;fill-rule:nonzero;fill:rgb(58.431375%,85.09804%,93.725491%);fill-opacity:1;" d="M 59.234375 36.941406 C 59.457031 38.625 58.542969 40.203125 56.96875 40.824219 C 56.667969 40.941406 55.601562 41.316406 55.535156 40.886719 C 55.363281 39.757812 55.792969 40.039062 56.429688 39.582031 C 57.289062 38.96875 57.433594 37.832031 57.324219 36.851562 C 52.484375 36.292969 47.5625 36.34375 42.714844 36.835938 L 42.644531 36.902344 C 42.589844 37.8125 42.65625 38.722656 43.347656 39.394531 C 43.992188 40.015625 44.707031 39.714844 44.449219 41.039062 C 42.234375 41.195312 40.402344 39.152344 40.753906 36.941406 C 39.824219 37.070312 39.070312 36.574219 39.050781 35.597656 C 39.015625 33.558594 39.054688 31.238281 39.164062 29.199219 C 39.183594 28.816406 38.976562 28.746094 39.207031 28.25 C 39.460938 27.699219 39.882812 27.488281 40.449219 27.398438 C 46.328125 26.488281 53.242188 26.625 59.128906 27.40625 C 59.277344 27.425781 59.433594 27.355469 59.558594 27.378906 C 60.472656 27.546875 60.851562 28.117188 60.929688 29.003906 C 61.070312 30.582031 61.109375 34.148438 60.929688 35.695312 C 60.828125 36.613281 60.132812 37.070312 59.234375 36.941406 Z M 48.023438 28.582031 C 46.597656 28.625 45.121094 28.703125 43.699219 28.851562 C 43.277344 28.894531 41.605469 29.039062 41.355469 29.207031 C 41.199219 29.3125 41.074219 29.703125 41.050781 29.898438 C 40.980469 30.480469 40.984375 32.015625 41.050781 32.597656 C 41.101562 33.03125 41.265625 33.144531 41.652344 33.304688 C 45.460938 32.953125 49.28125 32.691406 53.09375 32.84375 C 54.351562 32.890625 55.632812 33.097656 56.886719 33.144531 C 57.445312 33.164062 58.722656 33.328125 58.914062 32.675781 C 58.996094 32.394531 58.984375 30.066406 58.925781 29.707031 C 58.882812 29.417969 58.707031 29.207031 58.441406 29.09375 C 54.984375 28.714844 51.503906 28.46875 48.023438 28.582031 Z M 48.023438 28.582031 "/>
<path style=" stroke:none;fill-rule:nonzero;fill:rgb(58.431375%,85.09804%,93.725491%);fill-opacity:1;" d="M 59.234375 26.453125 C 57.878906 26.398438 56.535156 26.152344 55.1875 26.054688 C 50.210938 25.695312 46.203125 26.085938 41.308594 26.457031 C 40.6875 26.503906 40.640625 26.496094 40.851562 25.902344 C 43.085938 19.519531 51.164062 17.277344 56.335938 21.707031 C 57.671875 22.851562 58.84375 24.742188 59.234375 26.453125 Z M 59.234375 26.453125 "/>
<path style=" stroke:none;fill-rule:nonzero;fill:rgb(58.431375%,85.09804%,93.725491%);fill-opacity:1;" d="M 49.109375 47.695312 C 48.480469 48.410156 47.550781 49.097656 46.9375 49.867188 C 46.855469 49.949219 46.761719 50.011719 46.636719 49.984375 C 46.386719 49.925781 43.933594 46.671875 43.546875 46.183594 C 43.097656 45.613281 42.355469 45.328125 43.050781 44.585938 C 43.183594 44.445312 43.375 44.382812 43.503906 44.238281 C 43.730469 43.992188 44.417969 42.980469 44.75 43.074219 L 49.25 47.078125 C 49.445312 47.273438 49.257812 47.523438 49.109375 47.695312 Z M 49.109375 47.695312 "/>
<path style=" stroke:none;fill-rule:nonzero;fill:rgb(58.431375%,85.09804%,93.725491%);fill-opacity:1;" d="M 56.5 44.167969 C 56.597656 44.285156 57.167969 44.984375 57.191406 45.035156 C 57.242188 45.148438 57.257812 45.21875 57.183594 45.328125 L 53.644531 49.679688 C 53.484375 49.878906 53.292969 50.015625 53.042969 49.878906 L 50.738281 47.484375 L 50.6875 47.230469 L 55.242188 43.082031 C 55.558594 42.976562 55.929688 43.675781 56.132812 43.890625 C 56.246094 44.011719 56.421875 44.078125 56.5 44.167969 Z M 56.5 44.167969 "/>
</g>
</svg>
