<?xml version="1.0" encoding="UTF-8"?>
<svg xmlns="http://www.w3.org/2000/svg" xmlns:xlink="http://www.w3.org/1999/xlink" width="100px" height="100px" viewBox="0 0 100 100" version="1.1">
<defs>
<clipPath id="clip1">
  <path d="M 9.328125 9.328125 L 90.671875 9.328125 L 90.671875 90.671875 L 9.328125 90.671875 Z M 9.328125 9.328125 "/>
</clipPath>
</defs>
<g id="surface1">
<g clip-path="url(#clip1)" clip-rule="nonzero">
<path style=" stroke:none;fill-rule:nonzero;fill:rgb(6.27451%,32.549021%,47.450981%);fill-opacity:1;" d="M 9.328125 50 C 9.328125 27.539062 27.539062 9.328125 50 9.328125 C 72.460938 9.328125 90.671875 27.539062 90.671875 50 C 90.671875 72.460938 72.460938 90.671875 50 90.671875 C 27.539062 90.671875 9.328125 72.460938 9.328125 50 "/>
</g>
<path style=" stroke:none;fill-rule:nonzero;fill:rgb(58.823532%,85.490197%,94.509804%);fill-opacity:1;" d="M 13.722656 50 C 13.722656 29.964844 29.964844 13.722656 50 13.722656 C 70.035156 13.722656 86.277344 29.964844 86.277344 50 C 86.277344 70.035156 70.035156 86.277344 50 86.277344 C 29.964844 86.277344 13.722656 70.035156 13.722656 50 "/>
<path style=" stroke:none;fill-rule:nonzero;fill:rgb(6.27451%,32.549021%,47.450981%);fill-opacity:1;" d="M 17.546875 50 C 17.546875 32.078125 32.078125 17.546875 50 17.546875 C 67.921875 17.546875 82.453125 32.078125 82.453125 50 C 82.453125 67.921875 67.921875 82.453125 50 82.453125 C 32.078125 82.453125 17.546875 67.921875 17.546875 50 "/>
<path style=" stroke:none;fill-rule:nonzero;fill:rgb(58.039218%,84.705883%,93.725491%);fill-opacity:1;" d="M 45.742188 29.59375 C 45.5625 30.25 45.414062 30.953125 45.1875 31.589844 C 44.992188 32.152344 44.5625 32.742188 44.464844 33.363281 C 44.246094 34.769531 44.828125 36.207031 46.136719 36.839844 C 46.753906 37.136719 49.957031 37.769531 50.683594 37.792969 C 52.5 37.847656 54.140625 35.941406 53.304688 34.167969 C 53.128906 33.789062 52.722656 33.53125 52.605469 33.265625 C 52.378906 32.738281 53.121094 31.488281 53.246094 30.90625 C 53.417969 30.859375 53.59375 30.890625 53.769531 30.90625 C 55.121094 31.03125 57.304688 31.414062 58.628906 31.738281 C 59.5625 31.96875 60.21875 32.269531 60.804688 33.058594 C 61.546875 34.058594 64.515625 38.84375 64.8125 39.839844 C 65.054688 40.644531 65.007812 41.195312 64.890625 42.003906 C 63.535156 51.433594 61.136719 60.929688 59.695312 70.371094 C 59.332031 71.765625 58.464844 72.707031 56.976562 72.84375 C 47.535156 71.371094 38.082031 69.652344 28.691406 67.871094 C 27.136719 67.207031 26.980469 65.953125 27.191406 64.4375 C 28.503906 55.140625 30.890625 45.777344 32.285156 36.46875 C 32.652344 35 33.203125 34.605469 34.253906 33.640625 C 35.269531 32.699219 38.828125 29.449219 39.878906 29.078125 C 41.609375 28.460938 43.9375 29.550781 45.742188 29.59375 Z M 36.425781 39.605469 C 35.359375 39.800781 35.097656 40.800781 34.902344 41.679688 C 33.417969 48.320312 32.609375 55.253906 31.167969 61.921875 C 30.980469 63.25 31.527344 64.191406 32.832031 64.527344 L 54.914062 68.429688 C 56.011719 68.429688 56.898438 67.773438 57.097656 66.675781 L 60.894531 45.898438 C 61.132812 44.679688 60.539062 43.710938 59.347656 43.40625 L 37.488281 39.597656 C 37.144531 39.585938 36.761719 39.546875 36.425781 39.605469 Z M 36.425781 39.605469 "/>
<path style=" stroke:none;fill-rule:nonzero;fill:rgb(58.039218%,84.705883%,93.725491%);fill-opacity:1;" d="M 60.324219 21.40625 C 60.3125 21.542969 60.179688 21.5625 60.078125 21.609375 C 59.542969 21.855469 59.019531 21.972656 58.460938 22.285156 C 54.0625 24.738281 52.148438 30.910156 50.839844 35.449219 L 46.816406 34.761719 C 44.652344 34.082031 46.011719 29.992188 46.589844 28.496094 C 47.570312 25.972656 50.933594 20.304688 53.980469 20.300781 Z M 60.324219 21.40625 "/>
<path style=" stroke:none;fill-rule:nonzero;fill:rgb(58.039218%,84.705883%,93.725491%);fill-opacity:1;" d="M 48.9375 53.867188 C 48.941406 54.199219 49.316406 54.101562 49.414062 54.539062 C 49.589844 55.320312 49.175781 58.074219 48.535156 58.609375 C 48.40625 58.714844 47.949219 58.929688 47.78125 58.957031 C 46.835938 59.105469 44.070312 58.730469 43.105469 58.453125 C 42.792969 58.363281 42.578125 58.328125 42.652344 57.929688 C 43.296875 54.933594 43.59375 51.839844 44.273438 48.855469 C 44.363281 48.457031 44.359375 47.769531 44.875 47.78125 C 46.140625 48.074219 47.511719 48.140625 48.757812 48.503906 C 49.949219 48.847656 50.40625 49.316406 50.339844 50.625 C 50.3125 51.121094 49.890625 53.398438 49.589844 53.671875 C 49.402344 53.835938 49.179688 53.878906 48.9375 53.867188 Z M 45.84375 52.464844 C 46.574219 52.5 47.566406 53.101562 47.910156 52.195312 C 48.53125 50.558594 47.917969 50.195312 46.335938 50.113281 C 46.121094 50.257812 45.921875 52.089844 45.84375 52.464844 Z M 45.148438 56.757812 C 46.644531 57.074219 47.304688 57.191406 47.34375 55.410156 C 47.363281 54.4375 46.246094 54.484375 45.535156 54.40625 C 45.402344 54.511719 45.058594 56.664062 45.148438 56.757812 Z M 45.148438 56.757812 "/>
<path style=" stroke:none;fill-rule:nonzero;fill:rgb(58.039218%,84.705883%,93.725491%);fill-opacity:1;" d="M 41.746094 58.164062 L 39.65625 57.851562 C 39.574219 57.441406 39.636719 55.734375 39.40625 55.554688 C 39.3125 55.480469 37.132812 55.140625 37.019531 55.175781 C 36.769531 55.25 36.328125 56.839844 36.136719 57.148438 C 35.4375 57.238281 34.75 57.027344 34.058594 56.960938 L 34.078125 56.4375 C 35.5 53.480469 36.519531 49.898438 38.0625 47.039062 C 38.128906 46.914062 38.164062 46.746094 38.316406 46.691406 C 38.605469 46.589844 39.785156 46.832031 40.164062 46.90625 C 40.421875 46.957031 41.269531 47.050781 41.332031 47.238281 Z M 39.449219 53.71875 C 39.25 52.292969 39.59375 50.445312 39.449219 48.972656 L 37.644531 53.515625 C 37.632812 53.738281 37.660156 53.640625 37.796875 53.667969 C 38.027344 53.707031 39.476562 53.917969 39.546875 53.867188 C 39.570312 53.789062 39.453125 53.753906 39.449219 53.71875 Z M 39.449219 53.71875 "/>
<path style=" stroke:none;fill-rule:nonzero;fill:rgb(58.039218%,84.705883%,93.725491%);fill-opacity:1;" d="M 57.195312 50.304688 C 57.480469 50.589844 57.636719 51.222656 57.636719 51.621094 C 57.636719 51.964844 57.421875 53.289062 57.308594 53.597656 C 57.277344 53.679688 57.257812 53.730469 57.164062 53.761719 C 56.90625 53.84375 55.628906 53.40625 55.230469 53.464844 C 55.15625 52.785156 55.816406 52.042969 55.066406 51.585938 C 54.042969 50.964844 53.675781 51.535156 53.460938 52.449219 C 53.082031 54.058594 52.964844 55.816406 52.5625 57.433594 C 52.5625 57.992188 53.5 58.351562 53.976562 58.261719 C 54.535156 58.15625 54.515625 57.117188 54.640625 56.675781 C 54.714844 56.613281 56.441406 56.847656 56.535156 56.910156 C 56.824219 57.105469 56.367188 59.039062 56.203125 59.382812 C 56.011719 59.785156 55.597656 60.148438 55.15625 60.238281 C 54.335938 60.40625 51.4375 60.003906 50.800781 59.445312 C 50.25 58.964844 50.289062 58.179688 50.335938 57.515625 C 50.457031 55.90625 51.078125 52.769531 51.480469 51.167969 C 51.660156 50.445312 51.898438 49.707031 52.726562 49.515625 C 53.609375 49.3125 56.535156 49.644531 57.195312 50.304688 Z M 57.195312 50.304688 "/>
</g>
</svg>
