<?xml version="1.0" encoding="UTF-8"?>
<svg xmlns="http://www.w3.org/2000/svg" xmlns:xlink="http://www.w3.org/1999/xlink" width="100px" height="100px" viewBox="0 0 100 100" version="1.1">
<g id="surface1">
<path style=" stroke:none;fill-rule:nonzero;fill:rgb(6.27451%,32.549021%,47.450981%);fill-opacity:1;" d="M 9.328125 50 C 9.328125 27.539062 27.539062 9.328125 50 9.328125 C 72.460938 9.328125 90.671875 27.539062 90.671875 50 C 90.671875 72.460938 72.460938 90.671875 50 90.671875 C 27.539062 90.671875 9.328125 72.460938 9.328125 50 "/>
<path style=" stroke:none;fill-rule:nonzero;fill:rgb(58.431375%,84.705883%,93.725491%);fill-opacity:1;" d="M 86.359375 50 C 86.359375 70.082031 70.082031 86.359375 50 86.359375 C 29.917969 86.359375 13.640625 70.082031 13.640625 50 C 13.640625 29.917969 29.917969 13.640625 50 13.640625 C 70.082031 13.640625 86.359375 29.917969 86.359375 50 Z M 32.316406 77.199219 C 32.574219 73.570312 34.007812 70.539062 37.023438 68.46875 C 38.28125 67.601562 41.726562 65.898438 43.183594 65.734375 C 43.726562 65.671875 44.019531 66.195312 44.476562 66.492188 C 47.363281 68.355469 52.457031 68.433594 55.398438 66.664062 C 55.730469 66.464844 56.484375 65.746094 56.75 65.710938 C 57.277344 65.644531 59.925781 66.710938 60.554688 66.992188 C 64.316406 68.679688 66.800781 71.027344 67.632812 75.199219 C 67.871094 76.382812 67.394531 77.398438 68.851562 76.523438 C 73.804688 73.554688 78.769531 66.25 80.667969 60.867188 C 90.566406 32.816406 60.335938 7.226562 34.25 21.644531 C 13.488281 33.117188 11.621094 62.765625 31.089844 76.480469 C 31.289062 76.621094 32.179688 77.292969 32.316406 77.199219 Z M 32.316406 77.199219 "/>
<path style=" stroke:none;fill-rule:nonzero;fill:rgb(58.431375%,84.705883%,93.725491%);fill-opacity:1;" d="M 55.554688 46.671875 C 61.554688 51.144531 60.144531 62.265625 52.597656 64.363281 C 44.460938 66.621094 39.070312 58.351562 41.539062 51.007812 C 43.523438 45.09375 50.542969 42.9375 55.554688 46.671875 Z M 55.554688 46.671875 "/>
<path style=" stroke:none;fill-rule:nonzero;fill:rgb(58.431375%,84.705883%,93.725491%);fill-opacity:1;" d="M 49.773438 22.484375 C 50.234375 22.402344 50.765625 22.460938 51.042969 22.863281 C 51.988281 24.390625 52.558594 26.636719 53.511719 28.089844 C 53.738281 28.4375 53.957031 28.558594 54.355469 28.640625 C 56.148438 29.015625 58.320312 28.910156 60.113281 29.273438 C 61.003906 29.457031 61.214844 30.488281 60.789062 31.199219 C 59.675781 32.316406 58.417969 33.296875 57.289062 34.394531 C 57.09375 34.585938 56.15625 35.46875 56.109375 35.617188 C 56.039062 35.863281 56.175781 36.382812 56.222656 36.664062 C 56.507812 38.347656 57 40.007812 57.292969 41.691406 C 57.199219 42.597656 56.847656 42.917969 55.9375 42.84375 C 55.164062 42.777344 52.683594 41.144531 51.800781 40.6875 C 51.253906 40.402344 50.699219 40.117188 50.132812 39.867188 C 49.914062 39.855469 48.515625 40.621094 48.199219 40.785156 C 47.414062 41.199219 45.183594 42.679688 44.53125 42.8125 C 43.589844 43.007812 42.933594 42.722656 42.914062 41.703125 L 44.089844 35.71875 C 42.75 34.035156 40.910156 32.757812 39.410156 31.199219 C 39.003906 30.613281 39.136719 29.609375 39.867188 29.359375 C 41.609375 29.050781 43.398438 29.015625 45.140625 28.738281 C 45.726562 28.648438 46.21875 28.703125 46.585938 28.1875 C 47.589844 26.773438 48.132812 24.316406 49.117188 22.925781 C 49.296875 22.671875 49.453125 22.542969 49.773438 22.484375 Z M 49.773438 22.484375 "/>
</g>
</svg>
