<?xml version="1.0" encoding="UTF-8"?>
<svg xmlns="http://www.w3.org/2000/svg" xmlns:xlink="http://www.w3.org/1999/xlink" width="100px" height="100px" viewBox="0 0 100 100" version="1.1">
<defs>
<clipPath id="clip1">
  <path d="M 9.328125 9.328125 L 90.671875 9.328125 L 90.671875 90.671875 L 9.328125 90.671875 Z M 9.328125 9.328125 "/>
</clipPath>
</defs>
<g id="surface1">
<g clip-path="url(#clip1)" clip-rule="nonzero">
<path style=" stroke:none;fill-rule:nonzero;fill:rgb(6.27451%,32.549021%,47.450981%);fill-opacity:1;" d="M 9.328125 50 C 9.328125 27.539062 27.539062 9.328125 50 9.328125 C 72.460938 9.328125 90.671875 27.539062 90.671875 50 C 90.671875 72.460938 72.460938 90.671875 50 90.671875 C 27.539062 90.671875 9.328125 72.460938 9.328125 50 "/>
</g>
<path style=" stroke:none;fill-rule:nonzero;fill:rgb(58.823532%,85.490197%,94.509804%);fill-opacity:1;" d="M 13.722656 50 C 13.722656 29.964844 29.964844 13.722656 50 13.722656 C 70.035156 13.722656 86.277344 29.964844 86.277344 50 C 86.277344 70.035156 70.035156 86.277344 50 86.277344 C 29.964844 86.277344 13.722656 70.035156 13.722656 50 "/>
<path style=" stroke:none;fill-rule:nonzero;fill:rgb(6.27451%,32.549021%,47.450981%);fill-opacity:1;" d="M 17.546875 50 C 17.546875 32.078125 32.078125 17.546875 50 17.546875 C 67.921875 17.546875 82.453125 32.078125 82.453125 50 C 82.453125 67.921875 67.921875 82.453125 50 82.453125 C 32.078125 82.453125 17.546875 67.921875 17.546875 50 "/>
<path style=" stroke:none;fill-rule:nonzero;fill:rgb(58.039218%,84.705883%,93.725491%);fill-opacity:1;" d="M 26.070312 60.875 C 26 60.75 26.074219 60.636719 26.160156 60.539062 C 26.449219 60.21875 27.367188 59.867188 27.703125 59.484375 C 34.183594 55.683594 40.195312 50.957031 46.703125 47.21875 C 46.882812 47.117188 47.425781 46.785156 47.578125 46.800781 L 71.714844 62.433594 L 49.691406 76.171875 Z M 47.214844 54.125 C 43.085938 54.382812 42.304688 58.304688 46.140625 59.835938 C 48.054688 60.601562 51.460938 60.480469 52.367188 58.277344 C 53.480469 55.582031 49.324219 53.992188 47.214844 54.125 Z M 45.273438 68.144531 C 47.523438 70.453125 54.417969 69.605469 53.203125 65.859375 C 52.289062 63.050781 47.148438 62.527344 45.199219 64.492188 C 44.085938 65.617188 44.199219 67.039062 45.273438 68.144531 Z M 45.273438 68.144531 "/>
<path style=" stroke:none;fill-rule:nonzero;fill:rgb(58.039218%,84.705883%,93.725491%);fill-opacity:1;" d="M 51.53125 23.828125 L 73.957031 38.210938 L 71.957031 61.1875 L 48.082031 45.800781 Z M 55.464844 31.753906 C 54.105469 33.113281 55.425781 35.8125 56.472656 37.015625 C 57.527344 38.222656 59.996094 39.808594 61.425781 38.367188 C 63.699219 36.0625 59.046875 29.953125 55.902344 31.445312 C 55.792969 31.496094 55.550781 31.667969 55.464844 31.753906 Z M 66.1875 37.636719 C 65.640625 37.742188 64.984375 38.179688 64.742188 38.6875 C 63.425781 41.457031 67.941406 46.75 70.644531 44.988281 C 72.484375 43.789062 71.058594 40.683594 69.960938 39.410156 C 69.222656 38.546875 67.332031 37.417969 66.1875 37.636719 Z M 54.503906 40.136719 C 53.949219 40.261719 53.347656 40.863281 53.179688 41.40625 C 52.347656 44.066406 55.972656 48.5 58.746094 47.773438 C 59.738281 47.511719 60.242188 46.539062 60.230469 45.550781 C 60.195312 43.121094 57.089844 39.550781 54.503906 40.136719 Z M 64.59375 46.222656 C 63.652344 46.292969 62.878906 47.121094 62.683594 48.015625 C 62.375 49.394531 63.5625 51.554688 64.515625 52.546875 C 65.550781 53.628906 67.683594 54.914062 69.015625 53.648438 C 71.328125 51.449219 67.464844 46.007812 64.59375 46.222656 Z M 64.59375 46.222656 "/>
<path style=" stroke:none;fill-rule:nonzero;fill:rgb(58.039218%,84.705883%,93.725491%);fill-opacity:1;" d="M 26.359375 59.089844 C 27.023438 55.285156 27.601562 51.464844 28.269531 47.660156 C 28.292969 47.507812 28.417969 47.394531 28.445312 47.242188 C 29.054688 43.773438 29.476562 40.285156 30.25 36.855469 C 35.71875 33.242188 41.296875 29.785156 46.824219 26.261719 C 47.667969 25.722656 48.535156 25.023438 49.378906 24.523438 C 49.5 24.453125 50.230469 24.027344 50.28125 24.03125 C 50.496094 24.039062 50.351562 24.808594 50.324219 24.96875 C 49.804688 27.824219 49.296875 30.808594 48.84375 33.675781 C 48.203125 37.730469 47.632812 41.757812 46.984375 45.804688 C 40.625 49.972656 34.15625 53.980469 27.847656 58.230469 Z M 39.917969 36.4375 C 37.21875 36.953125 33.53125 42.566406 34.867188 45.136719 C 35.515625 46.378906 37.171875 45.722656 38.039062 45.046875 C 39.777344 43.683594 42.035156 40.152344 41.714844 37.886719 C 41.582031 36.949219 40.90625 36.25 39.917969 36.4375 Z M 39.917969 36.4375 "/>
</g>
</svg>
