<?xml version="1.0" encoding="UTF-8"?>
<svg xmlns="http://www.w3.org/2000/svg" xmlns:xlink="http://www.w3.org/1999/xlink" width="100px" height="100px" viewBox="0 0 100 100" version="1.1">
<defs>
<clipPath id="clip1">
  <path d="M 9.328125 9.328125 L 90.671875 9.328125 L 90.671875 90.671875 L 9.328125 90.671875 Z M 9.328125 9.328125 "/>
</clipPath>
</defs>
<g id="surface1">
<g clip-path="url(#clip1)" clip-rule="nonzero">
<path style=" stroke:none;fill-rule:nonzero;fill:rgb(6.27451%,32.549021%,47.450981%);fill-opacity:1;" d="M 9.328125 50 C 9.328125 27.539062 27.539062 9.328125 50 9.328125 C 72.460938 9.328125 90.671875 27.539062 90.671875 50 C 90.671875 72.460938 72.460938 90.671875 50 90.671875 C 27.539062 90.671875 9.328125 72.460938 9.328125 50 "/>
</g>
<path style=" stroke:none;fill-rule:nonzero;fill:rgb(58.823532%,85.490197%,94.509804%);fill-opacity:1;" d="M 13.722656 50 C 13.722656 29.964844 29.964844 13.722656 50 13.722656 C 70.035156 13.722656 86.277344 29.964844 86.277344 50 C 86.277344 70.035156 70.035156 86.277344 50 86.277344 C 29.964844 86.277344 13.722656 70.035156 13.722656 50 "/>
<path style=" stroke:none;fill-rule:nonzero;fill:rgb(6.27451%,32.549021%,47.450981%);fill-opacity:1;" d="M 17.546875 50 C 17.546875 32.078125 32.078125 17.546875 50 17.546875 C 67.921875 17.546875 82.453125 32.078125 82.453125 50 C 82.453125 67.921875 67.921875 82.453125 50 82.453125 C 32.078125 82.453125 17.546875 67.921875 17.546875 50 "/>
<path style=" stroke:none;fill-rule:nonzero;fill:rgb(58.039218%,84.705883%,93.725491%);fill-opacity:1;" d="M 37.167969 27.476562 C 37.925781 28.542969 38.425781 29.800781 39.21875 30.824219 C 39.367188 31.015625 39.222656 31.179688 39.585938 31.246094 L 64.335938 31.273438 C 67.445312 31.433594 69.5 34.625 66.253906 36.582031 C 63.703125 38.121094 59.828125 36.949219 57.003906 37.421875 C 53.964844 39.742188 51.011719 42.160156 47.972656 44.476562 C 47.261719 45.015625 46.234375 46.054688 45.257812 46.054688 L 39.816406 46.054688 L 44.0625 37.570312 L 44.109375 37.265625 C 44.074219 37.214844 43.984375 37.367188 43.960938 37.367188 L 37.367188 37.367188 C 37.261719 37.367188 36.613281 37.21875 36.464844 37.171875 C 35.949219 37.011719 35.628906 36.625 35.339844 36.199219 C 34.234375 33.421875 33.855469 30.355469 33.023438 27.476562 Z M 37.167969 27.476562 "/>
<path style=" stroke:none;fill-rule:nonzero;fill:rgb(58.039218%,84.705883%,93.725491%);fill-opacity:1;" d="M 41.3125 55.945312 C 41.28125 56.191406 41.410156 56.75 41.214844 56.894531 C 40.992188 57.0625 39.554688 57.226562 39.152344 57.328125 C 36.589844 57.988281 31.320312 59.648438 30.519531 62.480469 C 29.804688 65.023438 33.597656 66.964844 35.492188 67.707031 C 43.300781 70.769531 56.496094 70.832031 64.3125 67.804688 C 66.234375 67.0625 70.011719 65.167969 69.535156 62.632812 C 69.035156 59.957031 64.515625 58.347656 62.210938 57.671875 C 60.988281 57.3125 59.742188 57.0625 58.492188 56.796875 C 58.308594 56.671875 58.421875 56.167969 58.394531 55.945312 C 58.476562 55.941406 58.558594 55.941406 58.640625 55.945312 C 62.457031 56.210938 69.289062 58.003906 72.132812 60.636719 C 74.246094 62.597656 74.242188 65.117188 72.28125 67.183594 C 72.070312 67.410156 70.945312 68.230469 70.980469 68.378906 L 74.476562 71.328125 C 73.367188 71.230469 72.238281 71.289062 71.132812 71.226562 C 69.851562 71.152344 67.914062 70.753906 66.734375 70.820312 C 66.007812 70.859375 63.683594 71.867188 62.714844 72.101562 C 54.78125 74.03125 44.386719 74.027344 36.496094 71.898438 C 35.652344 71.671875 33.984375 70.898438 33.273438 70.824219 C 32.167969 70.710938 30.015625 71.15625 28.777344 71.226562 C 27.703125 71.289062 26.605469 71.222656 25.53125 71.328125 C 25.492188 71.160156 25.585938 71.125 25.683594 71.03125 C 25.992188 70.726562 26.617188 70.234375 26.984375 69.933594 C 27.625 69.402344 28.328125 68.886719 29.027344 68.429688 C 29.15625 68.238281 28.246094 67.695312 28.074219 67.535156 C 24.691406 64.371094 26.410156 61.222656 29.859375 59.222656 C 33.207031 57.285156 37.53125 56.558594 41.3125 55.945312 Z M 41.3125 55.945312 "/>
<path style=" stroke:none;fill-rule:nonzero;fill:rgb(58.039218%,84.705883%,93.725491%);fill-opacity:1;" d="M 64.238281 43.558594 C 64.386719 43.585938 65.238281 43.976562 65.417969 44.078125 C 67.492188 45.242188 66.875 47.855469 64.789062 48.503906 C 64.671875 48.539062 63.792969 48.753906 63.738281 48.753906 L 55.796875 48.753906 L 55.796875 43.558594 Z M 64.238281 43.558594 "/>
<path style=" stroke:none;fill-rule:nonzero;fill:rgb(58.039218%,84.705883%,93.725491%);fill-opacity:1;" d="M 47.207031 56.144531 L 47.207031 50.851562 L 54.351562 50.851562 C 55.050781 50.851562 56.855469 51.617188 57.351562 52.144531 C 58.175781 53.023438 58.222656 54.65625 57.191406 55.390625 C 56.871094 55.617188 55.605469 56.144531 55.25 56.144531 Z M 47.207031 56.144531 "/>
<path style=" stroke:none;fill-rule:nonzero;fill:rgb(58.039218%,84.705883%,93.725491%);fill-opacity:1;" d="M 40.414062 63.636719 L 40.414062 59.042969 L 47.058594 59.042969 C 47.859375 59.042969 48.964844 59.480469 49.488281 60.105469 C 50.351562 61.136719 50.089844 62.554688 48.910156 63.191406 C 48.742188 63.285156 47.6875 63.636719 47.558594 63.636719 Z M 40.414062 63.636719 "/>
<path style=" stroke:none;fill-rule:nonzero;fill:rgb(58.039218%,84.705883%,93.725491%);fill-opacity:1;" d="M 49.855469 26.476562 L 55.097656 30.074219 L 45.957031 30.074219 L 43.511719 26.476562 Z M 49.855469 26.476562 "/>
<path style=" stroke:none;fill-rule:nonzero;fill:rgb(58.039218%,84.705883%,93.725491%);fill-opacity:1;" d="M 46.207031 50.851562 L 46.207031 56.144531 L 43.960938 56.144531 C 43.648438 56.144531 43.003906 55.410156 42.933594 55.074219 C 42.835938 54.582031 42.847656 52.632812 42.910156 52.097656 C 42.972656 51.5625 43.644531 50.851562 44.160156 50.851562 Z M 46.207031 50.851562 "/>
<path style=" stroke:none;fill-rule:nonzero;fill:rgb(58.039218%,84.705883%,93.725491%);fill-opacity:1;" d="M 54.800781 43.558594 L 54.800781 48.753906 L 52.851562 48.753906 C 52.8125 48.753906 52.203125 48.503906 52.148438 48.457031 C 52.007812 48.347656 51.882812 48.03125 51.847656 47.859375 C 51.738281 47.347656 51.730469 44.9375 51.878906 44.484375 C 51.992188 44.140625 52.472656 43.558594 52.851562 43.558594 Z M 54.800781 43.558594 "/>
<path style=" stroke:none;fill-rule:nonzero;fill:rgb(58.039218%,84.705883%,93.725491%);fill-opacity:1;" d="M 39.417969 59.042969 L 39.417969 63.636719 L 37.269531 63.636719 C 37.234375 63.636719 36.78125 63.355469 36.714844 63.292969 C 36.105469 62.707031 36.15625 60.039062 36.761719 59.433594 C 36.898438 59.300781 37.511719 59.042969 37.667969 59.042969 Z M 39.417969 59.042969 "/>
</g>
</svg>
