<?xml version="1.0" encoding="UTF-8"?>
<svg xmlns="http://www.w3.org/2000/svg" xmlns:xlink="http://www.w3.org/1999/xlink" width="100px" height="100px" viewBox="0 0 100 100" version="1.1">
<defs>
<clipPath id="clip1">
  <path d="M 9.328125 9.328125 L 90.671875 9.328125 L 90.671875 90.671875 L 9.328125 90.671875 Z M 9.328125 9.328125 "/>
</clipPath>
</defs>
<g id="surface1">
<g clip-path="url(#clip1)" clip-rule="nonzero">
<path style=" stroke:none;fill-rule:nonzero;fill:rgb(6.27451%,32.549021%,47.450981%);fill-opacity:1;" d="M 9.328125 50 C 9.328125 27.539062 27.539062 9.328125 50 9.328125 C 72.460938 9.328125 90.671875 27.539062 90.671875 50 C 90.671875 72.460938 72.460938 90.671875 50 90.671875 C 27.539062 90.671875 9.328125 72.460938 9.328125 50 "/>
</g>
<path style=" stroke:none;fill-rule:nonzero;fill:rgb(58.823532%,85.490197%,94.509804%);fill-opacity:1;" d="M 13.722656 50 C 13.722656 29.964844 29.964844 13.722656 50 13.722656 C 70.035156 13.722656 86.277344 29.964844 86.277344 50 C 86.277344 70.035156 70.035156 86.277344 50 86.277344 C 29.964844 86.277344 13.722656 70.035156 13.722656 50 "/>
<path style=" stroke:none;fill-rule:nonzero;fill:rgb(6.27451%,32.549021%,47.450981%);fill-opacity:1;" d="M 17.546875 50 C 17.546875 32.078125 32.078125 17.546875 50 17.546875 C 67.921875 17.546875 82.453125 32.078125 82.453125 50 C 82.453125 67.921875 67.921875 82.453125 50 82.453125 C 32.078125 82.453125 17.546875 67.921875 17.546875 50 "/>
<path style=" stroke:none;fill-rule:nonzero;fill:rgb(58.039218%,84.705883%,93.725491%);fill-opacity:1;" d="M 48.957031 33.078125 C 48.871094 32.765625 48.28125 32.820312 48.019531 32.84375 C 44.226562 33.171875 40.472656 36.464844 39.082031 39.894531 C 34.503906 51.175781 48.019531 61.5 57.257812 53.15625 C 61.972656 48.90625 62.65625 42.394531 59.042969 37.191406 C 58.6875 36.679688 57.746094 35.929688 57.855469 35.28125 C 57.949219 34.746094 61.027344 32.632812 61.5625 32.082031 C 62.453125 31.761719 63.359375 33.628906 63.761719 34.253906 C 72.398438 47.765625 60.480469 65.515625 44.613281 60.792969 C 27.917969 55.824219 29.113281 30.566406 47.21875 27.449219 C 47.808594 27.34375 48.863281 27.558594 48.964844 26.792969 C 49.09375 25.789062 48.78125 24.335938 48.957031 23.390625 C 49.085938 22.699219 50.023438 23.4375 50.304688 23.640625 C 52.800781 25.46875 55.128906 27.765625 57.660156 29.582031 C 58.011719 29.820312 58.109375 30.285156 57.761719 30.585938 L 49.992188 36.707031 C 49.832031 36.976562 48.957031 37.011719 48.957031 36.773438 Z M 48.957031 33.078125 "/>
<path style=" stroke:none;fill-rule:nonzero;fill:rgb(58.039218%,84.705883%,93.725491%);fill-opacity:1;" d="M 57.058594 63.394531 L 59.433594 68.160156 L 59.65625 68.289062 L 59.65625 63.394531 L 61.65625 63.394531 L 61.65625 72.683594 L 59.507812 72.683594 L 57.175781 68.121094 L 56.859375 67.890625 L 56.859375 72.433594 C 56.859375 72.46875 56.726562 72.585938 56.757812 72.683594 L 54.859375 72.683594 L 54.859375 63.394531 Z M 57.058594 63.394531 "/>
<path style=" stroke:none;fill-rule:nonzero;fill:rgb(58.039218%,84.705883%,93.725491%);fill-opacity:1;" d="M 34.207031 63.394531 C 36.589844 63.621094 37.3125 65.671875 36.710938 67.792969 C 36.484375 68.582031 36.039062 68.792969 35.550781 69.339844 C 35.585938 69.921875 36.808594 72.050781 36.738281 72.421875 C 36.667969 72.796875 34.902344 72.757812 34.65625 72.636719 C 34.347656 72.484375 33.589844 69.695312 33.445312 69.601562 C 33.296875 69.507812 32.507812 69.640625 32.257812 69.589844 L 32.257812 72.433594 C 32.257812 72.46875 32.125 72.585938 32.15625 72.683594 L 30.308594 72.683594 C 30.296875 72.683594 30.15625 72.546875 30.15625 72.535156 L 30.15625 63.546875 C 30.15625 63.535156 30.296875 63.394531 30.308594 63.394531 C 31.527344 63.394531 33.03125 63.285156 34.207031 63.394531 Z M 32.257812 67.789062 C 32.898438 67.730469 33.648438 67.949219 34.265625 67.746094 C 35.042969 67.492188 34.945312 65.195312 34.007812 65.195312 L 32.257812 65.195312 Z M 32.257812 67.789062 "/>
<path style=" stroke:none;fill-rule:nonzero;fill:rgb(58.039218%,84.705883%,93.725491%);fill-opacity:1;" d="M 63.058594 72.683594 L 63.058594 63.394531 L 67.109375 63.394531 C 67.308594 63.394531 68.054688 63.625 68.285156 63.71875 C 69.183594 64.082031 69.679688 64.882812 69.761719 65.839844 C 69.859375 66.964844 69.878906 69.332031 69.757812 70.4375 C 69.667969 71.285156 69.128906 72.089844 68.328125 72.40625 C 68.183594 72.460938 67.40625 72.683594 67.308594 72.683594 Z M 65.058594 70.988281 C 65.953125 70.90625 67.46875 71.265625 67.714844 70.09375 C 67.84375 69.46875 67.84375 66.8125 67.734375 66.167969 C 67.652344 65.667969 67.230469 65.191406 66.707031 65.191406 L 65.058594 65.191406 Z M 65.058594 70.988281 "/>
<path style=" stroke:none;fill-rule:nonzero;fill:rgb(58.039218%,84.705883%,93.725491%);fill-opacity:1;" d="M 40.632812 63.222656 C 42.066406 63.027344 44.410156 63.257812 44.929688 64.871094 C 45.230469 65.804688 45.207031 69.796875 45.035156 70.8125 C 44.6875 72.878906 41.910156 73.144531 40.253906 72.738281 C 38.976562 72.425781 38.269531 71.675781 38.15625 70.339844 C 38.0625 69.25 38.019531 66.300781 38.203125 65.289062 C 38.421875 64.09375 39.488281 63.375 40.632812 63.222656 Z M 42.828125 70.757812 C 43.023438 70.542969 43.140625 69.847656 43.160156 69.542969 C 43.238281 68.371094 42.964844 67.058594 43.035156 65.867188 C 42.570312 64.566406 40.359375 64.605469 40.167969 66.152344 C 40.078125 66.902344 40.066406 69.6875 40.265625 70.332031 C 40.550781 71.261719 42.296875 71.332031 42.828125 70.757812 Z M 42.828125 70.757812 "/>
<path style=" stroke:none;fill-rule:nonzero;fill:rgb(58.039218%,84.705883%,93.725491%);fill-opacity:1;" d="M 51.359375 63.394531 L 53.308594 63.394531 C 53.320312 63.394531 53.457031 63.535156 53.457031 63.546875 L 53.457031 70.238281 C 53.457031 70.585938 53.117188 71.480469 52.902344 71.78125 C 51.796875 73.320312 47.773438 73.273438 46.875 71.519531 C 46.808594 71.386719 46.558594 70.726562 46.558594 70.636719 L 46.558594 63.394531 L 48.410156 63.394531 C 48.417969 63.394531 48.558594 63.535156 48.558594 63.546875 L 48.558594 70.136719 C 48.558594 70.613281 49.460938 71.082031 49.910156 71.09375 C 50.339844 71.105469 51.359375 70.695312 51.359375 70.238281 Z M 51.359375 63.394531 "/>
</g>
</svg>
