<?xml version="1.0" encoding="UTF-8"?>
<svg xmlns="http://www.w3.org/2000/svg" xmlns:xlink="http://www.w3.org/1999/xlink" width="100px" height="100px" viewBox="0 0 100 100" version="1.1">
<defs>
<clipPath id="clip1">
  <path d="M 9.328125 9.328125 L 90.671875 9.328125 L 90.671875 90.671875 L 9.328125 90.671875 Z M 9.328125 9.328125 "/>
</clipPath>
</defs>
<g id="surface1">
<g clip-path="url(#clip1)" clip-rule="nonzero">
<path style=" stroke:none;fill-rule:nonzero;fill:rgb(6.27451%,32.549021%,47.450981%);fill-opacity:1;" d="M 9.328125 50 C 9.328125 27.539062 27.539062 9.328125 50 9.328125 C 72.460938 9.328125 90.671875 27.539062 90.671875 50 C 90.671875 72.460938 72.460938 90.671875 50 90.671875 C 27.539062 90.671875 9.328125 72.460938 9.328125 50 "/>
</g>
<path style=" stroke:none;fill-rule:nonzero;fill:rgb(58.823532%,85.490197%,94.509804%);fill-opacity:1;" d="M 13.722656 50 C 13.722656 29.964844 29.964844 13.722656 50 13.722656 C 70.035156 13.722656 86.277344 29.964844 86.277344 50 C 86.277344 70.035156 70.035156 86.277344 50 86.277344 C 29.964844 86.277344 13.722656 70.035156 13.722656 50 "/>
<path style=" stroke:none;fill-rule:nonzero;fill:rgb(6.27451%,32.549021%,47.450981%);fill-opacity:1;" d="M 17.546875 50 C 17.546875 32.078125 32.078125 17.546875 50 17.546875 C 67.921875 17.546875 82.453125 32.078125 82.453125 50 C 82.453125 67.921875 67.921875 82.453125 50 82.453125 C 32.078125 82.453125 17.546875 67.921875 17.546875 50 "/>
<path style=" stroke:none;fill-rule:nonzero;fill:rgb(58.039218%,84.705883%,93.725491%);fill-opacity:1;" d="M 36.949219 26.394531 C 37.074219 25.554688 37.945312 25.347656 38.476562 25.96875 L 38.648438 29.742188 L 40.457031 27.804688 C 41.066406 27.21875 41.917969 27.675781 41.925781 28.472656 C 41.71875 29.082031 38.648438 31.941406 38.648438 32.1875 L 38.648438 36.433594 C 38.878906 36.488281 38.8125 36.390625 38.878906 36.308594 C 39.304688 35.753906 40.238281 33.699219 41.152344 34.582031 C 41.835938 35.238281 40.394531 36.878906 40.347656 37.632812 L 43.796875 35.738281 C 44.449219 34.410156 44.738281 32.8125 45.320312 31.46875 C 45.582031 30.871094 46.105469 30.597656 46.632812 31.09375 C 47.265625 31.6875 46.097656 33.648438 46.039062 34.433594 C 46.117188 34.496094 46.796875 34.148438 46.929688 34.074219 C 47.757812 33.632812 48.652344 32.847656 49.5625 32.753906 C 50.078125 32.941406 50.460938 33.621094 50.039062 34.089844 C 49.601562 34.578125 47.117188 35.566406 46.941406 35.984375 C 46.851562 36.191406 47.085938 36.117188 47.175781 36.144531 C 47.609375 36.273438 49.554688 36.726562 49.734375 36.886719 C 50.089844 37.207031 50.003906 38.132812 49.484375 38.230469 C 49.328125 38.261719 49.15625 38.238281 48.996094 38.222656 C 47.71875 38.09375 46.175781 37.367188 44.945312 37.273438 C 44.515625 37.242188 42.335938 38.617188 41.785156 38.921875 C 41.703125 38.964844 40.933594 39.164062 41.492188 39.230469 C 42.074219 39.300781 43.769531 39.292969 44.148438 39.675781 C 44.722656 40.265625 43.992188 41.027344 43.292969 41.027344 L 41.347656 41.027344 C 41.320312 41.273438 41.636719 41.398438 41.816406 41.507812 C 42.253906 41.78125 44.375 43.085938 44.703125 43.125 C 44.835938 43.140625 44.9375 43.121094 45.066406 43.105469 C 46.285156 42.933594 47.9375 42.128906 49.113281 42.046875 C 49.902344 41.992188 50.238281 43.03125 49.675781 43.515625 L 46.878906 44.214844 L 46.738281 44.421875 L 49.832031 46.078125 C 50.457031 46.75 49.984375 47.796875 49.035156 47.472656 L 46.042969 45.824219 C 45.890625 46.019531 46.90625 48.292969 46.890625 48.769531 C 46.871094 49.511719 45.679688 49.824219 45.316406 48.992188 L 43.917969 44.648438 L 40.449219 42.726562 C 40.355469 43.550781 41.863281 45.125 41.152344 45.78125 C 40.089844 46.757812 39.320312 44.308594 38.648438 43.824219 L 38.648438 48.070312 C 39.113281 48.808594 41.941406 51.242188 41.917969 51.949219 C 41.902344 52.457031 41.304688 52.816406 40.820312 52.691406 C 40.5 52.609375 39.1875 51.039062 38.832031 50.6875 C 38.742188 50.597656 38.746094 50.46875 38.550781 50.519531 C 38.464844 50.875 38.640625 51.25 38.648438 51.566406 C 38.652344 51.738281 38.539062 51.910156 38.542969 52.070312 C 38.5625 52.800781 39.054688 54.785156 37.710938 54.683594 C 37.183594 54.640625 37.007812 54.320312 36.964844 53.851562 C 36.890625 53.074219 37.082031 52 37.058594 51.164062 C 37.054688 51.039062 37.007812 50.574219 36.949219 50.519531 C 36.789062 50.371094 36.765625 50.597656 36.722656 50.644531 C 36.476562 50.921875 34.988281 52.574219 34.828125 52.640625 C 34.488281 52.78125 34.105469 52.753906 33.851562 52.46875 C 33.386719 51.949219 33.816406 51.492188 34.15625 51.070312 C 34.570312 50.554688 36.878906 48.230469 36.949219 47.867188 L 36.851562 43.925781 C 36.09375 44.425781 35.574219 46.617188 34.414062 45.8125 C 33.59375 45.238281 35.15625 43.511719 35.105469 42.730469 L 31.609375 44.726562 C 31.070312 45.957031 30.839844 47.703125 30.261719 48.875 C 29.84375 49.726562 28.734375 49.542969 28.691406 48.753906 C 28.664062 48.265625 29.660156 45.851562 29.558594 45.722656 L 26.492188 47.5 C 25.539062 47.722656 25.226562 46.933594 25.59375 46.152344 L 28.757812 44.273438 C 28.128906 44.019531 26.296875 43.890625 25.808594 43.53125 C 25.355469 43.199219 25.457031 42.152344 26.214844 42.121094 C 27.433594 42.074219 29.5 43.023438 30.796875 43.125 C 31.222656 42.9375 34.242188 41.375 34.25 41.179688 C 34.261719 40.933594 32.941406 41.050781 32.707031 41.027344 C 32.007812 40.964844 31.207031 40.980469 31.257812 40.085938 C 31.316406 39.117188 33.574219 39.375 34.253906 39.179688 C 33.144531 38.417969 31.949219 37.800781 30.757812 37.175781 L 26.707031 38.226562 C 25.757812 38.460938 25.359375 37.613281 25.867188 36.886719 C 26.714844 36.546875 27.636719 36.40625 28.5 36.125 C 28.609375 36.089844 28.742188 36.09375 28.757812 35.933594 C 27.910156 35.425781 26.804688 34.984375 25.992188 34.457031 C 25.835938 34.351562 25.535156 34.140625 25.484375 33.964844 C 25.363281 33.570312 25.671875 32.867188 26.121094 32.839844 C 26.808594 32.800781 29.425781 34.675781 29.558594 34.535156 C 29.4375 33.742188 28.433594 31.960938 28.734375 31.265625 C 28.96875 30.730469 29.933594 30.679688 30.179688 31.265625 L 31.710938 35.730469 C 32.875 36.34375 33.976562 36.984375 35.152344 37.53125 C 35.09375 36.664062 33.351562 34.933594 34.699219 34.425781 C 35.484375 34.132812 36.257812 35.761719 36.722656 36.308594 C 37.078125 36.722656 36.851562 36.074219 36.847656 35.789062 C 36.828125 34.765625 37.089844 33.296875 36.945312 32.394531 C 36.914062 32.207031 36.851562 32.132812 36.75 31.988281 C 36.015625 30.925781 34.421875 29.84375 33.710938 28.738281 C 33.277344 28.066406 34 27.339844 34.75 27.597656 C 34.964844 27.675781 36.449219 29.304688 36.722656 29.613281 C 36.78125 29.679688 36.714844 29.804688 36.949219 29.742188 C 37.058594 28.707031 36.804688 27.390625 36.949219 26.394531 Z M 36.949219 26.394531 "/>
<path style=" stroke:none;fill-rule:nonzero;fill:rgb(58.039218%,84.705883%,93.725491%);fill-opacity:1;" d="M 63.9375 61.953125 C 63.9375 68.824219 58.367188 74.390625 51.5 74.390625 C 44.628906 74.390625 39.058594 68.824219 39.058594 61.953125 C 39.058594 55.082031 44.628906 49.511719 51.5 49.511719 C 58.367188 49.511719 63.9375 55.082031 63.9375 61.953125 Z M 62.308594 61.957031 C 62.308594 56.003906 57.480469 51.175781 51.527344 51.175781 C 45.578125 51.175781 40.75 56.003906 40.75 61.957031 C 40.75 67.90625 45.578125 72.734375 51.527344 72.734375 C 57.480469 72.734375 62.308594 67.90625 62.308594 61.957031 Z M 62.308594 61.957031 "/>
<path style=" stroke:none;fill-rule:nonzero;fill:rgb(58.039218%,84.705883%,93.725491%);fill-opacity:1;" d="M 64.726562 41.621094 C 64.496094 41.265625 65.15625 41.285156 65.410156 41.167969 C 66.886719 40.484375 67.910156 38.734375 68.089844 37.15625 C 68.671875 31.945312 64.203125 29.253906 59.476562 29.644531 C 57.957031 29.769531 56.625 30.515625 55.230469 31.039062 L 56.027344 30.1875 C 61.085938 25.007812 70.40625 27.289062 71.101562 34.898438 C 71.375 37.925781 69.375 41.921875 65.96875 41.925781 C 65.8125 41.925781 64.761719 41.675781 64.726562 41.621094 Z M 64.726562 41.621094 "/>
<path style=" stroke:none;fill-rule:nonzero;fill:rgb(58.039218%,84.705883%,93.725491%);fill-opacity:1;" d="M 72.078125 45.089844 C 67.929688 49.167969 59.742188 47.25 59.054688 41.25 C 58.902344 39.925781 59.550781 37.800781 60.921875 37.332031 C 60.953125 37.9375 60.519531 38.457031 60.515625 39.082031 C 60.507812 41.613281 63.242188 44.035156 65.664062 44.230469 C 69.386719 44.523438 72.117188 42.171875 73.347656 38.820312 L 74.007812 36.035156 C 74.597656 37.808594 74.75 39.527344 74.28125 41.351562 C 73.964844 42.582031 72.984375 44.199219 72.078125 45.089844 Z M 72.078125 45.089844 "/>
<path style=" stroke:none;fill-rule:nonzero;fill:rgb(58.039218%,84.705883%,93.725491%);fill-opacity:1;" d="M 65.523438 35.832031 C 65.402344 35.492188 64.667969 35.109375 64.320312 34.984375 C 61.726562 34.074219 58.828125 35.1875 57.511719 37.566406 C 56.058594 40.183594 56.542969 43.007812 58.007812 45.492188 L 59.824219 47.621094 C 57.566406 47 55.433594 45.058594 54.492188 42.914062 C 52.324219 37.984375 55.6875 31.84375 61.363281 32.351562 C 62.929688 32.492188 64.964844 33.472656 65.621094 34.984375 C 65.742188 35.265625 66.007812 35.835938 65.523438 35.832031 Z M 65.523438 35.832031 "/>
<path style=" stroke:none;fill-rule:nonzero;fill:rgb(58.039218%,84.705883%,93.725491%);fill-opacity:1;" d="M 49.585938 58.011719 C 49.867188 58.089844 51 60.792969 51.285156 61.207031 C 51.449219 61.230469 51.484375 61.082031 51.554688 60.976562 C 51.792969 60.613281 52.914062 58.011719 53.082031 58.011719 L 54.832031 58.011719 L 54.832031 66.300781 L 53.332031 66.300781 L 53.332031 60.90625 C 53.097656 60.859375 53.171875 60.9375 53.109375 61.035156 C 52.46875 62.027344 51.988281 63.371094 51.382812 64.402344 C 50.761719 63.375 50.230469 62.269531 49.722656 61.171875 L 49.4375 61.007812 L 49.4375 66.300781 L 47.9375 66.300781 L 47.9375 58.007812 C 48.378906 58.089844 49.210938 57.902344 49.585938 58.007812 Z M 49.585938 58.011719 "/>
<path style=" stroke:none;fill-rule:nonzero;fill:rgb(58.039218%,84.705883%,93.725491%);fill-opacity:1;" d="M 46.941406 58.011719 L 46.941406 59.40625 L 44.542969 59.40625 L 44.542969 61.40625 L 46.640625 61.40625 L 46.640625 62.804688 L 44.542969 62.804688 L 44.542969 64.753906 C 44.542969 65.03125 46.636719 64.804688 46.941406 64.902344 L 46.941406 66.300781 L 43.042969 66.300781 L 43.042969 58.007812 L 46.941406 58.007812 Z M 46.941406 58.011719 "/>
<path style=" stroke:none;fill-rule:nonzero;fill:rgb(58.039218%,84.705883%,93.725491%);fill-opacity:1;" d="M 57.527344 63.105469 L 57.527344 66.300781 L 56.03125 66.300781 L 56.03125 58.007812 L 58.976562 58.007812 C 59.382812 58.007812 60.15625 58.878906 60.304688 59.28125 C 60.632812 60.183594 60.535156 61.832031 59.824219 62.554688 C 59.242188 63.144531 58.300781 63.136719 57.527344 63.105469 Z M 57.527344 59.308594 L 57.527344 61.457031 C 57.527344 61.496094 57.390625 61.605469 57.425781 61.703125 C 59.5 62.3125 59.636719 58.882812 57.527344 59.308594 Z M 57.527344 59.308594 "/>
</g>
</svg>
