<?xml version="1.0" encoding="UTF-8"?>
<svg xmlns="http://www.w3.org/2000/svg" xmlns:xlink="http://www.w3.org/1999/xlink" width="100px" height="100px" viewBox="0 0 100 100" version="1.1">
<defs>
<clipPath id="clip1">
  <path d="M 9.328125 9.328125 L 90.671875 9.328125 L 90.671875 90.671875 L 9.328125 90.671875 Z M 9.328125 9.328125 "/>
</clipPath>
</defs>
<g id="surface1">
<g clip-path="url(#clip1)" clip-rule="nonzero">
<path style=" stroke:none;fill-rule:nonzero;fill:rgb(6.27451%,32.549021%,47.450981%);fill-opacity:1;" d="M 9.328125 50 C 9.328125 27.539062 27.539062 9.328125 50 9.328125 C 72.460938 9.328125 90.671875 27.539062 90.671875 50 C 90.671875 72.460938 72.460938 90.671875 50 90.671875 C 27.539062 90.671875 9.328125 72.460938 9.328125 50 "/>
</g>
<path style=" stroke:none;fill-rule:nonzero;fill:rgb(58.823532%,85.490197%,94.509804%);fill-opacity:1;" d="M 13.722656 50 C 13.722656 29.964844 29.964844 13.722656 50 13.722656 C 70.035156 13.722656 86.277344 29.964844 86.277344 50 C 86.277344 70.035156 70.035156 86.277344 50 86.277344 C 29.964844 86.277344 13.722656 70.035156 13.722656 50 "/>
<path style=" stroke:none;fill-rule:nonzero;fill:rgb(6.27451%,32.549021%,47.450981%);fill-opacity:1;" d="M 17.546875 50 C 17.546875 32.078125 32.078125 17.546875 50 17.546875 C 67.921875 17.546875 82.453125 32.078125 82.453125 50 C 82.453125 67.921875 67.921875 82.453125 50 82.453125 C 32.078125 82.453125 17.546875 67.921875 17.546875 50 "/>
<path style=" stroke:none;fill-rule:nonzero;fill:rgb(58.039218%,84.705883%,93.725491%);fill-opacity:1;" d="M 67.207031 30.910156 C 66.914062 31.203125 64.496094 30.9375 63.941406 31.039062 C 63.800781 31.898438 63.730469 32.898438 63.492188 33.734375 C 61.988281 39.027344 56.464844 40.0625 51.792969 41.117188 L 50.152344 48.3125 L 54.195312 48.414062 C 58.519531 49.199219 55.941406 53.421875 54.699219 55.808594 C 54.042969 57.078125 51.429688 61.8125 50.445312 62.441406 C 49.730469 62.902344 48.578125 62.539062 48.167969 61.832031 C 47.332031 60.394531 48.691406 58.921875 49.308594 57.707031 C 50.097656 56.148438 50.796875 54.539062 51.546875 52.957031 C 51.480469 52.859375 51.417969 52.828125 51.300781 52.808594 C 50.574219 52.683594 48.765625 52.722656 47.90625 52.703125 C 46.417969 52.671875 45.625 52.523438 44.816406 53.917969 C 43.675781 55.882812 42.796875 58.417969 41.714844 60.503906 C 40.796875 62.273438 39.707031 64.148438 38.679688 65.859375 C 38.191406 66.675781 36.933594 68.960938 36.367188 69.511719 C 35.691406 70.171875 34.503906 69.957031 33.867188 69.339844 C 33.453125 68.9375 33.421875 68.410156 33.472656 67.84375 C 33.5625 66.761719 35.75 63.078125 36.351562 61.835938 C 39.222656 55.917969 40.710938 51.578125 41.828125 45.035156 C 42.152344 43.148438 42.316406 41.273438 42.566406 39.378906 C 39.019531 38.042969 36.382812 35.171875 34.714844 31.832031 C 34.050781 30.5 32.695312 27.800781 34.335938 26.753906 C 36.597656 25.308594 37.300781 28.554688 38.011719 29.9375 C 39.890625 33.570312 42.03125 35.4375 46.132812 36.199219 C 49.097656 36.75 56.46875 36.960938 58.496094 34.332031 C 59.210938 33.402344 59.347656 32.152344 59.539062 31.035156 L 56.296875 30.929688 C 56.027344 30.878906 55.777344 30.585938 55.859375 30.308594 L 61.710938 22.855469 C 61.859375 22.808594 61.980469 22.859375 62.113281 22.917969 C 62.664062 23.160156 64.511719 26.214844 64.992188 26.929688 C 65.726562 28.011719 66.558594 29.042969 67.257812 30.160156 C 67.371094 30.347656 67.359375 30.757812 67.207031 30.910156 Z M 67.207031 30.910156 "/>
<path style=" stroke:none;fill-rule:nonzero;fill:rgb(58.039218%,84.705883%,93.725491%);fill-opacity:1;" d="M 51.515625 25.074219 C 56.554688 29.554688 50.464844 37.625 45.066406 33.769531 C 39.015625 29.453125 45.878906 20.0625 51.515625 25.074219 Z M 51.515625 25.074219 "/>
<path style=" stroke:none;fill-rule:nonzero;fill:rgb(58.039218%,84.705883%,93.725491%);fill-opacity:1;" d="M 42.859375 73.1875 C 42.601562 73.226562 42.425781 73.132812 42.464844 72.851562 C 42.976562 70.183594 43.269531 67.453125 43.804688 64.792969 C 43.875 64.449219 43.988281 63.519531 44.328125 63.417969 C 44.863281 63.25 45.289062 63.542969 45.238281 64.117188 C 45.179688 64.75 44.796875 66.027344 44.628906 66.714844 C 44.097656 68.882812 43.378906 71.015625 42.859375 73.1875 Z M 42.859375 73.1875 "/>
<path style=" stroke:none;fill-rule:nonzero;fill:rgb(58.039218%,84.705883%,93.725491%);fill-opacity:1;" d="M 50.949219 72.886719 C 50.90625 72.699219 51.058594 72.648438 51.148438 72.535156 C 52.253906 71.195312 54.242188 69.417969 55.597656 68.292969 C 55.964844 67.992188 56.863281 67.128906 57.289062 67.191406 C 57.804688 67.261719 57.871094 68.082031 57.445312 68.34375 C 55.746094 69.613281 54.019531 70.855469 52.28125 72.070312 C 52.109375 72.1875 51.039062 72.96875 50.949219 72.886719 Z M 50.949219 72.886719 "/>
<path style=" stroke:none;fill-rule:nonzero;fill:rgb(58.039218%,84.705883%,93.725491%);fill-opacity:1;" d="M 46.15625 74.382812 C 46.519531 72.703125 47.152344 71.097656 47.679688 69.464844 C 47.859375 68.914062 48.628906 65.847656 49.019531 65.710938 C 49.523438 65.535156 50.035156 65.835938 49.804688 66.394531 L 46.53125 74.109375 Z M 46.15625 74.382812 "/>
<path style=" stroke:none;fill-rule:nonzero;fill:rgb(58.039218%,84.705883%,93.725491%);fill-opacity:1;" d="M 39.351562 70.5 C 39.65625 70.691406 40.445312 75.300781 40.5625 75.980469 L 40.261719 75.914062 L 38.6875 71.3125 C 38.433594 70.871094 38.976562 70.269531 39.351562 70.5 Z M 39.351562 70.5 "/>
<path style=" stroke:none;fill-rule:nonzero;fill:rgb(58.039218%,84.705883%,93.725491%);fill-opacity:1;" d="M 53.023438 74.804688 C 53.574219 74.753906 53.734375 75.410156 53.449219 75.734375 C 53.042969 76.195312 50.609375 76.707031 49.976562 77.164062 C 49.054688 77.089844 49.773438 76.667969 50.136719 76.417969 C 50.585938 76.117188 52.636719 74.839844 53.023438 74.804688 Z M 53.023438 74.804688 "/>
<path style=" stroke:none;fill-rule:nonzero;fill:rgb(58.039218%,84.705883%,93.725491%);fill-opacity:1;" d="M 32.796875 74.160156 C 32.460938 73.8125 32.828125 73.191406 33.296875 73.300781 L 36.066406 74.832031 C 36.3125 75.085938 36.09375 75.523438 35.765625 75.445312 Z M 32.796875 74.160156 "/>
</g>
</svg>
