<?xml version="1.0" encoding="UTF-8"?>
<svg xmlns="http://www.w3.org/2000/svg" xmlns:xlink="http://www.w3.org/1999/xlink" width="100px" height="100px" viewBox="0 0 100 100" version="1.1">
<defs>
<clipPath id="clip1">
  <path d="M 9.328125 9.328125 L 90.671875 9.328125 L 90.671875 90.671875 L 9.328125 90.671875 Z M 9.328125 9.328125 "/>
</clipPath>
</defs>
<g id="surface1">
<g clip-path="url(#clip1)" clip-rule="nonzero">
<path style=" stroke:none;fill-rule:nonzero;fill:rgb(6.27451%,32.549021%,47.450981%);fill-opacity:1;" d="M 9.328125 50 C 9.328125 27.539062 27.539062 9.328125 50 9.328125 C 72.460938 9.328125 90.671875 27.539062 90.671875 50 C 90.671875 72.460938 72.460938 90.671875 50 90.671875 C 27.539062 90.671875 9.328125 72.460938 9.328125 50 "/>
</g>
<path style=" stroke:none;fill-rule:nonzero;fill:rgb(58.823532%,85.490197%,94.509804%);fill-opacity:1;" d="M 13.722656 50 C 13.722656 29.964844 29.964844 13.722656 50 13.722656 C 70.035156 13.722656 86.277344 29.964844 86.277344 50 C 86.277344 70.035156 70.035156 86.277344 50 86.277344 C 29.964844 86.277344 13.722656 70.035156 13.722656 50 "/>
<path style=" stroke:none;fill-rule:nonzero;fill:rgb(6.27451%,32.549021%,47.450981%);fill-opacity:1;" d="M 17.546875 50 C 17.546875 32.078125 32.078125 17.546875 50 17.546875 C 67.921875 17.546875 82.453125 32.078125 82.453125 50 C 82.453125 67.921875 67.921875 82.453125 50 82.453125 C 32.078125 82.453125 17.546875 67.921875 17.546875 50 "/>
<path style=" stroke:none;fill-rule:nonzero;fill:rgb(58.431375%,84.705883%,93.725491%);fill-opacity:1;" d="M 64.082031 29.429688 C 64.117188 29.46875 64.292969 29.753906 64.335938 29.621094 C 63.402344 27.652344 61.9375 25.976562 60.230469 24.636719 C 60.164062 24.585938 59.460938 24.203125 59.792969 24.179688 C 60.015625 24.160156 61.472656 24.921875 61.769531 25.097656 C 71.007812 30.503906 73.191406 43.246094 71.527344 53.046875 L 72.273438 51.746094 C 72.554688 51.484375 72.757812 49.921875 72.828125 49.851562 C 72.96875 49.703125 73.007812 49.859375 73.027344 50 C 73.089844 50.515625 73.054688 51.457031 73.03125 52.003906 C 72.910156 54.445312 72.398438 57.621094 71.703125 59.964844 C 70.277344 64.765625 67.199219 68.851562 63.136719 71.726562 C 63.113281 71.917969 63.324219 71.785156 63.417969 71.757812 C 64.386719 71.445312 65.238281 70.875 66.085938 70.332031 C 65.652344 71.074219 64.808594 71.898438 64.136719 72.476562 C 56.828125 78.769531 46.875 78.441406 39.039062 73.394531 C 38.496094 73.042969 35.878906 71.351562 35.769531 70.871094 C 35.738281 70.730469 35.847656 70.703125 35.933594 70.644531 C 36.167969 70.46875 38.015625 69.277344 38.140625 69.246094 C 38.328125 69.199219 38.375 69.25 38.523438 69.320312 C 38.941406 69.519531 39.6875 70.335938 40.171875 70.667969 C 48.308594 76.246094 60.003906 73.558594 65.050781 65.203125 C 67.148438 61.730469 68.144531 58.113281 68.519531 54.082031 C 68.527344 53.972656 68.609375 53.722656 68.433594 53.746094 C 68.105469 54.6875 67.691406 55.59375 67.179688 56.445312 C 67.105469 56.574219 67.199219 56.699219 66.933594 56.644531 C 67.050781 55.992188 67.238281 55.355469 67.332031 54.695312 C 68.789062 44.21875 66.929688 32.121094 56.480469 27.089844 C 53.777344 25.789062 50.890625 25.390625 48.277344 27.144531 C 47.898438 27.398438 47.269531 28.140625 46.925781 28.34375 C 46.742188 28.453125 46.308594 28.4375 46.058594 28.527344 C 37.894531 31.519531 33.476562 39.09375 32.289062 47.421875 C 31.558594 52.53125 32.074219 56.988281 33.421875 61.9375 C 33.523438 62.324219 33.863281 62.898438 33.773438 63.265625 C 33.734375 63.414062 31.523438 64.523438 31.140625 64.339844 C 31.074219 64.328125 30.664062 63.328125 30.597656 63.164062 C 28.28125 57.507812 28.492188 50.511719 29.800781 44.632812 C 29.929688 44.046875 30.171875 43.457031 30.273438 42.859375 L 29.636719 43.769531 L 28.773438 45.554688 L 28.574219 45.40625 C 29.476562 39.121094 32.820312 33.167969 37.964844 29.421875 C 37.894531 29.285156 37.695312 29.425781 37.597656 29.453125 C 36.265625 29.859375 34.945312 30.558594 33.820312 31.371094 C 33.722656 31.363281 33.761719 31.203125 33.785156 31.140625 C 33.867188 30.945312 34.984375 29.699219 35.214844 29.46875 C 40.890625 23.75 49.929688 20.953125 57.613281 24.160156 C 60.542969 25.382812 62.070312 27.117188 64.082031 29.429688 Z M 64.082031 29.429688 "/>
<path style=" stroke:none;fill-rule:nonzero;fill:rgb(58.431375%,84.705883%,93.725491%);fill-opacity:1;" d="M 54.902344 28.917969 C 56.902344 30.816406 56.417969 34.203125 53.847656 35.316406 C 56.816406 36.789062 56.121094 40.257812 55.746094 42.957031 C 56.992188 42.949219 57.816406 42.597656 58.695312 41.765625 C 59.371094 41.128906 60.9375 38.761719 61.992188 39.757812 C 62.933594 40.640625 62.230469 41.996094 61.679688 42.847656 C 60.632812 44.46875 58.691406 46.441406 56.679688 46.640625 C 55.777344 46.734375 55.199219 46.457031 54.355469 46.363281 C 54.109375 47.988281 53.476562 49.539062 53.261719 51.175781 C 54.578125 52.527344 55.835938 53.941406 57.148438 55.296875 C 58.796875 57 60.105469 57.625 60.789062 60.140625 C 61.253906 61.84375 61.328125 62.980469 62.183594 64.636719 C 62.378906 65.015625 63.050781 65.777344 62.886719 66.128906 C 62.867188 66.179688 62.269531 66.847656 62.1875 66.929688 C 61.433594 67.660156 61.019531 67.980469 60.066406 67.363281 C 58.898438 66.605469 57.089844 63.855469 56.710938 62.519531 C 56.582031 62.058594 56.558594 61.054688 56.300781 60.730469 L 50.902344 57.339844 L 50.609375 57.234375 C 49.839844 58.625 49.234375 60.113281 48.46875 61.503906 C 48.035156 62.292969 47.207031 63.855469 46.554688 64.386719 C 45.695312 65.089844 44.328125 65.082031 43.238281 65.363281 C 40.632812 66.027344 37.945312 67.257812 35.53125 68.445312 C 34.878906 68.765625 33.539062 69.328125 33.035156 69.742188 C 32.5625 70.136719 32.820312 71.632812 32.773438 72.28125 C 32.640625 74.132812 31.957031 73.824219 30.976562 72.671875 C 30.097656 71.640625 28.808594 69.019531 28.972656 67.679688 C 29.109375 66.53125 30.492188 66.816406 31.292969 66.703125 C 34.378906 66.269531 38.035156 62.546875 41.683594 61.511719 C 42.050781 61.40625 43.136719 61.304688 43.308594 61.140625 C 43.417969 61.03125 44.222656 58.589844 44.3125 58.246094 C 45.011719 55.546875 45.007812 52.679688 45.886719 50.03125 C 45.980469 49.753906 46.472656 49.085938 46.257812 48.902344 C 44.675781 48.042969 43.046875 47.199219 41.527344 46.238281 C 40.738281 45.738281 38.238281 44.109375 37.941406 43.328125 C 37.832031 43.03125 37.816406 42.78125 37.941406 42.484375 C 38 42.339844 39.042969 41.324219 39.242188 41.164062 C 40.460938 40.179688 42.257812 39.09375 43.625 38.28125 C 45.816406 36.980469 48.101562 35.808594 50.449219 34.816406 C 49.292969 33.511719 48.707031 32.652344 48.855469 30.824219 C 49.097656 27.796875 52.84375 26.964844 54.902344 28.917969 Z M 47.355469 40.363281 L 42.660156 42.761719 C 42.628906 42.902344 42.640625 42.886719 42.722656 42.964844 C 43.851562 44.039062 45.582031 44.925781 46.90625 45.757812 L 47.054688 45.609375 Z M 47.355469 40.363281 "/>
<path style=" stroke:none;fill-rule:nonzero;fill:rgb(58.431375%,84.705883%,93.725491%);fill-opacity:1;" d="M 57.742188 69.128906 C 56.40625 70.570312 54.382812 71.421875 52.46875 71.796875 C 50.195312 72.242188 48.035156 72.042969 45.859375 71.175781 C 45.558594 71.054688 45.183594 70.914062 44.957031 70.675781 C 45.722656 70.628906 46.476562 70.96875 47.234375 71.09375 C 49.710938 71.511719 51.933594 71.253906 54.324219 70.554688 Z M 57.742188 69.128906 "/>
<path style=" stroke:none;fill-rule:nonzero;fill:rgb(58.431375%,84.705883%,93.725491%);fill-opacity:1;" d="M 34.667969 58.738281 C 34.5 58.941406 34.296875 58.269531 34.265625 58.195312 C 33.121094 55.320312 33.09375 51.886719 33.472656 48.851562 C 33.644531 48.828125 33.566406 49.078125 33.570312 49.199219 C 33.628906 50.75 33.511719 52.222656 33.683594 53.785156 C 33.859375 55.425781 34.292969 57.132812 34.667969 58.742188 Z M 34.667969 58.738281 "/>
<path style=" stroke:none;fill-rule:nonzero;fill:rgb(58.431375%,84.705883%,93.725491%);fill-opacity:1;" d="M 27.375 50.25 C 27.164062 51.410156 27.113281 52.617188 27.171875 53.800781 C 27.179688 53.984375 27.476562 55.542969 27.328125 55.546875 C 26.875 54.066406 26.804688 52 27.175781 50.492188 C 27.214844 50.324219 27.074219 50.203125 27.375 50.25 Z M 27.375 50.25 "/>
<path style=" stroke:none;fill-rule:nonzero;fill:rgb(58.431375%,84.705883%,93.725491%);fill-opacity:1;" d="M 27.476562 55.644531 L 27.476562 56.042969 C 27.421875 56.164062 27.222656 55.699219 27.277344 55.644531 Z M 27.476562 55.644531 "/>
</g>
</svg>
