<?xml version="1.0" encoding="UTF-8"?>
<svg xmlns="http://www.w3.org/2000/svg" xmlns:xlink="http://www.w3.org/1999/xlink" width="100px" height="100px" viewBox="0 0 100 100" version="1.1">
<g id="surface1">
<path style=" stroke:none;fill-rule:nonzero;fill:rgb(6.27451%,32.549021%,47.450981%);fill-opacity:1;" d="M 90.671875 50 C 90.671875 27.539062 72.460938 9.328125 50 9.328125 C 27.539062 9.328125 9.328125 27.539062 9.328125 50 C 9.328125 72.460938 27.539062 90.671875 50 90.671875 C 72.460938 90.671875 90.671875 72.460938 90.671875 50 Z M 90.671875 50 "/>
<path style=" stroke:none;fill-rule:nonzero;fill:rgb(58.823532%,85.490197%,94.509804%);fill-opacity:1;" d="M 86.277344 50 C 86.277344 29.964844 70.035156 13.722656 50 13.722656 C 29.964844 13.722656 13.722656 29.964844 13.722656 50 C 13.722656 70.035156 29.964844 86.277344 50 86.277344 C 70.035156 86.277344 86.277344 70.035156 86.277344 50 Z M 86.277344 50 "/>
<path style=" stroke:none;fill-rule:nonzero;fill:rgb(6.27451%,32.549021%,47.450981%);fill-opacity:1;" d="M 82.453125 50 C 82.453125 32.078125 67.921875 17.546875 50 17.546875 C 32.078125 17.546875 17.546875 32.078125 17.546875 50 C 17.546875 67.921875 32.078125 82.453125 50 82.453125 C 67.921875 82.453125 82.453125 67.921875 82.453125 50 Z M 82.453125 50 "/>
<path style=" stroke:none;fill-rule:nonzero;fill:rgb(58.039218%,84.705883%,93.725491%);fill-opacity:1;" d="M 52.441406 30.195312 L 52.441406 27.316406 L 58.195312 27.316406 C 58.714844 27.316406 59.136719 26.894531 59.136719 26.375 L 59.136719 23.800781 C 59.136719 23.28125 58.714844 22.859375 58.195312 22.859375 L 41.6875 22.859375 C 41.167969 22.859375 40.75 23.28125 40.75 23.800781 L 40.75 26.375 C 40.75 26.894531 41.167969 27.316406 41.6875 27.316406 L 47.421875 27.316406 L 47.421875 30.199219 C 35.480469 31.464844 26.179688 41.5625 26.179688 53.835938 C 26.179688 66.964844 36.824219 77.609375 49.953125 77.609375 C 63.082031 77.609375 73.726562 66.964844 73.726562 53.835938 C 73.726562 41.546875 64.398438 31.4375 52.441406 30.195312 Z M 49.953125 74.246094 C 38.679688 74.246094 29.542969 65.109375 29.542969 53.835938 C 29.542969 42.566406 38.679688 33.425781 49.953125 33.425781 C 61.222656 33.425781 70.363281 42.566406 70.363281 53.835938 C 70.363281 65.109375 61.222656 74.246094 49.953125 74.246094 Z M 49.953125 74.246094 "/>
<path style=" stroke:none;fill-rule:nonzero;fill:rgb(58.039218%,84.705883%,93.725491%);fill-opacity:1;" d="M 48.621094 44.0625 L 51.402344 44.0625 L 51.402344 53.925781 L 48.621094 53.925781 Z M 48.621094 44.0625 "/>
<path style=" stroke:none;fill-rule:nonzero;fill:rgb(58.039218%,84.705883%,93.725491%);fill-opacity:1;" d="M 48.621094 53.914062 L 50.589844 51.945312 L 59.667969 61.023438 L 57.699219 62.992188 Z M 48.621094 53.914062 "/>
<path style=" stroke:none;fill-rule:nonzero;fill:rgb(58.039218%,84.705883%,93.725491%);fill-opacity:1;" d="M 66.203125 52.101562 L 68.90625 52.101562 C 69.226562 52.101562 69.484375 52.359375 69.484375 52.679688 L 69.484375 54.480469 C 69.484375 54.800781 69.226562 55.058594 68.90625 55.058594 L 66.203125 55.058594 C 65.882812 55.058594 65.625 54.800781 65.625 54.480469 L 65.625 52.679688 C 65.625 52.359375 65.882812 52.101562 66.203125 52.101562 Z M 66.203125 52.101562 "/>
<path style=" stroke:none;fill-rule:nonzero;fill:rgb(58.039218%,84.705883%,93.725491%);fill-opacity:1;" d="M 31.070312 52.078125 L 33.773438 52.078125 C 34.09375 52.078125 34.351562 52.335938 34.351562 52.65625 L 34.351562 54.457031 C 34.351562 54.777344 34.09375 55.035156 33.773438 55.035156 L 31.070312 55.035156 C 30.75 55.035156 30.492188 54.777344 30.492188 54.457031 L 30.492188 52.65625 C 30.492188 52.335938 30.75 52.078125 31.070312 52.078125 Z M 31.070312 52.078125 "/>
<path style=" stroke:none;fill-rule:nonzero;fill:rgb(58.039218%,84.705883%,93.725491%);fill-opacity:1;" d="M 51.480469 69.792969 L 51.480469 72.496094 C 51.480469 72.816406 51.222656 73.074219 50.902344 73.074219 L 49.101562 73.074219 C 48.78125 73.074219 48.519531 72.816406 48.519531 72.496094 L 48.519531 69.792969 C 48.519531 69.472656 48.78125 69.214844 49.101562 69.214844 L 50.902344 69.214844 C 51.222656 69.214844 51.480469 69.472656 51.480469 69.792969 Z M 51.480469 69.792969 "/>
<path style=" stroke:none;fill-rule:nonzero;fill:rgb(58.039218%,84.705883%,93.725491%);fill-opacity:1;" d="M 51.503906 34.664062 L 51.503906 37.367188 C 51.503906 37.683594 51.246094 37.945312 50.925781 37.945312 L 49.125 37.945312 C 48.804688 37.945312 48.542969 37.683594 48.542969 37.367188 L 48.542969 34.664062 C 48.542969 34.34375 48.804688 34.085938 49.125 34.085938 L 50.925781 34.085938 C 51.246094 34.085938 51.503906 34.34375 51.503906 34.664062 Z M 51.503906 34.664062 "/>
</g>
</svg>
