<?xml version="1.0" encoding="UTF-8"?>
<svg xmlns="http://www.w3.org/2000/svg" xmlns:xlink="http://www.w3.org/1999/xlink" width="100px" height="100px" viewBox="0 0 100 100" version="1.1">
<g id="surface1">
<path style=" stroke:none;fill-rule:nonzero;fill:rgb(6.27451%,32.549021%,47.450981%);fill-opacity:1;" d="M 90.671875 50 C 90.671875 27.539062 72.460938 9.328125 50 9.328125 C 27.539062 9.328125 9.328125 27.539062 9.328125 50 C 9.328125 72.460938 27.539062 90.671875 50 90.671875 C 72.460938 90.671875 90.671875 72.460938 90.671875 50 Z M 90.671875 50 "/>
<path style=" stroke:none;fill-rule:nonzero;fill:rgb(58.823532%,85.490197%,94.509804%);fill-opacity:1;" d="M 86.277344 50 C 86.277344 29.964844 70.035156 13.722656 50 13.722656 C 29.964844 13.722656 13.722656 29.964844 13.722656 50 C 13.722656 70.035156 29.964844 86.277344 50 86.277344 C 70.035156 86.277344 86.277344 70.035156 86.277344 50 Z M 86.277344 50 "/>
<path style=" stroke:none;fill-rule:nonzero;fill:rgb(6.27451%,32.549021%,47.450981%);fill-opacity:1;" d="M 82.453125 50 C 82.453125 32.078125 67.921875 17.546875 50 17.546875 C 32.078125 17.546875 17.546875 32.078125 17.546875 50 C 17.546875 67.921875 32.078125 82.453125 50 82.453125 C 67.921875 82.453125 82.453125 67.921875 82.453125 50 Z M 82.453125 50 "/>
<path style=" stroke:none;fill-rule:nonzero;fill:rgb(58.431375%,85.09804%,94.117647%);fill-opacity:1;" d="M 28.738281 44.949219 C 28.417969 44.917969 27.664062 44.757812 27.367188 44.625 C 25.683594 43.871094 26.117188 41.230469 27.847656 40.960938 C 29.136719 40.894531 31.363281 40.5625 31.765625 42.226562 C 31.789062 42.34375 31.710938 43.3125 31.984375 43.050781 C 34.167969 38.277344 35.210938 33.046875 41.425781 32.664062 C 46.746094 32.214844 53.394531 32.183594 58.707031 32.664062 C 64.695312 33.1875 65.984375 38.332031 67.949219 43.152344 C 68.382812 43.527344 67.929688 41.214844 69.515625 40.976562 C 69.925781 40.890625 71.660156 40.894531 72.085938 40.960938 C 73.859375 41.238281 74.3125 43.695312 72.710938 44.570312 C 71.859375 45.054688 70.082031 44.945312 69.144531 44.949219 C 70.425781 46.523438 72.183594 48.265625 72.429688 50.402344 C 72.863281 54.175781 72.503906 58.855469 72.335938 62.675781 C 72.246094 64.746094 72.835938 67.367188 70 67.628906 C 69.023438 67.71875 66.050781 67.726562 65.226562 67.398438 C 64.808594 67.230469 64.050781 66.417969 64.050781 65.976562 L 64.050781 63.476562 C 64.039062 63.039062 36.132812 63.480469 35.980469 63.328125 L 35.980469 65.976562 C 35.394531 68.324219 31.8125 67.59375 29.933594 67.628906 C 27.066406 67.574219 27.640625 63.90625 27.59375 61.875 C 27.484375 58.359375 27.277344 54.808594 27.488281 51.289062 C 27.457031 48.699219 29.320312 46.914062 30.6875 44.949219 C 30.054688 44.90625 29.363281 45.007812 28.738281 44.949219 Z M 65.320312 44.222656 C 65.785156 43.589844 64.3125 41.289062 64.066406 40.488281 C 63.253906 38.652344 62.585938 36.472656 60.621094 35.640625 C 57.753906 34.5625 40.269531 34.316406 38.230469 36.261719 C 37.292969 37.023438 35.503906 41.175781 34.964844 42.484375 C 34.710938 43.097656 34.066406 44.121094 34.957031 44.421875 L 64.605469 44.453125 C 64.792969 44.457031 65.203125 44.351562 65.320312 44.222656 Z M 38.34375 51.878906 C 36.488281 50.191406 33.847656 50.011719 31.261719 49.960938 C 30.742188 49.953125 30.226562 50.351562 30.109375 50.914062 C 30.03125 51.320312 30.003906 53.261719 30.113281 53.664062 C 30.320312 54.445312 31.089844 55 31.863281 55.113281 C 32.925781 55.265625 36.976562 55.285156 38.003906 55.113281 C 39.488281 54.867188 39.082031 52.710938 38.34375 51.878906 Z M 68.429688 49.96875 C 67.25 50.007812 64.574219 50.59375 63.351562 50.890625 C 61.417969 50.988281 59.617188 55.191406 62.199219 55.140625 C 64.84375 55.09375 70.84375 56.609375 69.933594 51.300781 C 69.832031 50.53125 69.21875 49.9375 68.429688 49.96875 Z M 68.429688 49.96875 "/>
</g>
</svg>
