<?xml version="1.0" encoding="UTF-8"?>
<svg xmlns="http://www.w3.org/2000/svg" xmlns:xlink="http://www.w3.org/1999/xlink" width="100px" height="100px" viewBox="0 0 100 100" version="1.1">
<g id="surface1">
<path style=" stroke:none;fill-rule:nonzero;fill:rgb(6.27451%,32.549021%,47.450981%);fill-opacity:1;" d="M 90.671875 50 C 90.671875 27.539062 72.460938 9.328125 50 9.328125 C 27.539062 9.328125 9.328125 27.539062 9.328125 50 C 9.328125 72.460938 27.539062 90.671875 50 90.671875 C 72.460938 90.671875 90.671875 72.460938 90.671875 50 Z M 90.671875 50 "/>
<path style=" stroke:none;fill-rule:nonzero;fill:rgb(58.823532%,85.490197%,94.509804%);fill-opacity:1;" d="M 86.277344 50 C 86.277344 29.964844 70.035156 13.722656 50 13.722656 C 29.964844 13.722656 13.722656 29.964844 13.722656 50 C 13.722656 70.035156 29.964844 86.277344 50 86.277344 C 70.035156 86.277344 86.277344 70.035156 86.277344 50 Z M 86.277344 50 "/>
<path style=" stroke:none;fill-rule:nonzero;fill:rgb(6.27451%,32.549021%,47.450981%);fill-opacity:1;" d="M 82.453125 50 C 82.453125 32.078125 67.921875 17.546875 50 17.546875 C 32.078125 17.546875 17.546875 32.078125 17.546875 50 C 17.546875 67.921875 32.078125 82.453125 50 82.453125 C 67.921875 82.453125 82.453125 67.921875 82.453125 50 Z M 82.453125 50 "/>
<path style=" stroke:none;fill-rule:nonzero;fill:rgb(58.039218%,84.705883%,93.725491%);fill-opacity:1;" d="M 53.832031 34.863281 L 65.367188 34.863281 C 65.722656 34.863281 66.335938 35.890625 67.011719 35.3125 C 67.546875 34.855469 66.847656 32.785156 67.507812 32.609375 C 69.078125 32.1875 67.824219 34.972656 68.3125 35.722656 C 68.664062 35.703125 70.910156 35.574219 71.007812 35.667969 C 71.09375 35.753906 70.875 36.402344 71.5625 36.371094 C 72.085938 36.34375 72.058594 35.746094 72.460938 35.664062 C 72.839844 35.589844 75.566406 35.601562 75.933594 35.683594 C 76.902344 35.902344 77.144531 37.984375 76.050781 38.15625 C 75.667969 38.214844 74.890625 38.246094 74.460938 38.265625 C 73.34375 38.316406 66.027344 38.050781 65.722656 38.367188 C 65.511719 38.582031 66.152344 39.375 65.269531 39.460938 C 62.363281 39.734375 58.851562 39.492188 55.875 39.554688 C 55.636719 39.558594 55.421875 39.65625 55.183594 39.664062 C 54.367188 39.683594 52.476562 39.503906 51.828125 39.703125 C 50.894531 39.988281 51.273438 41.503906 51.441406 42.199219 C 51.753906 43.492188 52.46875 45.160156 53.09375 46.339844 C 53.253906 46.640625 54.203125 47.898438 54.027344 48.144531 L 49.585938 49.636719 L 49.230469 49.476562 L 46.574219 43.449219 C 45.042969 43.84375 42.0625 42.996094 40.945312 44.230469 C 40.605469 44.667969 39.082031 47.53125 38.78125 47.632812 C 38.5625 47.707031 38.179688 47.648438 37.945312 47.605469 C 37.683594 47.554688 35.449219 46.800781 35.347656 46.703125 C 35.148438 46.511719 35.28125 46.320312 35.363281 46.113281 C 35.769531 45.085938 37.121094 43.363281 37.730469 42.285156 C 37.921875 41.949219 38.640625 40.722656 38.707031 40.457031 C 38.863281 39.8125 38.046875 39.820312 37.621094 39.882812 C 36.945312 39.984375 35.582031 40.480469 34.855469 40.710938 C 31.816406 41.667969 28.933594 43.007812 25.960938 44.101562 C 25.191406 44.386719 24.695312 44.796875 24.390625 43.875 C 23.875 42.304688 23.40625 38.914062 23.265625 37.210938 C 23.238281 36.875 23.128906 35.878906 23.464844 35.714844 L 36.878906 35.644531 C 37.855469 35.421875 39.101562 32.734375 39.8125 31.980469 C 40.054688 31.859375 40.332031 31.714844 40.605469 31.675781 C 42.453125 31.429688 44.519531 31.636719 46.300781 32.15625 C 48.746094 32.378906 51.203125 32.476562 53.664062 32.484375 C 54.226562 32.671875 53.683594 34.398438 53.832031 34.863281 Z M 41.746094 35.863281 L 51.78125 35.863281 C 52.300781 35.863281 52.621094 34.707031 51.882812 34.566406 L 42.347656 34.617188 C 41.929688 34.914062 41.78125 35.363281 41.746094 35.863281 Z M 45.640625 40.558594 L 43.042969 40.558594 C 42.996094 41.296875 42.316406 41.804688 42.34375 42.554688 L 44.191406 42.554688 C 44.234375 42.554688 44.792969 42.296875 44.875 42.242188 C 45.371094 41.90625 45.617188 41.136719 45.640625 40.558594 Z M 45.640625 40.558594 "/>
<path style=" stroke:none;fill-rule:nonzero;fill:rgb(58.039218%,84.705883%,93.725491%);fill-opacity:1;" d="M 35.300781 56.242188 C 35.089844 56.175781 35.136719 55.496094 35.148438 55.289062 C 35.550781 48.800781 46.542969 48.785156 47.890625 54.042969 C 49.117188 58.828125 43.671875 62.023438 40.945312 65.082031 C 40.921875 65.386719 41.054688 65.132812 41.09375 65.132812 L 48.136719 65.132812 L 48.136719 68.425781 L 35.402344 68.425781 C 35.390625 68.425781 35.25 68.289062 35.25 68.277344 L 35.25 65.582031 C 37.144531 63.550781 39.375 61.832031 41.296875 59.839844 C 42.023438 59.082031 43.300781 57.660156 43.644531 56.691406 C 45.15625 52.453125 38.933594 52.234375 39.246094 56.242188 Z M 35.300781 56.242188 "/>
<path style=" stroke:none;fill-rule:nonzero;fill:rgb(58.039218%,84.705883%,93.725491%);fill-opacity:1;" d="M 55.578125 55.042969 L 57.679688 58.839844 L 59.875 55.042969 L 64.867188 55.042969 C 64.878906 55.042969 65.066406 55.1875 64.96875 55.242188 L 60.628906 61.683594 L 65.117188 68.425781 L 59.925781 68.425781 C 59.367188 67.09375 58.398438 65.953125 57.777344 64.628906 C 57.609375 64.621094 57.523438 64.78125 57.445312 64.898438 C 56.992188 65.542969 56.542969 66.433594 56.128906 67.101562 C 55.875 67.519531 55.6875 68.039062 55.378906 68.425781 L 50.335938 68.425781 L 54.734375 61.679688 L 50.335938 55.042969 Z M 55.578125 55.042969 "/>
</g>
</svg>
